<svg width="333" height="271" viewBox="0 0 333 271" fill="none" xmlns="http://www.w3.org/2000/svg">
<path d="M63.8617 147.406H85.1255V270.447H63.8617V147.406Z" fill="#25D5C6"/>
<path d="M197.517 147.406H218.781V270.447H197.517V147.406Z" fill="#25D5C6"/>
<path d="M237.338 56.9199L283.657 66.9558L267.044 144.028L220.725 133.992L237.338 56.9199Z" fill="#25D5C6"/>
<path d="M280.113 39.8064H325.705V85.5163H280.113V39.8064Z" fill="#F5F5F5"/>
<path d="M223.036 76.2061L274.222 104.054L274.202 104.006L316.373 110.663L333 81.6234L246.79 34.7197L223.036 76.2061Z" fill="#25D5C6"/>
<path d="M40.7702 84.0581H176.25V138.27H40.7702V84.0581Z" fill="#F5F5F5"/>
<path d="M267.384 20.1016H295.331V65.7853H267.384V20.1016Z" fill="#F5F5F5"/>
<path d="M222.906 7.54028H268.497V53.2501H222.906V7.54028Z" fill="#F5F5F5"/>
<path d="M245.496 0H275.891V30.4733H245.496V0Z" fill="#F5F5F5"/>
<path d="M200.559 15.6067H230.953V46.0799H200.559V15.6067Z" fill="#F5F5F5"/>
<path d="M194.468 32.8916H224.862V63.3649H194.468V32.8916Z" fill="#F5F5F5"/>
<path d="M200.554 46.9014H238.222V77.3572H200.554V46.9014Z" fill="#F5F5F5"/>
<path d="M212.689 63.3477H243.083V93.8209H212.689V63.3477Z" fill="#F5F5F5"/>
<path d="M238.224 70.0483H261.311V100.504H238.224V70.0483Z" fill="#F5F5F5"/>
<path d="M103.352 171.162H207.848V221.719H103.352V171.162Z" fill="#F5F5F5"/>
<path d="M40.276 83.7115L51.6082 92.9993L11.4486 142.254L0.11648 132.966L40.276 83.7115Z" fill="#F5F5F5"/>
<path d="M33.4508 165.68L22.1187 174.968L47.6692 206.305L59.0013 197.017L33.4508 165.68Z" fill="#F5F5F5"/>
<path d="M242.844 95.6319L231.512 104.92L268.205 149.923L279.537 140.635L242.844 95.6319Z" fill="#F5F5F5"/>
<path d="M212.476 84.3868L212.266 103.381L270.238 104.025L270.447 85.0308L212.476 84.3868Z" fill="#25D5C6"/>
<path d="M248.381 56.6487L248.265 67.1426L264.234 67.32L264.35 56.8261L248.381 56.6487Z" fill="#25D5C6"/>
<path d="M228.551 58.6449L239.263 58.7639L239.44 42.7538L228.728 42.6348L228.551 58.6449Z" fill="#25D5C6"/>
<path d="M242.774 47.0749L253.24 47.1912L253.417 31.181L242.951 31.0648L242.774 47.0749Z" fill="#25D5C6"/>
<path d="M228.739 34.1391L228.51 54.8433L250.758 55.0904L250.987 34.3863L228.739 34.1391Z" fill="#25D5C6"/>
<path d="M245.133 37.7646L244.904 58.4688L267.153 58.7159L267.381 38.0118L245.133 37.7646Z" fill="#25D5C6"/>
<path d="M247.945 49.9482H261.311V78.5767H247.945V49.9482Z" fill="#F5F5F5"/>
<path d="M320.684 84.736L322.756 81.0129L327.531 83.6849L325.458 87.408L320.684 84.736Z" fill="#F5F5F5"/>
<path d="M285.888 66.7384L287.017 64.7109L306.537 75.6354L305.409 77.6628L285.888 66.7384Z" fill="#F5F5F5"/>
<path d="M282.947 76.8721L285.868 71.6257L301.271 80.2458L298.35 85.4921L282.947 76.8721Z" stroke="#F5F5F5" stroke-width="2.843"/>
<path d="M22.5494 127.869V164.583L56.6399 206.491H223.812L254.021 169.355V91.9773H51.7452L22.5494 127.869Z" fill="#F5F5F5"/>
<path d="M195.696 196.744H268.601V144.718L250.006 103.55H195.696V196.744Z" fill="#F5F5F5"/>
<path d="M207.849 111.469H220V123.652H207.849V111.469Z" fill="#25D5C6"/>
<path d="M183.547 177.252H195.697V189.435H183.547V177.252Z" fill="#25D5C6"/>
<path d="M159.243 138.271H171.394V150.453H159.243V138.271Z" fill="#25D5C6"/>
<path d="M228.505 147.406H240.655V159.588H228.505V147.406Z" fill="#25D5C6"/>
<path d="M116.112 171.162H128.263V183.344H116.112V171.162Z" fill="#25D5C6"/>
<path d="M112.464 110.859H124.614V123.042H112.464V110.859Z" fill="#25D5C6"/>
<path d="M79.0504 141.315H91.2012V153.498H79.0504V141.315Z" fill="#25D5C6"/>
<path d="M52.9259 168.726H65.0767V180.908H52.9259V168.726Z" fill="#25D5C6"/>
<path d="M51.7126 111.469H63.8633V123.652H51.7126V111.469Z" fill="#25D5C6"/>
</svg>
