<svg width="355" height="135" viewBox="0 0 355 135" fill="none" xmlns="http://www.w3.org/2000/svg">
<path d="M0 25C0 11.1929 11.1929 0 25 0H330C343.807 0 355 11.1929 355 25V110C355 123.807 343.807 135 330 135H0V25Z" fill="#27CC82"/>
<path d="M21.19 22.44C20.89 22.73 20.495 22.95 20.005 23.1C19.525 23.25 18.91 23.38 18.16 23.49C17.17 23.63 16.38 24.055 15.79 24.765C15.21 25.475 14.88 26.44 14.8 27.66C15.1 27.1 15.54 26.655 16.12 26.325C16.71 25.995 17.345 25.83 18.025 25.83C19.035 25.83 19.88 26.185 20.56 26.895C21.24 27.595 21.58 28.465 21.58 29.505C21.58 30.585 21.215 31.485 20.485 32.205C19.755 32.915 18.83 33.27 17.71 33.27C16.96 33.27 16.27 33.1 15.64 32.76C15.02 32.41 14.55 31.925 14.23 31.305C13.81 30.515 13.6 29.505 13.6 28.275C13.6 26.535 13.975 25.185 14.725 24.225C15.485 23.255 16.57 22.655 17.98 22.425C18.44 22.345 18.79 22.28 19.03 22.23C19.28 22.18 19.55 22.1 19.84 21.99C20.13 21.88 20.36 21.745 20.53 21.585L21.19 22.44ZM14.95 29.43C14.95 30.16 15.225 30.785 15.775 31.305C16.325 31.815 16.99 32.07 17.77 32.07C18.52 32.07 19.14 31.83 19.63 31.35C20.13 30.86 20.38 30.25 20.38 29.52C20.38 28.79 20.125 28.19 19.615 27.72C19.115 27.24 18.47 27 17.68 27C16.9 27 16.25 27.235 15.73 27.705C15.21 28.165 14.95 28.74 14.95 29.43ZM29.3253 28.68C29.2653 27.98 28.9803 27.415 28.4703 26.985C27.9603 26.555 27.3453 26.34 26.6253 26.34C25.9353 26.34 25.3403 26.555 24.8403 26.985C24.3503 27.405 24.0603 27.97 23.9703 28.68H29.3253ZM23.9703 29.775C24.0603 30.485 24.3603 31.055 24.8703 31.485C25.3803 31.915 25.9853 32.13 26.6853 32.13C27.2253 32.13 27.7153 32.005 28.1553 31.755C28.5953 31.495 28.9253 31.14 29.1453 30.69L30.2553 31.125C29.9253 31.785 29.4403 32.31 28.8003 32.7C28.1703 33.08 27.4703 33.27 26.7003 33.27C25.5803 33.27 24.6353 32.89 23.8653 32.13C23.1053 31.36 22.7253 30.395 22.7253 29.235C22.7253 28.075 23.1003 27.115 23.8503 26.355C24.6003 25.585 25.5203 25.2 26.6103 25.2C27.7103 25.2 28.6403 25.575 29.4003 26.325C30.1603 27.065 30.5403 28 30.5403 29.13C30.5403 29.31 30.5153 29.525 30.4653 29.775H23.9703ZM43.3238 22.44C43.0238 22.73 42.6288 22.95 42.1388 23.1C41.6588 23.25 41.0438 23.38 40.2938 23.49C39.3038 23.63 38.5138 24.055 37.9238 24.765C37.3438 25.475 37.0138 26.44 36.9338 27.66C37.2338 27.1 37.6738 26.655 38.2538 26.325C38.8438 25.995 39.4788 25.83 40.1588 25.83C41.1688 25.83 42.0138 26.185 42.6938 26.895C43.3738 27.595 43.7138 28.465 43.7138 29.505C43.7138 30.585 43.3488 31.485 42.6188 32.205C41.8888 32.915 40.9638 33.27 39.8438 33.27C39.0938 33.27 38.4038 33.1 37.7738 32.76C37.1538 32.41 36.6838 31.925 36.3638 31.305C35.9438 30.515 35.7338 29.505 35.7338 28.275C35.7338 26.535 36.1088 25.185 36.8588 24.225C37.6188 23.255 38.7038 22.655 40.1138 22.425C40.5738 22.345 40.9238 22.28 41.1638 22.23C41.4138 22.18 41.6838 22.1 41.9738 21.99C42.2638 21.88 42.4938 21.745 42.6638 21.585L43.3238 22.44ZM37.0838 29.43C37.0838 30.16 37.3588 30.785 37.9088 31.305C38.4588 31.815 39.1238 32.07 39.9038 32.07C40.6538 32.07 41.2738 31.83 41.7638 31.35C42.2638 30.86 42.5138 30.25 42.5138 29.52C42.5138 28.79 42.2588 28.19 41.7488 27.72C41.2488 27.24 40.6038 27 39.8138 27C39.0338 27 38.3838 27.235 37.8638 27.705C37.3438 28.165 37.0838 28.74 37.0838 29.43ZM51.4591 28.68C51.3991 27.98 51.1141 27.415 50.6041 26.985C50.0941 26.555 49.4791 26.34 48.7591 26.34C48.0691 26.34 47.4741 26.555 46.9741 26.985C46.4841 27.405 46.1941 27.97 46.1041 28.68H51.4591ZM46.1041 29.775C46.1941 30.485 46.4941 31.055 47.0041 31.485C47.5141 31.915 48.1191 32.13 48.8191 32.13C49.3591 32.13 49.8491 32.005 50.2891 31.755C50.7291 31.495 51.0591 31.14 51.2791 30.69L52.3891 31.125C52.0591 31.785 51.5741 32.31 50.9341 32.7C50.3041 33.08 49.6041 33.27 48.8341 33.27C47.7141 33.27 46.7691 32.89 45.9991 32.13C45.2391 31.36 44.8591 30.395 44.8591 29.235C44.8591 28.075 45.2341 27.115 45.9841 26.355C46.7341 25.585 47.6541 25.2 48.7441 25.2C49.8441 25.2 50.7741 25.575 51.5341 26.325C52.2941 27.065 52.6741 28 52.6741 29.13C52.6741 29.31 52.6491 29.525 52.5991 29.775H46.1041ZM61.4146 22.44C61.1146 22.73 60.7196 22.95 60.2296 23.1C59.7496 23.25 59.1346 23.38 58.3846 23.49C57.3946 23.63 56.6046 24.055 56.0146 24.765C55.4346 25.475 55.1046 26.44 55.0246 27.66C55.3246 27.1 55.7646 26.655 56.3446 26.325C56.9346 25.995 57.5696 25.83 58.2496 25.83C59.2596 25.83 60.1046 26.185 60.7846 26.895C61.4646 27.595 61.8046 28.465 61.8046 29.505C61.8046 30.585 61.4396 31.485 60.7096 32.205C59.9796 32.915 59.0546 33.27 57.9346 33.27C57.1846 33.27 56.4946 33.1 55.8646 32.76C55.2446 32.41 54.7746 31.925 54.4546 31.305C54.0346 30.515 53.8246 29.505 53.8246 28.275C53.8246 26.535 54.1996 25.185 54.9496 24.225C55.7096 23.255 56.7946 22.655 58.2046 22.425C58.6646 22.345 59.0146 22.28 59.2546 22.23C59.5046 22.18 59.7746 22.1 60.0646 21.99C60.3546 21.88 60.5846 21.745 60.7546 21.585L61.4146 22.44ZM55.1746 29.43C55.1746 30.16 55.4496 30.785 55.9996 31.305C56.5496 31.815 57.2146 32.07 57.9946 32.07C58.7446 32.07 59.3646 31.83 59.8546 31.35C60.3546 30.86 60.6046 30.25 60.6046 29.52C60.6046 28.79 60.3496 28.19 59.8396 27.72C59.3396 27.24 58.6946 27 57.9046 27C57.1246 27 56.4746 27.235 55.9546 27.705C55.4346 28.165 55.1746 28.74 55.1746 29.43ZM69.5499 28.68C69.4899 27.98 69.2049 27.415 68.6949 26.985C68.1849 26.555 67.5699 26.34 66.8499 26.34C66.1599 26.34 65.5649 26.555 65.0649 26.985C64.5749 27.405 64.2849 27.97 64.1949 28.68H69.5499ZM64.1949 29.775C64.2849 30.485 64.5849 31.055 65.0949 31.485C65.6049 31.915 66.2099 32.13 66.9099 32.13C67.4499 32.13 67.9399 32.005 68.3799 31.755C68.8199 31.495 69.1499 31.14 69.3699 30.69L70.4799 31.125C70.1499 31.785 69.6649 32.31 69.0249 32.7C68.3949 33.08 67.6949 33.27 66.9249 33.27C65.8049 33.27 64.8599 32.89 64.0899 32.13C63.3299 31.36 62.9499 30.395 62.9499 29.235C62.9499 28.075 63.3249 27.115 64.0749 26.355C64.8249 25.585 65.7449 25.2 66.8349 25.2C67.9349 25.2 68.8649 25.575 69.6249 26.325C70.3849 27.065 70.7649 28 70.7649 29.13C70.7649 29.31 70.7399 29.525 70.6899 29.775H64.1949ZM83.5484 22.44C83.2484 22.73 82.8534 22.95 82.3634 23.1C81.8834 23.25 81.2684 23.38 80.5184 23.49C79.5284 23.63 78.7384 24.055 78.1484 24.765C77.5684 25.475 77.2384 26.44 77.1584 27.66C77.4584 27.1 77.8984 26.655 78.4784 26.325C79.0684 25.995 79.7034 25.83 80.3834 25.83C81.3934 25.83 82.2384 26.185 82.9184 26.895C83.5984 27.595 83.9384 28.465 83.9384 29.505C83.9384 30.585 83.5734 31.485 82.8434 32.205C82.1134 32.915 81.1884 33.27 80.0684 33.27C79.3184 33.27 78.6284 33.1 77.9984 32.76C77.3784 32.41 76.9084 31.925 76.5884 31.305C76.1684 30.515 75.9584 29.505 75.9584 28.275C75.9584 26.535 76.3334 25.185 77.0834 24.225C77.8434 23.255 78.9284 22.655 80.3384 22.425C80.7984 22.345 81.1484 22.28 81.3884 22.23C81.6384 22.18 81.9084 22.1 82.1984 21.99C82.4884 21.88 82.7184 21.745 82.8884 21.585L83.5484 22.44ZM77.3084 29.43C77.3084 30.16 77.5834 30.785 78.1334 31.305C78.6834 31.815 79.3484 32.07 80.1284 32.07C80.8784 32.07 81.4984 31.83 81.9884 31.35C82.4884 30.86 82.7384 30.25 82.7384 29.52C82.7384 28.79 82.4834 28.19 81.9734 27.72C81.4734 27.24 80.8284 27 80.0384 27C79.2584 27 78.6084 27.235 78.0884 27.705C77.5684 28.165 77.3084 28.74 77.3084 29.43ZM91.6837 28.68C91.6237 27.98 91.3387 27.415 90.8287 26.985C90.3187 26.555 89.7037 26.34 88.9837 26.34C88.2937 26.34 87.6987 26.555 87.1987 26.985C86.7087 27.405 86.4187 27.97 86.3287 28.68H91.6837ZM86.3287 29.775C86.4187 30.485 86.7187 31.055 87.2287 31.485C87.7387 31.915 88.3437 32.13 89.0437 32.13C89.5837 32.13 90.0737 32.005 90.5137 31.755C90.9537 31.495 91.2837 31.14 91.5037 30.69L92.6137 31.125C92.2837 31.785 91.7987 32.31 91.1587 32.7C90.5287 33.08 89.8287 33.27 89.0587 33.27C87.9387 33.27 86.9937 32.89 86.2237 32.13C85.4637 31.36 85.0837 30.395 85.0837 29.235C85.0837 28.075 85.4587 27.115 86.2087 26.355C86.9587 25.585 87.8787 25.2 88.9687 25.2C90.0687 25.2 90.9987 25.575 91.7587 26.325C92.5187 27.065 92.8987 28 92.8987 29.13C92.8987 29.31 92.8737 29.525 92.8237 29.775H86.3287ZM101.639 22.44C101.339 22.73 100.944 22.95 100.454 23.1C99.9742 23.25 99.3592 23.38 98.6092 23.49C97.6192 23.63 96.8292 24.055 96.2392 24.765C95.6592 25.475 95.3292 26.44 95.2492 27.66C95.5492 27.1 95.9892 26.655 96.5692 26.325C97.1592 25.995 97.7942 25.83 98.4742 25.83C99.4842 25.83 100.329 26.185 101.009 26.895C101.689 27.595 102.029 28.465 102.029 29.505C102.029 30.585 101.664 31.485 100.934 32.205C100.204 32.915 99.2792 33.27 98.1592 33.27C97.4092 33.27 96.7192 33.1 96.0892 32.76C95.4692 32.41 94.9992 31.925 94.6792 31.305C94.2592 30.515 94.0492 29.505 94.0492 28.275C94.0492 26.535 94.4242 25.185 95.1742 24.225C95.9342 23.255 97.0192 22.655 98.4292 22.425C98.8892 22.345 99.2392 22.28 99.4792 22.23C99.7292 22.18 99.9992 22.1 100.289 21.99C100.579 21.88 100.809 21.745 100.979 21.585L101.639 22.44ZM95.3992 29.43C95.3992 30.16 95.6742 30.785 96.2242 31.305C96.7742 31.815 97.4392 32.07 98.2192 32.07C98.9692 32.07 99.5892 31.83 100.079 31.35C100.579 30.86 100.829 30.25 100.829 29.52C100.829 28.79 100.574 28.19 100.064 27.72C99.5642 27.24 98.9192 27 98.1292 27C97.3492 27 96.6992 27.235 96.1792 27.705C95.6592 28.165 95.3992 28.74 95.3992 29.43ZM109.774 28.68C109.714 27.98 109.429 27.415 108.919 26.985C108.409 26.555 107.794 26.34 107.074 26.34C106.384 26.34 105.789 26.555 105.289 26.985C104.799 27.405 104.509 27.97 104.419 28.68H109.774ZM104.419 29.775C104.509 30.485 104.809 31.055 105.319 31.485C105.829 31.915 106.434 32.13 107.134 32.13C107.674 32.13 108.164 32.005 108.604 31.755C109.044 31.495 109.374 31.14 109.594 30.69L110.704 31.125C110.374 31.785 109.889 32.31 109.249 32.7C108.619 33.08 107.919 33.27 107.149 33.27C106.029 33.27 105.084 32.89 104.314 32.13C103.554 31.36 103.174 30.395 103.174 29.235C103.174 28.075 103.549 27.115 104.299 26.355C105.049 25.585 105.969 25.2 107.059 25.2C108.159 25.2 109.089 25.575 109.849 26.325C110.609 27.065 110.989 28 110.989 29.13C110.989 29.31 110.964 29.525 110.914 29.775H104.419ZM119.73 22.44C119.43 22.73 119.035 22.95 118.545 23.1C118.065 23.25 117.45 23.38 116.7 23.49C115.71 23.63 114.92 24.055 114.33 24.765C113.75 25.475 113.42 26.44 113.34 27.66C113.64 27.1 114.08 26.655 114.66 26.325C115.25 25.995 115.885 25.83 116.565 25.83C117.575 25.83 118.42 26.185 119.1 26.895C119.78 27.595 120.12 28.465 120.12 29.505C120.12 30.585 119.755 31.485 119.025 32.205C118.295 32.915 117.37 33.27 116.25 33.27C115.5 33.27 114.81 33.1 114.18 32.76C113.56 32.41 113.09 31.925 112.77 31.305C112.35 30.515 112.14 29.505 112.14 28.275C112.14 26.535 112.515 25.185 113.265 24.225C114.025 23.255 115.11 22.655 116.52 22.425C116.98 22.345 117.33 22.28 117.57 22.23C117.82 22.18 118.09 22.1 118.38 21.99C118.67 21.88 118.9 21.745 119.07 21.585L119.73 22.44ZM113.49 29.43C113.49 30.16 113.765 30.785 114.315 31.305C114.865 31.815 115.53 32.07 116.31 32.07C117.06 32.07 117.68 31.83 118.17 31.35C118.67 30.86 118.92 30.25 118.92 29.52C118.92 28.79 118.665 28.19 118.155 27.72C117.655 27.24 117.01 27 116.22 27C115.44 27 114.79 27.235 114.27 27.705C113.75 28.165 113.49 28.74 113.49 29.43ZM127.865 28.68C127.805 27.98 127.52 27.415 127.01 26.985C126.5 26.555 125.885 26.34 125.165 26.34C124.475 26.34 123.88 26.555 123.38 26.985C122.89 27.405 122.6 27.97 122.51 28.68H127.865ZM122.51 29.775C122.6 30.485 122.9 31.055 123.41 31.485C123.92 31.915 124.525 32.13 125.225 32.13C125.765 32.13 126.255 32.005 126.695 31.755C127.135 31.495 127.465 31.14 127.685 30.69L128.795 31.125C128.465 31.785 127.98 32.31 127.34 32.7C126.71 33.08 126.01 33.27 125.24 33.27C124.12 33.27 123.175 32.89 122.405 32.13C121.645 31.36 121.265 30.395 121.265 29.235C121.265 28.075 121.64 27.115 122.39 26.355C123.14 25.585 124.06 25.2 125.15 25.2C126.25 25.2 127.18 25.575 127.94 26.325C128.7 27.065 129.08 28 129.08 29.13C129.08 29.31 129.055 29.525 129.005 29.775H122.51ZM141.864 22.44C141.564 22.73 141.169 22.95 140.679 23.1C140.199 23.25 139.584 23.38 138.834 23.49C137.844 23.63 137.054 24.055 136.464 24.765C135.884 25.475 135.554 26.44 135.474 27.66C135.774 27.1 136.214 26.655 136.794 26.325C137.384 25.995 138.019 25.83 138.699 25.83C139.709 25.83 140.554 26.185 141.234 26.895C141.914 27.595 142.254 28.465 142.254 29.505C142.254 30.585 141.889 31.485 141.159 32.205C140.429 32.915 139.504 33.27 138.384 33.27C137.634 33.27 136.944 33.1 136.314 32.76C135.694 32.41 135.224 31.925 134.904 31.305C134.484 30.515 134.274 29.505 134.274 28.275C134.274 26.535 134.649 25.185 135.399 24.225C136.159 23.255 137.244 22.655 138.654 22.425C139.114 22.345 139.464 22.28 139.704 22.23C139.954 22.18 140.224 22.1 140.514 21.99C140.804 21.88 141.034 21.745 141.204 21.585L141.864 22.44ZM135.624 29.43C135.624 30.16 135.899 30.785 136.449 31.305C136.999 31.815 137.664 32.07 138.444 32.07C139.194 32.07 139.814 31.83 140.304 31.35C140.804 30.86 141.054 30.25 141.054 29.52C141.054 28.79 140.799 28.19 140.289 27.72C139.789 27.24 139.144 27 138.354 27C137.574 27 136.924 27.235 136.404 27.705C135.884 28.165 135.624 28.74 135.624 29.43ZM149.999 28.68C149.939 27.98 149.654 27.415 149.144 26.985C148.634 26.555 148.019 26.34 147.299 26.34C146.609 26.34 146.014 26.555 145.514 26.985C145.024 27.405 144.734 27.97 144.644 28.68H149.999ZM144.644 29.775C144.734 30.485 145.034 31.055 145.544 31.485C146.054 31.915 146.659 32.13 147.359 32.13C147.899 32.13 148.389 32.005 148.829 31.755C149.269 31.495 149.599 31.14 149.819 30.69L150.929 31.125C150.599 31.785 150.114 32.31 149.474 32.7C148.844 33.08 148.144 33.27 147.374 33.27C146.254 33.27 145.309 32.89 144.539 32.13C143.779 31.36 143.399 30.395 143.399 29.235C143.399 28.075 143.774 27.115 144.524 26.355C145.274 25.585 146.194 25.2 147.284 25.2C148.384 25.2 149.314 25.575 150.074 26.325C150.834 27.065 151.214 28 151.214 29.13C151.214 29.31 151.189 29.525 151.139 29.775H144.644ZM163.998 22.44C163.698 22.73 163.303 22.95 162.813 23.1C162.333 23.25 161.718 23.38 160.968 23.49C159.978 23.63 159.188 24.055 158.598 24.765C158.018 25.475 157.688 26.44 157.608 27.66C157.908 27.1 158.348 26.655 158.928 26.325C159.518 25.995 160.153 25.83 160.833 25.83C161.843 25.83 162.688 26.185 163.368 26.895C164.048 27.595 164.388 28.465 164.388 29.505C164.388 30.585 164.023 31.485 163.293 32.205C162.563 32.915 161.638 33.27 160.518 33.27C159.768 33.27 159.078 33.1 158.448 32.76C157.828 32.41 157.358 31.925 157.038 31.305C156.618 30.515 156.408 29.505 156.408 28.275C156.408 26.535 156.783 25.185 157.533 24.225C158.293 23.255 159.378 22.655 160.788 22.425C161.248 22.345 161.598 22.28 161.838 22.23C162.088 22.18 162.358 22.1 162.648 21.99C162.938 21.88 163.168 21.745 163.338 21.585L163.998 22.44ZM157.758 29.43C157.758 30.16 158.033 30.785 158.583 31.305C159.133 31.815 159.798 32.07 160.578 32.07C161.328 32.07 161.948 31.83 162.438 31.35C162.938 30.86 163.188 30.25 163.188 29.52C163.188 28.79 162.933 28.19 162.423 27.72C161.923 27.24 161.278 27 160.488 27C159.708 27 159.058 27.235 158.538 27.705C158.018 28.165 157.758 28.74 157.758 29.43ZM172.133 28.68C172.073 27.98 171.788 27.415 171.278 26.985C170.768 26.555 170.153 26.34 169.433 26.34C168.743 26.34 168.148 26.555 167.648 26.985C167.158 27.405 166.868 27.97 166.778 28.68H172.133ZM166.778 29.775C166.868 30.485 167.168 31.055 167.678 31.485C168.188 31.915 168.793 32.13 169.493 32.13C170.033 32.13 170.523 32.005 170.963 31.755C171.403 31.495 171.733 31.14 171.953 30.69L173.063 31.125C172.733 31.785 172.248 32.31 171.608 32.7C170.978 33.08 170.278 33.27 169.508 33.27C168.388 33.27 167.443 32.89 166.673 32.13C165.913 31.36 165.533 30.395 165.533 29.235C165.533 28.075 165.908 27.115 166.658 26.355C167.408 25.585 168.328 25.2 169.418 25.2C170.518 25.2 171.448 25.575 172.208 26.325C172.968 27.065 173.348 28 173.348 29.13C173.348 29.31 173.323 29.525 173.273 29.775H166.778ZM175.908 30.03H174.783L174.708 22.5H175.983L175.908 30.03ZM174.393 32.22C174.393 31.95 174.483 31.725 174.663 31.545C174.843 31.355 175.068 31.26 175.338 31.26C175.618 31.26 175.848 31.355 176.028 31.545C176.218 31.725 176.313 31.95 176.313 32.22C176.313 32.5 176.223 32.73 176.043 32.91C175.863 33.09 175.633 33.18 175.353 33.18C175.083 33.18 174.853 33.09 174.663 32.91C174.483 32.73 174.393 32.5 174.393 32.22ZM13.57 44.205V41.01C13.57 39.93 13.81 38.995 14.29 38.205C14.77 37.415 15.4 36.88 16.18 36.6L16.66 37.74C16.1 37.93 15.645 38.325 15.295 38.925C14.945 39.525 14.77 40.245 14.77 41.085V44.13C14.77 45.01 14.96 45.76 15.34 46.38C15.72 46.99 16.21 47.37 16.81 47.52L16.345 48.66C15.535 48.42 14.87 47.9 14.35 47.1C13.83 46.29 13.57 45.325 13.57 44.205ZM17.6684 46.86H28.1984V49.74H26.9984V48H18.8684V49.74H17.6684V46.86ZM18.1784 46.86C18.8884 46.86 19.4334 46.635 19.8134 46.185C20.2034 45.735 20.3984 45.165 20.3984 44.475V37.5H27.0734V47.985H25.8734V38.67H21.5984V44.685C21.5984 45.505 21.2934 46.22 20.6834 46.83C20.0734 47.43 19.2884 47.73 18.3284 47.73H17.8934L17.6684 46.86H18.1784ZM31.2249 42.18C30.6749 42.71 30.3999 43.395 30.3999 44.235C30.3999 45.075 30.6749 45.765 31.2249 46.305C31.7849 46.835 32.4649 47.1 33.2649 47.1C34.0649 47.1 34.7399 46.835 35.2899 46.305C35.8499 45.765 36.1299 45.075 36.1299 44.235C36.1299 43.395 35.8499 42.71 35.2899 42.18C34.7399 41.64 34.0649 41.37 33.2649 41.37C32.4649 41.37 31.7849 41.64 31.2249 42.18ZM30.3699 47.13C29.5899 46.37 29.1999 45.405 29.1999 44.235C29.1999 43.065 29.5899 42.1 30.3699 41.34C31.1599 40.58 32.1249 40.2 33.2649 40.2C34.4049 40.2 35.3649 40.58 36.1449 41.34C36.9349 42.1 37.3299 43.065 37.3299 44.235C37.3299 45.405 36.9349 46.37 36.1449 47.13C35.3649 47.89 34.4049 48.27 33.2649 48.27C32.1249 48.27 31.1599 47.89 30.3699 47.13ZM46.0923 37.44C45.7923 37.73 45.3973 37.95 44.9073 38.1C44.4273 38.25 43.8123 38.38 43.0623 38.49C42.0723 38.63 41.2823 39.055 40.6923 39.765C40.1123 40.475 39.7823 41.44 39.7023 42.66C40.0023 42.1 40.4423 41.655 41.0223 41.325C41.6123 40.995 42.2473 40.83 42.9273 40.83C43.9373 40.83 44.7823 41.185 45.4623 41.895C46.1423 42.595 46.4823 43.465 46.4823 44.505C46.4823 45.585 46.1173 46.485 45.3873 47.205C44.6573 47.915 43.7323 48.27 42.6123 48.27C41.8623 48.27 41.1723 48.1 40.5423 47.76C39.9223 47.41 39.4523 46.925 39.1323 46.305C38.7123 45.515 38.5023 44.505 38.5023 43.275C38.5023 41.535 38.8773 40.185 39.6273 39.225C40.3873 38.255 41.4723 37.655 42.8823 37.425C43.3423 37.345 43.6923 37.28 43.9323 37.23C44.1823 37.18 44.4523 37.1 44.7423 36.99C45.0323 36.88 45.2623 36.745 45.4323 36.585L46.0923 37.44ZM39.8523 44.43C39.8523 45.16 40.1273 45.785 40.6773 46.305C41.2273 46.815 41.8923 47.07 42.6723 47.07C43.4223 47.07 44.0423 46.83 44.5323 46.35C45.0323 45.86 45.2823 45.25 45.2823 44.52C45.2823 43.79 45.0273 43.19 44.5173 42.72C44.0173 42.24 43.3723 42 42.5823 42C41.8023 42 41.1523 42.235 40.6323 42.705C40.1123 43.165 39.8523 43.74 39.8523 44.43ZM47.9276 40.5H49.1276V51H47.9276V40.5ZM49.9526 42.195C49.4026 42.735 49.1276 43.425 49.1276 44.265C49.1276 45.095 49.4026 45.78 49.9526 46.32C50.5126 46.86 51.1926 47.13 51.9926 47.13C52.7926 47.13 53.4676 46.86 54.0176 46.32C54.5776 45.78 54.8576 45.095 54.8576 44.265C54.8576 43.425 54.5776 42.735 54.0176 42.195C53.4676 41.655 52.7926 41.385 51.9926 41.385C51.1926 41.385 50.5126 41.655 49.9526 42.195ZM49.6226 47.16C48.9126 46.39 48.5576 45.425 48.5576 44.265C48.5576 43.095 48.9126 42.13 49.6226 41.37C50.3326 40.61 51.2076 40.23 52.2476 40.23C53.3176 40.23 54.2176 40.61 54.9476 41.37C55.6876 42.13 56.0576 43.095 56.0576 44.265C56.0576 45.425 55.6876 46.39 54.9476 47.16C54.2176 47.92 53.3176 48.3 52.2476 48.3C51.2076 48.3 50.3326 47.92 49.6226 47.16ZM59.218 42.18C58.668 42.71 58.393 43.395 58.393 44.235C58.393 45.075 58.668 45.765 59.218 46.305C59.778 46.835 60.458 47.1 61.258 47.1C62.058 47.1 62.733 46.835 63.283 46.305C63.843 45.765 64.123 45.075 64.123 44.235C64.123 43.395 63.843 42.71 63.283 42.18C62.733 41.64 62.058 41.37 61.258 41.37C60.458 41.37 59.778 41.64 59.218 42.18ZM58.363 47.13C57.583 46.37 57.193 45.405 57.193 44.235C57.193 43.065 57.583 42.1 58.363 41.34C59.153 40.58 60.118 40.2 61.258 40.2C62.398 40.2 63.358 40.58 64.138 41.34C64.928 42.1 65.323 43.065 65.323 44.235C65.323 45.405 64.928 46.37 64.138 47.13C63.358 47.89 62.398 48.27 61.258 48.27C60.118 48.27 59.153 47.89 58.363 47.13ZM77.2585 40.5V48H76.0585V41.64H72.0085V48H70.8085V40.5H77.2585ZM80.7073 42.18C80.1573 42.71 79.8823 43.395 79.8823 44.235C79.8823 45.075 80.1573 45.765 80.7073 46.305C81.2673 46.835 81.9473 47.1 82.7473 47.1C83.5473 47.1 84.2223 46.835 84.7723 46.305C85.3323 45.765 85.6123 45.075 85.6123 44.235C85.6123 43.395 85.3323 42.71 84.7723 42.18C84.2223 41.64 83.5473 41.37 82.7473 41.37C81.9473 41.37 81.2673 41.64 80.7073 42.18ZM79.8523 47.13C79.0723 46.37 78.6823 45.405 78.6823 44.235C78.6823 43.065 79.0723 42.1 79.8523 41.34C80.6423 40.58 81.6073 40.2 82.7473 40.2C83.8873 40.2 84.8473 40.58 85.6273 41.34C86.4173 42.1 86.8123 43.065 86.8123 44.235C86.8123 45.405 86.4173 46.37 85.6273 47.13C84.8473 47.89 83.8873 48.27 82.7473 48.27C81.6073 48.27 80.6423 47.89 79.8523 47.13ZM92.5448 40.5H93.7448V43.665H94.4348L97.0148 40.5H98.4248L95.3648 44.25L98.4248 48H97.0148L94.4348 44.88H93.7448V48H92.5448V44.835H91.8848L89.2748 48H87.8648L90.9548 44.25L87.8648 40.5H89.2748L91.8848 43.62H92.5448V40.5ZM104.343 44.535L102.198 44.79C101.188 44.92 100.683 45.305 100.683 45.945C100.683 46.285 100.823 46.56 101.103 46.77C101.383 46.97 101.758 47.07 102.228 47.07C102.868 47.07 103.378 46.88 103.758 46.5C104.148 46.12 104.343 45.62 104.343 45H104.868C104.868 45.91 104.588 46.665 104.028 47.265C103.468 47.865 102.768 48.165 101.928 48.165C101.218 48.165 100.628 47.965 100.158 47.565C99.6981 47.155 99.4681 46.63 99.4681 45.99C99.4781 45.38 99.6981 44.875 100.128 44.475C100.568 44.075 101.173 43.83 101.943 43.74L104.343 43.47V43.17C104.343 42.71 104.163 42.31 103.803 41.97C103.453 41.63 103.023 41.46 102.513 41.46C102.053 41.46 101.643 41.585 101.283 41.835C100.933 42.085 100.713 42.41 100.623 42.81L99.4831 42.45C99.6831 41.82 100.053 41.31 100.593 40.92C101.143 40.53 101.763 40.335 102.453 40.335C103.293 40.335 104.018 40.605 104.628 41.145C105.238 41.675 105.543 42.31 105.543 43.05V48H104.343V44.535ZM107.223 46.83C107.643 46.83 107.968 46.7 108.198 46.44C108.428 46.17 108.543 45.83 108.543 45.42V40.5H113.868V48H112.668V41.67H109.743V45.615C109.743 46.265 109.523 46.825 109.083 47.295C108.643 47.765 108.073 48 107.373 48H106.908V46.83H107.223ZM117.314 42.18C116.764 42.71 116.489 43.395 116.489 44.235C116.489 45.075 116.764 45.765 117.314 46.305C117.874 46.835 118.554 47.1 119.354 47.1C120.154 47.1 120.829 46.835 121.379 46.305C121.939 45.765 122.219 45.075 122.219 44.235C122.219 43.395 121.939 42.71 121.379 42.18C120.829 41.64 120.154 41.37 119.354 41.37C118.554 41.37 117.874 41.64 117.314 42.18ZM116.459 47.13C115.679 46.37 115.289 45.405 115.289 44.235C115.289 43.065 115.679 42.1 116.459 41.34C117.249 40.58 118.214 40.2 119.354 40.2C120.494 40.2 121.454 40.58 122.234 41.34C123.024 42.1 123.419 43.065 123.419 44.235C123.419 45.405 123.024 46.37 122.234 47.13C121.454 47.89 120.494 48.27 119.354 48.27C118.214 48.27 117.249 47.89 116.459 47.13ZM129.076 41.595H126.061V43.71H129.211C129.551 43.71 129.836 43.62 130.066 43.44C130.296 43.25 130.411 43.015 130.411 42.735C130.411 42.405 130.281 42.135 130.021 41.925C129.771 41.705 129.456 41.595 129.076 41.595ZM129.226 44.715H126.061V46.905H129.226C129.606 46.905 129.921 46.805 130.171 46.605C130.431 46.395 130.561 46.14 130.561 45.84C130.561 45.51 130.431 45.24 130.171 45.03C129.921 44.82 129.606 44.715 129.226 44.715ZM129.376 48H124.861V40.5H129.226C129.906 40.5 130.471 40.7 130.921 41.1C131.381 41.49 131.611 41.985 131.611 42.585C131.611 42.915 131.521 43.22 131.341 43.5C131.171 43.77 130.931 43.98 130.621 44.13C130.971 44.3 131.246 44.545 131.446 44.865C131.656 45.185 131.761 45.545 131.761 45.945C131.761 46.525 131.531 47.015 131.071 47.415C130.621 47.805 130.056 48 129.376 48ZM137.742 44.535L135.597 44.79C134.587 44.92 134.082 45.305 134.082 45.945C134.082 46.285 134.222 46.56 134.502 46.77C134.782 46.97 135.157 47.07 135.627 47.07C136.267 47.07 136.777 46.88 137.157 46.5C137.547 46.12 137.742 45.62 137.742 45H138.267C138.267 45.91 137.987 46.665 137.427 47.265C136.867 47.865 136.167 48.165 135.327 48.165C134.617 48.165 134.027 47.965 133.557 47.565C133.097 47.155 132.867 46.63 132.867 45.99C132.877 45.38 133.097 44.875 133.527 44.475C133.967 44.075 134.572 43.83 135.342 43.74L137.742 43.47V43.17C137.742 42.71 137.562 42.31 137.202 41.97C136.852 41.63 136.422 41.46 135.912 41.46C135.452 41.46 135.042 41.585 134.682 41.835C134.332 42.085 134.112 42.41 134.022 42.81L132.882 42.45C133.082 41.82 133.452 41.31 133.992 40.92C134.542 40.53 135.162 40.335 135.852 40.335C136.692 40.335 137.417 40.605 138.027 41.145C138.637 41.675 138.942 42.31 138.942 43.05V48H137.742V44.535ZM146.547 40.5V41.64H143.997V48H142.797V41.64H140.247V40.5H146.547ZM152.284 44.64H149.074V46.83H152.284C152.664 46.83 152.979 46.73 153.229 46.53C153.479 46.32 153.604 46.065 153.604 45.765C153.604 45.445 153.479 45.18 153.229 44.97C152.979 44.75 152.664 44.64 152.284 44.64ZM152.434 43.5C153.104 43.5 153.664 43.72 154.114 44.16C154.574 44.6 154.804 45.14 154.804 45.78C154.804 46.41 154.574 46.94 154.114 47.37C153.664 47.79 153.104 48 152.434 48H147.874V40.5H149.074V43.5H152.434ZM160.281 48V40.5H161.481V43.665H166.161V40.5H167.361V48H166.161V44.805H161.481V48H160.281ZM173.645 44.535L171.5 44.79C170.49 44.92 169.985 45.305 169.985 45.945C169.985 46.285 170.125 46.56 170.405 46.77C170.685 46.97 171.06 47.07 171.53 47.07C172.17 47.07 172.68 46.88 173.06 46.5C173.45 46.12 173.645 45.62 173.645 45H174.17C174.17 45.91 173.89 46.665 173.33 47.265C172.77 47.865 172.07 48.165 171.23 48.165C170.52 48.165 169.93 47.965 169.46 47.565C169 47.155 168.77 46.63 168.77 45.99C168.78 45.38 169 44.875 169.43 44.475C169.87 44.075 170.475 43.83 171.245 43.74L173.645 43.47V43.17C173.645 42.71 173.465 42.31 173.105 41.97C172.755 41.63 172.325 41.46 171.815 41.46C171.355 41.46 170.945 41.585 170.585 41.835C170.235 42.085 170.015 42.41 169.925 42.81L168.785 42.45C168.985 41.82 169.355 41.31 169.895 40.92C170.445 40.53 171.065 40.335 171.755 40.335C172.595 40.335 173.32 40.605 173.93 41.145C174.54 41.675 174.845 42.31 174.845 43.05V48H173.645V44.535ZM182.323 42.18C181.783 42.71 181.513 43.395 181.513 44.235C181.513 45.075 181.783 45.765 182.323 46.305C182.863 46.835 183.523 47.1 184.303 47.1C184.863 47.1 185.368 46.965 185.818 46.695C186.268 46.425 186.613 46.045 186.853 45.555L187.948 46.05C187.618 46.73 187.128 47.27 186.478 47.67C185.828 48.07 185.103 48.27 184.303 48.27C183.183 48.27 182.238 47.89 181.468 47.13C180.698 46.37 180.313 45.405 180.313 44.235C180.313 43.065 180.698 42.1 181.468 41.34C182.238 40.58 183.183 40.2 184.303 40.2C185.113 40.2 185.848 40.405 186.508 40.815C187.168 41.225 187.658 41.785 187.978 42.495L186.883 42.99C186.653 42.48 186.308 42.085 185.848 41.805C185.388 41.515 184.873 41.37 184.303 41.37C183.523 41.37 182.863 41.64 182.323 42.18ZM193.962 44.535L191.817 44.79C190.807 44.92 190.302 45.305 190.302 45.945C190.302 46.285 190.442 46.56 190.722 46.77C191.002 46.97 191.377 47.07 191.847 47.07C192.487 47.07 192.997 46.88 193.377 46.5C193.767 46.12 193.962 45.62 193.962 45H194.487C194.487 45.91 194.207 46.665 193.647 47.265C193.087 47.865 192.387 48.165 191.547 48.165C190.837 48.165 190.247 47.965 189.777 47.565C189.317 47.155 189.087 46.63 189.087 45.99C189.097 45.38 189.317 44.875 189.747 44.475C190.187 44.075 190.792 43.83 191.562 43.74L193.962 43.47V43.17C193.962 42.71 193.782 42.31 193.422 41.97C193.072 41.63 192.642 41.46 192.132 41.46C191.672 41.46 191.262 41.585 190.902 41.835C190.552 42.085 190.332 42.41 190.242 42.81L189.102 42.45C189.302 41.82 189.672 41.31 190.212 40.92C190.762 40.53 191.382 40.335 192.072 40.335C192.912 40.335 193.637 40.605 194.247 41.145C194.857 41.675 195.162 42.31 195.162 43.05V48H193.962V44.535ZM200.293 39.36C199.603 39.36 199.018 39.135 198.538 38.685C198.058 38.225 197.818 37.675 197.818 37.035H198.823C198.823 37.435 198.963 37.765 199.243 38.025C199.523 38.285 199.878 38.415 200.308 38.415C200.748 38.415 201.118 38.28 201.418 38.01C201.728 37.74 201.883 37.415 201.883 37.035H202.888C202.888 37.655 202.628 38.2 202.108 38.67C201.598 39.13 200.993 39.36 200.293 39.36ZM203.638 48H202.438V42L198.313 48H196.888V40.5H198.088V46.35L202.198 40.5H203.638V48ZM211.249 40.5V41.64H208.699V48H207.499V41.64H204.949V40.5H211.249ZM223.939 37.44C223.639 37.73 223.244 37.95 222.754 38.1C222.274 38.25 221.659 38.38 220.909 38.49C219.919 38.63 219.129 39.055 218.539 39.765C217.959 40.475 217.629 41.44 217.549 42.66C217.849 42.1 218.289 41.655 218.869 41.325C219.459 40.995 220.094 40.83 220.774 40.83C221.784 40.83 222.629 41.185 223.309 41.895C223.989 42.595 224.329 43.465 224.329 44.505C224.329 45.585 223.964 46.485 223.234 47.205C222.504 47.915 221.579 48.27 220.459 48.27C219.709 48.27 219.019 48.1 218.389 47.76C217.769 47.41 217.299 46.925 216.979 46.305C216.559 45.515 216.349 44.505 216.349 43.275C216.349 41.535 216.724 40.185 217.474 39.225C218.234 38.255 219.319 37.655 220.729 37.425C221.189 37.345 221.539 37.28 221.779 37.23C222.029 37.18 222.299 37.1 222.589 36.99C222.879 36.88 223.109 36.745 223.279 36.585L223.939 37.44ZM217.699 44.43C217.699 45.16 217.974 45.785 218.524 46.305C219.074 46.815 219.739 47.07 220.519 47.07C221.269 47.07 221.889 46.83 222.379 46.35C222.879 45.86 223.129 45.25 223.129 44.52C223.129 43.79 222.874 43.19 222.364 42.72C221.864 42.24 221.219 42 220.429 42C219.649 42 218.999 42.235 218.479 42.705C217.959 43.165 217.699 43.74 217.699 44.43ZM225.774 40.5H226.974V51H225.774V40.5ZM227.799 42.195C227.249 42.735 226.974 43.425 226.974 44.265C226.974 45.095 227.249 45.78 227.799 46.32C228.359 46.86 229.039 47.13 229.839 47.13C230.639 47.13 231.314 46.86 231.864 46.32C232.424 45.78 232.704 45.095 232.704 44.265C232.704 43.425 232.424 42.735 231.864 42.195C231.314 41.655 230.639 41.385 229.839 41.385C229.039 41.385 228.359 41.655 227.799 42.195ZM227.469 47.16C226.759 46.39 226.404 45.425 226.404 44.265C226.404 43.095 226.759 42.13 227.469 41.37C228.179 40.61 229.054 40.23 230.094 40.23C231.164 40.23 232.064 40.61 232.794 41.37C233.534 42.13 233.904 43.095 233.904 44.265C233.904 45.425 233.534 46.39 232.794 47.16C232.064 47.92 231.164 48.3 230.094 48.3C229.054 48.3 228.179 47.92 227.469 47.16ZM239.9 44.535L237.755 44.79C236.745 44.92 236.24 45.305 236.24 45.945C236.24 46.285 236.38 46.56 236.66 46.77C236.94 46.97 237.315 47.07 237.785 47.07C238.425 47.07 238.935 46.88 239.315 46.5C239.705 46.12 239.9 45.62 239.9 45H240.425C240.425 45.91 240.145 46.665 239.585 47.265C239.025 47.865 238.325 48.165 237.485 48.165C236.775 48.165 236.185 47.965 235.715 47.565C235.255 47.155 235.025 46.63 235.025 45.99C235.035 45.38 235.255 44.875 235.685 44.475C236.125 44.075 236.73 43.83 237.5 43.74L239.9 43.47V43.17C239.9 42.71 239.72 42.31 239.36 41.97C239.01 41.63 238.58 41.46 238.07 41.46C237.61 41.46 237.2 41.585 236.84 41.835C236.49 42.085 236.27 42.41 236.18 42.81L235.04 42.45C235.24 41.82 235.61 41.31 236.15 40.92C236.7 40.53 237.32 40.335 238.01 40.335C238.85 40.335 239.575 40.605 240.185 41.145C240.795 41.675 241.1 42.31 241.1 43.05V48H239.9V44.535ZM248.705 40.5V41.64H246.155V48H244.955V41.64H242.405V40.5H248.705ZM251.742 42.18C251.202 42.71 250.932 43.395 250.932 44.235C250.932 45.075 251.202 45.765 251.742 46.305C252.282 46.835 252.942 47.1 253.722 47.1C254.282 47.1 254.787 46.965 255.237 46.695C255.687 46.425 256.032 46.045 256.272 45.555L257.367 46.05C257.037 46.73 256.547 47.27 255.897 47.67C255.247 48.07 254.522 48.27 253.722 48.27C252.602 48.27 251.657 47.89 250.887 47.13C250.117 46.37 249.732 45.405 249.732 44.235C249.732 43.065 250.117 42.1 250.887 41.34C251.657 40.58 252.602 40.2 253.722 40.2C254.532 40.2 255.267 40.405 255.927 40.815C256.587 41.225 257.077 41.785 257.397 42.495L256.302 42.99C256.072 42.48 255.727 42.085 255.267 41.805C254.807 41.515 254.292 41.37 253.722 41.37C252.942 41.37 252.282 41.64 251.742 42.18ZM264.701 40.5V41.64H262.151V48H260.951V41.64H258.401V40.5H264.701ZM270.243 41.595H267.228V43.71H270.378C270.718 43.71 271.003 43.62 271.233 43.44C271.463 43.25 271.578 43.015 271.578 42.735C271.578 42.405 271.448 42.135 271.188 41.925C270.938 41.705 270.623 41.595 270.243 41.595ZM270.393 44.715H267.228V46.905H270.393C270.773 46.905 271.088 46.805 271.338 46.605C271.598 46.395 271.728 46.14 271.728 45.84C271.728 45.51 271.598 45.24 271.338 45.03C271.088 44.82 270.773 44.715 270.393 44.715ZM270.543 48H266.028V40.5H270.393C271.073 40.5 271.638 40.7 272.088 41.1C272.548 41.49 272.778 41.985 272.778 42.585C272.778 42.915 272.688 43.22 272.508 43.5C272.338 43.77 272.098 43.98 271.788 44.13C272.138 44.3 272.413 44.545 272.613 44.865C272.823 45.185 272.928 45.545 272.928 45.945C272.928 46.525 272.698 47.015 272.238 47.415C271.788 47.805 271.223 48 270.543 48ZM278.909 44.535L276.764 44.79C275.754 44.92 275.249 45.305 275.249 45.945C275.249 46.285 275.389 46.56 275.669 46.77C275.949 46.97 276.324 47.07 276.794 47.07C277.434 47.07 277.944 46.88 278.324 46.5C278.714 46.12 278.909 45.62 278.909 45H279.434C279.434 45.91 279.154 46.665 278.594 47.265C278.034 47.865 277.334 48.165 276.494 48.165C275.784 48.165 275.194 47.965 274.724 47.565C274.264 47.155 274.034 46.63 274.034 45.99C274.044 45.38 274.264 44.875 274.694 44.475C275.134 44.075 275.739 43.83 276.509 43.74L278.909 43.47V43.17C278.909 42.71 278.729 42.31 278.369 41.97C278.019 41.63 277.589 41.46 277.079 41.46C276.619 41.46 276.209 41.585 275.849 41.835C275.499 42.085 275.279 42.41 275.189 42.81L274.049 42.45C274.249 41.82 274.619 41.31 275.159 40.92C275.709 40.53 276.329 40.335 277.019 40.335C277.859 40.335 278.584 40.605 279.194 41.145C279.804 41.675 280.109 42.31 280.109 43.05V48H278.909V44.535ZM282.974 45.03H281.849L281.774 37.5H283.049L282.974 45.03ZM281.459 47.22C281.459 46.95 281.549 46.725 281.729 46.545C281.909 46.355 282.134 46.26 282.404 46.26C282.684 46.26 282.914 46.355 283.094 46.545C283.284 46.725 283.379 46.95 283.379 47.22C283.379 47.5 283.289 47.73 283.109 47.91C282.929 48.09 282.699 48.18 282.419 48.18C282.149 48.18 281.919 48.09 281.729 47.91C281.549 47.73 281.459 47.5 281.459 47.22ZM288.762 39.435C289.062 38.755 289.502 38.22 290.082 37.83C290.672 37.43 291.332 37.23 292.062 37.23C292.962 37.23 293.717 37.51 294.327 38.07C294.937 38.63 295.242 39.325 295.242 40.155C295.242 40.665 295.122 41.13 294.882 41.55C294.642 41.97 294.312 42.3 293.892 42.54C294.402 42.8 294.802 43.17 295.092 43.65C295.392 44.13 295.542 44.655 295.542 45.225C295.542 46.095 295.207 46.82 294.537 47.4C293.877 47.98 293.052 48.27 292.062 48.27C291.272 48.27 290.557 48.07 289.917 47.67C289.277 47.26 288.802 46.7 288.492 45.99L289.602 45.42C289.812 45.94 290.137 46.35 290.577 46.65C291.017 46.95 291.512 47.1 292.062 47.1C292.712 47.1 293.252 46.91 293.682 46.53C294.122 46.15 294.342 45.675 294.342 45.105C294.342 44.555 294.147 44.095 293.757 43.725C293.367 43.355 292.882 43.17 292.302 43.17H290.982V42.03H292.302C292.802 42.03 293.217 41.865 293.547 41.535C293.877 41.195 294.042 40.775 294.042 40.275C294.042 39.745 293.847 39.3 293.457 38.94C293.077 38.58 292.597 38.4 292.017 38.4C291.537 38.4 291.107 38.535 290.727 38.805C290.347 39.075 290.057 39.45 289.857 39.93L288.762 39.435ZM296.545 46.86H304.75V49.74H303.55V48H297.745V49.74H296.545V46.86ZM296.905 46.86C297.375 46.87 297.735 46.725 297.985 46.425C298.245 46.115 298.375 45.73 298.375 45.27V40.5H303.7V48H302.5V41.67H299.575V45.48C299.575 46.1 299.34 46.64 298.87 47.1C298.4 47.55 297.795 47.775 297.055 47.775H296.62V46.86H296.905ZM312.333 43.68C312.273 42.98 311.988 42.415 311.478 41.985C310.968 41.555 310.353 41.34 309.633 41.34C308.943 41.34 308.348 41.555 307.848 41.985C307.358 42.405 307.068 42.97 306.978 43.68H312.333ZM306.978 44.775C307.068 45.485 307.368 46.055 307.878 46.485C308.388 46.915 308.993 47.13 309.693 47.13C310.233 47.13 310.723 47.005 311.163 46.755C311.603 46.495 311.933 46.14 312.153 45.69L313.263 46.125C312.933 46.785 312.448 47.31 311.808 47.7C311.178 48.08 310.478 48.27 309.708 48.27C308.588 48.27 307.643 47.89 306.873 47.13C306.113 46.36 305.733 45.395 305.733 44.235C305.733 43.075 306.108 42.115 306.858 41.355C307.608 40.585 308.528 40.2 309.618 40.2C310.718 40.2 311.648 40.575 312.408 41.325C313.168 42.065 313.548 43 313.548 44.13C313.548 44.31 313.523 44.525 313.473 44.775H306.978ZM316.679 42.18C316.139 42.71 315.869 43.395 315.869 44.235C315.869 45.075 316.139 45.765 316.679 46.305C317.219 46.835 317.879 47.1 318.659 47.1C319.219 47.1 319.724 46.965 320.174 46.695C320.624 46.425 320.969 46.045 321.209 45.555L322.304 46.05C321.974 46.73 321.484 47.27 320.834 47.67C320.184 48.07 319.459 48.27 318.659 48.27C317.539 48.27 316.594 47.89 315.824 47.13C315.054 46.37 314.669 45.405 314.669 44.235C314.669 43.065 315.054 42.1 315.824 41.34C316.594 40.58 317.539 40.2 318.659 40.2C319.469 40.2 320.204 40.405 320.864 40.815C321.524 41.225 322.014 41.785 322.334 42.495L321.239 42.99C321.009 42.48 320.664 42.085 320.204 41.805C319.744 41.515 319.229 41.37 318.659 41.37C317.879 41.37 317.219 41.64 316.679 42.18ZM328.168 44.64H324.958V46.83H328.168C328.548 46.83 328.863 46.73 329.113 46.53C329.363 46.32 329.488 46.065 329.488 45.765C329.488 45.445 329.363 45.18 329.113 44.97C328.863 44.75 328.548 44.64 328.168 44.64ZM328.318 43.5C328.988 43.5 329.548 43.72 329.998 44.16C330.458 44.6 330.688 45.14 330.688 45.78C330.688 46.41 330.458 46.94 329.998 47.37C329.548 47.79 328.988 48 328.318 48H323.758V40.5H324.958V43.5H328.318ZM13.87 63V55.5H15.28L18.22 60.45L21.16 55.5H22.57V63H21.37V57.24L18.64 61.89H17.815L15.07 57.24V63H13.87ZM26.0393 57.18C25.4893 57.71 25.2143 58.395 25.2143 59.235C25.2143 60.075 25.4893 60.765 26.0393 61.305C26.5993 61.835 27.2793 62.1 28.0793 62.1C28.8793 62.1 29.5543 61.835 30.1043 61.305C30.6643 60.765 30.9443 60.075 30.9443 59.235C30.9443 58.395 30.6643 57.71 30.1043 57.18C29.5543 56.64 28.8793 56.37 28.0793 56.37C27.2793 56.37 26.5993 56.64 26.0393 57.18ZM25.1843 62.13C24.4043 61.37 24.0143 60.405 24.0143 59.235C24.0143 58.065 24.4043 57.1 25.1843 56.34C25.9743 55.58 26.9393 55.2 28.0793 55.2C29.2193 55.2 30.1793 55.58 30.9593 56.34C31.7493 57.1 32.1443 58.065 32.1443 59.235C32.1443 60.405 31.7493 61.37 30.9593 62.13C30.1793 62.89 29.2193 63.27 28.0793 63.27C26.9393 63.27 25.9743 62.89 25.1843 62.13ZM37.8768 55.5H39.0768V58.665H39.7668L42.3468 55.5H43.7568L40.6968 59.25L43.7568 63H42.3468L39.7668 59.88H39.0768V63H37.8768V59.835H37.2168L34.6068 63H33.1968L36.2868 59.25L33.1968 55.5H34.6068L37.2168 58.62H37.8768V55.5ZM45.1151 63V55.5H46.3151V58.665H50.9951V55.5H52.1951V63H50.9951V59.805H46.3151V63H45.1151ZM55.6438 57.18C55.0938 57.71 54.8188 58.395 54.8188 59.235C54.8188 60.075 55.0938 60.765 55.6438 61.305C56.2038 61.835 56.8838 62.1 57.6838 62.1C58.4838 62.1 59.1588 61.835 59.7088 61.305C60.2688 60.765 60.5488 60.075 60.5488 59.235C60.5488 58.395 60.2688 57.71 59.7088 57.18C59.1588 56.64 58.4838 56.37 57.6838 56.37C56.8838 56.37 56.2038 56.64 55.6438 57.18ZM54.7888 62.13C54.0088 61.37 53.6188 60.405 53.6188 59.235C53.6188 58.065 54.0088 57.1 54.7888 56.34C55.5788 55.58 56.5438 55.2 57.6838 55.2C58.8238 55.2 59.7838 55.58 60.5638 56.34C61.3538 57.1 61.7488 58.065 61.7488 59.235C61.7488 60.405 61.3538 61.37 60.5638 62.13C59.7838 62.89 58.8238 63.27 57.6838 63.27C56.5438 63.27 55.5788 62.89 54.7888 62.13ZM73.6843 55.5V63H72.4843V56.64H68.4343V63H67.2343V55.5H73.6843ZM77.1331 57.18C76.5831 57.71 76.3081 58.395 76.3081 59.235C76.3081 60.075 76.5831 60.765 77.1331 61.305C77.6931 61.835 78.3731 62.1 79.1731 62.1C79.9731 62.1 80.6481 61.835 81.1981 61.305C81.7581 60.765 82.0381 60.075 82.0381 59.235C82.0381 58.395 81.7581 57.71 81.1981 57.18C80.6481 56.64 79.9731 56.37 79.1731 56.37C78.3731 56.37 77.6931 56.64 77.1331 57.18ZM76.2781 62.13C75.4981 61.37 75.1081 60.405 75.1081 59.235C75.1081 58.065 75.4981 57.1 76.2781 56.34C77.0681 55.58 78.0331 55.2 79.1731 55.2C80.3131 55.2 81.2731 55.58 82.0531 56.34C82.8431 57.1 83.2381 58.065 83.2381 59.235C83.2381 60.405 82.8431 61.37 82.0531 62.13C81.2731 62.89 80.3131 63.27 79.1731 63.27C78.0331 63.27 77.0681 62.89 76.2781 62.13ZM84.6805 63V55.5H86.0905L89.0305 60.45L91.9705 55.5H93.3805V63H92.1805V57.24L89.4505 61.89H88.6255L85.8805 57.24V63H84.6805ZM96.8499 57.18C96.2999 57.71 96.0249 58.395 96.0249 59.235C96.0249 60.075 96.2999 60.765 96.8499 61.305C97.4099 61.835 98.0899 62.1 98.8899 62.1C99.6899 62.1 100.365 61.835 100.915 61.305C101.475 60.765 101.755 60.075 101.755 59.235C101.755 58.395 101.475 57.71 100.915 57.18C100.365 56.64 99.6899 56.37 98.8899 56.37C98.0899 56.37 97.4099 56.64 96.8499 57.18ZM95.9949 62.13C95.2149 61.37 94.8249 60.405 94.8249 59.235C94.8249 58.065 95.2149 57.1 95.9949 56.34C96.7849 55.58 97.7499 55.2 98.8899 55.2C100.03 55.2 100.99 55.58 101.77 56.34C102.56 57.1 102.955 58.065 102.955 59.235C102.955 60.405 102.56 61.37 101.77 62.13C100.99 62.89 100.03 63.27 98.8899 63.27C97.7499 63.27 96.7849 62.89 95.9949 62.13ZM104.352 61.83C104.772 61.83 105.097 61.7 105.327 61.44C105.557 61.17 105.672 60.83 105.672 60.42V55.5H110.997V63H109.797V56.67H106.872V60.615C106.872 61.265 106.652 61.825 106.212 62.295C105.772 62.765 105.202 63 104.502 63H104.037V61.83H104.352ZM119.468 63H118.268V57L114.143 63H112.718V55.5H113.918V61.35L118.028 55.5H119.468V63ZM127.079 55.5V56.64H124.529V63H123.329V56.64H120.779V55.5H127.079ZM132.816 59.64H129.606V61.83H132.816C133.196 61.83 133.511 61.73 133.761 61.53C134.011 61.32 134.136 61.065 134.136 60.765C134.136 60.445 134.011 60.18 133.761 59.97C133.511 59.75 133.196 59.64 132.816 59.64ZM132.966 58.5C133.636 58.5 134.196 58.72 134.646 59.16C135.106 59.6 135.336 60.14 135.336 60.78C135.336 61.41 135.106 61.94 134.646 62.37C134.196 62.79 133.636 63 132.966 63H128.406V55.5H129.606V58.5H132.966ZM138.48 57.18C137.94 57.71 137.67 58.395 137.67 59.235C137.67 60.075 137.94 60.765 138.48 61.305C139.02 61.835 139.68 62.1 140.46 62.1C141.02 62.1 141.525 61.965 141.975 61.695C142.425 61.425 142.77 61.045 143.01 60.555L144.105 61.05C143.775 61.73 143.285 62.27 142.635 62.67C141.985 63.07 141.26 63.27 140.46 63.27C139.34 63.27 138.395 62.89 137.625 62.13C136.855 61.37 136.47 60.405 136.47 59.235C136.47 58.065 136.855 57.1 137.625 56.34C138.395 55.58 139.34 55.2 140.46 55.2C141.27 55.2 142.005 55.405 142.665 55.815C143.325 56.225 143.815 56.785 144.135 57.495L143.04 57.99C142.81 57.48 142.465 57.085 142.005 56.805C141.545 56.515 141.03 56.37 140.46 56.37C139.68 56.37 139.02 56.64 138.48 57.18ZM147.989 59.16H150.779V56.67H147.989C147.569 56.67 147.214 56.79 146.924 57.03C146.644 57.26 146.504 57.545 146.504 57.885C146.504 58.255 146.644 58.56 146.924 58.8C147.214 59.04 147.569 59.16 147.989 59.16ZM148.859 60.255L146.729 63H145.259L147.479 60.18C146.839 60.14 146.309 59.9 145.889 59.46C145.469 59.02 145.259 58.49 145.259 57.87C145.259 57.2 145.504 56.64 145.994 56.19C146.484 55.73 147.094 55.5 147.824 55.5H151.979V63H150.779V60.255H148.859ZM165.067 52.44C164.767 52.73 164.372 52.95 163.882 53.1C163.402 53.25 162.787 53.38 162.037 53.49C161.047 53.63 160.257 54.055 159.667 54.765C159.087 55.475 158.757 56.44 158.677 57.66C158.977 57.1 159.417 56.655 159.997 56.325C160.587 55.995 161.222 55.83 161.902 55.83C162.912 55.83 163.757 56.185 164.437 56.895C165.117 57.595 165.457 58.465 165.457 59.505C165.457 60.585 165.092 61.485 164.362 62.205C163.632 62.915 162.707 63.27 161.587 63.27C160.837 63.27 160.147 63.1 159.517 62.76C158.897 62.41 158.427 61.925 158.107 61.305C157.687 60.515 157.477 59.505 157.477 58.275C157.477 56.535 157.852 55.185 158.602 54.225C159.362 53.255 160.447 52.655 161.857 52.425C162.317 52.345 162.667 52.28 162.907 52.23C163.157 52.18 163.427 52.1 163.717 51.99C164.007 51.88 164.237 51.745 164.407 51.585L165.067 52.44ZM158.827 59.43C158.827 60.16 159.102 60.785 159.652 61.305C160.202 61.815 160.867 62.07 161.647 62.07C162.397 62.07 163.017 61.83 163.507 61.35C164.007 60.86 164.257 60.25 164.257 59.52C164.257 58.79 164.002 58.19 163.492 57.72C162.992 57.24 162.347 57 161.557 57C160.777 57 160.127 57.235 159.607 57.705C159.087 58.165 158.827 58.74 158.827 59.43ZM168.627 57.18C168.077 57.71 167.802 58.395 167.802 59.235C167.802 60.075 168.077 60.765 168.627 61.305C169.187 61.835 169.867 62.1 170.667 62.1C171.467 62.1 172.142 61.835 172.692 61.305C173.252 60.765 173.532 60.075 173.532 59.235C173.532 58.395 173.252 57.71 172.692 57.18C172.142 56.64 171.467 56.37 170.667 56.37C169.867 56.37 169.187 56.64 168.627 57.18ZM167.772 62.13C166.992 61.37 166.602 60.405 166.602 59.235C166.602 58.065 166.992 57.1 167.772 56.34C168.562 55.58 169.527 55.2 170.667 55.2C171.807 55.2 172.767 55.58 173.547 56.34C174.337 57.1 174.732 58.065 174.732 59.235C174.732 60.405 174.337 61.37 173.547 62.13C172.767 62.89 171.807 63.27 170.667 63.27C169.527 63.27 168.562 62.89 167.772 62.13ZM176.13 61.83C176.55 61.83 176.875 61.7 177.105 61.44C177.335 61.17 177.45 60.83 177.45 60.42V55.5H182.775V63H181.575V56.67H178.65V60.615C178.65 61.265 178.43 61.825 177.99 62.295C177.55 62.765 176.98 63 176.28 63H175.815V61.83H176.13ZM188.905 59.64H185.695V61.83H188.905C189.285 61.83 189.6 61.73 189.85 61.53C190.1 61.32 190.225 61.065 190.225 60.765C190.225 60.445 190.1 60.18 189.85 59.97C189.6 59.75 189.285 59.64 188.905 59.64ZM189.055 58.5C189.725 58.5 190.285 58.72 190.735 59.16C191.195 59.6 191.425 60.14 191.425 60.78C191.425 61.41 191.195 61.94 190.735 62.37C190.285 62.79 189.725 63 189.055 63H184.495V55.5H185.695V58.5H189.055ZM203.719 63H192.859V55.5H194.059V61.86H197.689V55.5H198.889V61.86H202.519V55.5H203.719V63ZM207.182 57.18C206.632 57.71 206.357 58.395 206.357 59.235C206.357 60.075 206.632 60.765 207.182 61.305C207.742 61.835 208.422 62.1 209.222 62.1C210.022 62.1 210.697 61.835 211.247 61.305C211.807 60.765 212.087 60.075 212.087 59.235C212.087 58.395 211.807 57.71 211.247 57.18C210.697 56.64 210.022 56.37 209.222 56.37C208.422 56.37 207.742 56.64 207.182 57.18ZM206.327 62.13C205.547 61.37 205.157 60.405 205.157 59.235C205.157 58.065 205.547 57.1 206.327 56.34C207.117 55.58 208.082 55.2 209.222 55.2C210.362 55.2 211.322 55.58 212.102 56.34C212.892 57.1 213.287 58.065 213.287 59.235C213.287 60.405 212.892 61.37 212.102 62.13C211.322 62.89 210.362 63.27 209.222 63.27C208.082 63.27 207.117 62.89 206.327 62.13ZM214.729 63V55.5H216.139L219.079 60.45L222.019 55.5H223.429V63H222.229V57.24L219.499 61.89H218.674L215.929 57.24V63H214.729ZM230.859 55.5H232.194L227.829 66H226.494L227.754 62.73L224.769 55.5H226.104L228.474 61.38L230.859 55.5ZM244.872 52.44C244.572 52.73 244.177 52.95 243.687 53.1C243.207 53.25 242.592 53.38 241.842 53.49C240.852 53.63 240.062 54.055 239.472 54.765C238.892 55.475 238.562 56.44 238.482 57.66C238.782 57.1 239.222 56.655 239.802 56.325C240.392 55.995 241.027 55.83 241.707 55.83C242.717 55.83 243.562 56.185 244.242 56.895C244.922 57.595 245.262 58.465 245.262 59.505C245.262 60.585 244.897 61.485 244.167 62.205C243.437 62.915 242.512 63.27 241.392 63.27C240.642 63.27 239.952 63.1 239.322 62.76C238.702 62.41 238.232 61.925 237.912 61.305C237.492 60.515 237.282 59.505 237.282 58.275C237.282 56.535 237.657 55.185 238.407 54.225C239.167 53.255 240.252 52.655 241.662 52.425C242.122 52.345 242.472 52.28 242.712 52.23C242.962 52.18 243.232 52.1 243.522 51.99C243.812 51.88 244.042 51.745 244.212 51.585L244.872 52.44ZM238.632 59.43C238.632 60.16 238.907 60.785 239.457 61.305C240.007 61.815 240.672 62.07 241.452 62.07C242.202 62.07 242.822 61.83 243.312 61.35C243.812 60.86 244.062 60.25 244.062 59.52C244.062 58.79 243.807 58.19 243.297 57.72C242.797 57.24 242.152 57 241.362 57C240.582 57 239.932 57.235 239.412 57.705C238.892 58.165 238.632 58.74 238.632 59.43ZM246.707 55.5H247.907V66H246.707V55.5ZM248.732 57.195C248.182 57.735 247.907 58.425 247.907 59.265C247.907 60.095 248.182 60.78 248.732 61.32C249.292 61.86 249.972 62.13 250.772 62.13C251.572 62.13 252.247 61.86 252.797 61.32C253.357 60.78 253.637 60.095 253.637 59.265C253.637 58.425 253.357 57.735 252.797 57.195C252.247 56.655 251.572 56.385 250.772 56.385C249.972 56.385 249.292 56.655 248.732 57.195ZM248.402 62.16C247.692 61.39 247.337 60.425 247.337 59.265C247.337 58.095 247.692 57.13 248.402 56.37C249.112 55.61 249.987 55.23 251.027 55.23C252.097 55.23 252.997 55.61 253.727 56.37C254.467 57.13 254.837 58.095 254.837 59.265C254.837 60.425 254.467 61.39 253.727 62.16C252.997 62.92 252.097 63.3 251.027 63.3C249.987 63.3 249.112 62.92 248.402 62.16ZM260.832 59.535L258.687 59.79C257.677 59.92 257.172 60.305 257.172 60.945C257.172 61.285 257.312 61.56 257.592 61.77C257.872 61.97 258.247 62.07 258.717 62.07C259.357 62.07 259.867 61.88 260.247 61.5C260.637 61.12 260.832 60.62 260.832 60H261.357C261.357 60.91 261.077 61.665 260.517 62.265C259.957 62.865 259.257 63.165 258.417 63.165C257.707 63.165 257.117 62.965 256.647 62.565C256.187 62.155 255.957 61.63 255.957 60.99C255.967 60.38 256.187 59.875 256.617 59.475C257.057 59.075 257.662 58.83 258.432 58.74L260.832 58.47V58.17C260.832 57.71 260.652 57.31 260.292 56.97C259.942 56.63 259.512 56.46 259.002 56.46C258.542 56.46 258.132 56.585 257.772 56.835C257.422 57.085 257.202 57.41 257.112 57.81L255.972 57.45C256.172 56.82 256.542 56.31 257.082 55.92C257.632 55.53 258.252 55.335 258.942 55.335C259.782 55.335 260.507 55.605 261.117 56.145C261.727 56.675 262.032 57.31 262.032 58.05V63H260.832V59.535ZM269.638 55.5V56.64H267.088V63H265.888V56.64H263.338V55.5H269.638ZM276.65 55.5H277.985L273.62 66H272.285L273.545 62.73L270.56 55.5H271.895L274.265 61.38L276.65 55.5ZM279.675 61.41L280.89 61.665L279.99 65.325L278.97 65.115L279.675 61.41ZM286.302 63V55.5H287.502V58.665H292.182V55.5H293.382V63H292.182V59.805H287.502V63H286.302ZM299.665 59.535L297.52 59.79C296.51 59.92 296.005 60.305 296.005 60.945C296.005 61.285 296.145 61.56 296.425 61.77C296.705 61.97 297.08 62.07 297.55 62.07C298.19 62.07 298.7 61.88 299.08 61.5C299.47 61.12 299.665 60.62 299.665 60H300.19C300.19 60.91 299.91 61.665 299.35 62.265C298.79 62.865 298.09 63.165 297.25 63.165C296.54 63.165 295.95 62.965 295.48 62.565C295.02 62.155 294.79 61.63 294.79 60.99C294.8 60.38 295.02 59.875 295.45 59.475C295.89 59.075 296.495 58.83 297.265 58.74L299.665 58.47V58.17C299.665 57.71 299.485 57.31 299.125 56.97C298.775 56.63 298.345 56.46 297.835 56.46C297.375 56.46 296.965 56.585 296.605 56.835C296.255 57.085 296.035 57.41 295.945 57.81L294.805 57.45C295.005 56.82 295.375 56.31 295.915 55.92C296.465 55.53 297.085 55.335 297.775 55.335C298.615 55.335 299.34 55.605 299.95 56.145C300.56 56.675 300.865 57.31 300.865 58.05V63H299.665V59.535ZM305.996 54.36C305.306 54.36 304.721 54.135 304.241 53.685C303.761 53.225 303.521 52.675 303.521 52.035H304.526C304.526 52.435 304.666 52.765 304.946 53.025C305.226 53.285 305.581 53.415 306.011 53.415C306.451 53.415 306.821 53.28 307.121 53.01C307.431 52.74 307.586 52.415 307.586 52.035H308.591C308.591 52.655 308.331 53.2 307.811 53.67C307.301 54.13 306.696 54.36 305.996 54.36ZM309.341 63H308.141V57L304.016 63H302.591V55.5H303.791V61.35L307.901 55.5H309.341V63ZM316.952 55.5V56.64H314.402V63H313.202V56.64H310.652V55.5H316.952ZM325.029 63H323.829V57L319.704 63H318.279V55.5H319.479V61.35L323.589 55.5H325.029V63ZM20.32 70.5V78H19.12V71.64H15.07V78H13.87V70.5H20.32ZM23.7688 72.18C23.2188 72.71 22.9438 73.395 22.9438 74.235C22.9438 75.075 23.2188 75.765 23.7688 76.305C24.3288 76.835 25.0088 77.1 25.8088 77.1C26.6088 77.1 27.2838 76.835 27.8338 76.305C28.3938 75.765 28.6738 75.075 28.6738 74.235C28.6738 73.395 28.3938 72.71 27.8338 72.18C27.2838 71.64 26.6088 71.37 25.8088 71.37C25.0088 71.37 24.3288 71.64 23.7688 72.18ZM22.9138 77.13C22.1338 76.37 21.7438 75.405 21.7438 74.235C21.7438 73.065 22.1338 72.1 22.9138 71.34C23.7038 70.58 24.6688 70.2 25.8088 70.2C26.9488 70.2 27.9088 70.58 28.6888 71.34C29.4788 72.1 29.8738 73.065 29.8738 74.235C29.8738 75.405 29.4788 76.37 28.6888 77.13C27.9088 77.89 26.9488 78.27 25.8088 78.27C24.6688 78.27 23.7038 77.89 22.9138 77.13ZM30.8813 76.86H39.0863V79.74H37.8863V78H32.0813V79.74H30.8813V76.86ZM31.2413 76.86C31.7113 76.87 32.0713 76.725 32.3213 76.425C32.5813 76.115 32.7113 75.73 32.7113 75.27V70.5H38.0363V78H36.8363V71.67H33.9113V75.48C33.9113 76.1 33.6763 76.64 33.2063 77.1C32.7363 77.55 32.1313 77.775 31.3913 77.775H30.9563V76.86H31.2413ZM47.299 78H45.859L43.624 75.03L41.419 78H39.949L42.769 74.25L39.949 70.5H41.419L43.624 73.47L45.859 70.5H47.299L44.479 74.25L47.299 78ZM50.3411 72.18C49.7911 72.71 49.5161 73.395 49.5161 74.235C49.5161 75.075 49.7911 75.765 50.3411 76.305C50.9011 76.835 51.5811 77.1 52.3811 77.1C53.1811 77.1 53.8561 76.835 54.4061 76.305C54.9661 75.765 55.2461 75.075 55.2461 74.235C55.2461 73.395 54.9661 72.71 54.4061 72.18C53.8561 71.64 53.1811 71.37 52.3811 71.37C51.5811 71.37 50.9011 71.64 50.3411 72.18ZM49.4861 77.13C48.7061 76.37 48.3161 75.405 48.3161 74.235C48.3161 73.065 48.7061 72.1 49.4861 71.34C50.2761 70.58 51.2411 70.2 52.3811 70.2C53.5211 70.2 54.4811 70.58 55.2611 71.34C56.0511 72.1 56.4461 73.065 56.4461 74.235C56.4461 75.405 56.0511 76.37 55.2611 77.13C54.4811 77.89 53.5211 78.27 52.3811 78.27C51.2411 78.27 50.2761 77.89 49.4861 77.13ZM57.4536 76.86H65.6586V79.74H64.4586V78H58.6536V79.74H57.4536V76.86ZM57.8136 76.86C58.2836 76.87 58.6436 76.725 58.8936 76.425C59.1536 76.115 59.2836 75.73 59.2836 75.27V70.5H64.6086V78H63.4086V71.67H60.4836V75.48C60.4836 76.1 60.2486 76.64 59.7786 77.1C59.3086 77.55 58.7036 77.775 57.9636 77.775H57.5286V76.86H57.8136ZM69.3713 74.16H72.1613V71.67H69.3713C68.9513 71.67 68.5963 71.79 68.3063 72.03C68.0263 72.26 67.8863 72.545 67.8863 72.885C67.8863 73.255 68.0263 73.56 68.3063 73.8C68.5963 74.04 68.9513 74.16 69.3713 74.16ZM70.2413 75.255L68.1113 78H66.6413L68.8613 75.18C68.2213 75.14 67.6913 74.9 67.2713 74.46C66.8513 74.02 66.6413 73.49 66.6413 72.87C66.6413 72.2 66.8863 71.64 67.3763 71.19C67.8663 70.73 68.4763 70.5 69.2063 70.5H73.3613V78H72.1613V75.255H70.2413ZM85.9458 76.86H87.0258V79.74H85.8258V78H75.0858V70.5H76.2858V76.86H79.9158V70.5H81.1158V76.86H84.7458V70.5H85.9458V76.86ZM95.1659 78H93.9659V72L89.8409 78H88.4159V70.5H89.6159V76.35L93.7259 70.5H95.1659V78ZM100.302 69.36C99.6123 69.36 99.0273 69.135 98.5473 68.685C98.0673 68.225 97.8273 67.675 97.8273 67.035H98.8323C98.8323 67.435 98.9723 67.765 99.2523 68.025C99.5323 68.285 99.8873 68.415 100.317 68.415C100.757 68.415 101.127 68.28 101.427 68.01C101.737 67.74 101.892 67.415 101.892 67.035H102.897C102.897 67.655 102.637 68.2 102.117 68.67C101.607 69.13 101.002 69.36 100.302 69.36ZM103.647 78H102.447V72L98.3223 78H96.8973V70.5H98.0973V76.35L102.207 70.5H103.647V78ZM113.982 74.535L111.837 74.79C110.827 74.92 110.322 75.305 110.322 75.945C110.322 76.285 110.462 76.56 110.742 76.77C111.022 76.97 111.397 77.07 111.867 77.07C112.507 77.07 113.017 76.88 113.397 76.5C113.787 76.12 113.982 75.62 113.982 75H114.507C114.507 75.91 114.227 76.665 113.667 77.265C113.107 77.865 112.407 78.165 111.567 78.165C110.857 78.165 110.267 77.965 109.797 77.565C109.337 77.155 109.107 76.63 109.107 75.99C109.117 75.38 109.337 74.875 109.767 74.475C110.207 74.075 110.812 73.83 111.582 73.74L113.982 73.47V73.17C113.982 72.71 113.802 72.31 113.442 71.97C113.092 71.63 112.662 71.46 112.152 71.46C111.692 71.46 111.282 71.585 110.922 71.835C110.572 72.085 110.352 72.41 110.262 72.81L109.122 72.45C109.322 71.82 109.692 71.31 110.232 70.92C110.782 70.53 111.402 70.335 112.092 70.335C112.932 70.335 113.657 70.605 114.267 71.145C114.877 71.675 115.182 72.31 115.182 73.05V78H113.982V74.535ZM116.907 78V70.5H118.107V73.65H118.497L121.557 70.5H123.117L119.547 74.25L123.117 78H121.557L118.497 74.895H118.107V78H116.907ZM126.132 72.18C125.592 72.71 125.322 73.395 125.322 74.235C125.322 75.075 125.592 75.765 126.132 76.305C126.672 76.835 127.332 77.1 128.112 77.1C128.672 77.1 129.177 76.965 129.627 76.695C130.077 76.425 130.422 76.045 130.662 75.555L131.757 76.05C131.427 76.73 130.937 77.27 130.287 77.67C129.637 78.07 128.912 78.27 128.112 78.27C126.992 78.27 126.047 77.89 125.277 77.13C124.507 76.37 124.122 75.405 124.122 74.235C124.122 73.065 124.507 72.1 125.277 71.34C126.047 70.58 126.992 70.2 128.112 70.2C128.922 70.2 129.657 70.405 130.317 70.815C130.977 71.225 131.467 71.785 131.787 72.495L130.692 72.99C130.462 72.48 130.117 72.085 129.657 71.805C129.197 71.515 128.682 71.37 128.112 71.37C127.332 71.37 126.672 71.64 126.132 72.18ZM139.511 73.68C139.451 72.98 139.166 72.415 138.656 71.985C138.146 71.555 137.531 71.34 136.811 71.34C136.121 71.34 135.526 71.555 135.026 71.985C134.536 72.405 134.246 72.97 134.156 73.68H139.511ZM134.156 74.775C134.246 75.485 134.546 76.055 135.056 76.485C135.566 76.915 136.171 77.13 136.871 77.13C137.411 77.13 137.901 77.005 138.341 76.755C138.781 76.495 139.111 76.14 139.331 75.69L140.441 76.125C140.111 76.785 139.626 77.31 138.986 77.7C138.356 78.08 137.656 78.27 136.886 78.27C135.766 78.27 134.821 77.89 134.051 77.13C133.291 76.36 132.911 75.395 132.911 74.235C132.911 73.075 133.286 72.115 134.036 71.355C134.786 70.585 135.706 70.2 136.796 70.2C137.896 70.2 138.826 70.575 139.586 71.325C140.346 72.065 140.726 73 140.726 74.13C140.726 74.31 140.701 74.525 140.651 74.775H134.156ZM143.856 72.18C143.316 72.71 143.046 73.395 143.046 74.235C143.046 75.075 143.316 75.765 143.856 76.305C144.396 76.835 145.056 77.1 145.836 77.1C146.396 77.1 146.901 76.965 147.351 76.695C147.801 76.425 148.146 76.045 148.386 75.555L149.481 76.05C149.151 76.73 148.661 77.27 148.011 77.67C147.361 78.07 146.636 78.27 145.836 78.27C144.716 78.27 143.771 77.89 143.001 77.13C142.231 76.37 141.846 75.405 141.846 74.235C141.846 73.065 142.231 72.1 143.001 71.34C143.771 70.58 144.716 70.2 145.836 70.2C146.646 70.2 147.381 70.405 148.041 70.815C148.701 71.225 149.191 71.785 149.511 72.495L148.416 72.99C148.186 72.48 147.841 72.085 147.381 71.805C146.921 71.515 146.406 71.37 145.836 71.37C145.056 71.37 144.396 71.64 143.856 72.18ZM152.645 72.18C152.105 72.71 151.835 73.395 151.835 74.235C151.835 75.075 152.105 75.765 152.645 76.305C153.185 76.835 153.845 77.1 154.625 77.1C155.185 77.1 155.69 76.965 156.14 76.695C156.59 76.425 156.935 76.045 157.175 75.555L158.27 76.05C157.94 76.73 157.45 77.27 156.8 77.67C156.15 78.07 155.425 78.27 154.625 78.27C153.505 78.27 152.56 77.89 151.79 77.13C151.02 76.37 150.635 75.405 150.635 74.235C150.635 73.065 151.02 72.1 151.79 71.34C152.56 70.58 153.505 70.2 154.625 70.2C155.435 70.2 156.17 70.405 156.83 70.815C157.49 71.225 157.98 71.785 158.3 72.495L157.205 72.99C156.975 72.48 156.63 72.085 156.17 71.805C155.71 71.515 155.195 71.37 154.625 71.37C153.845 71.37 153.185 71.64 152.645 72.18ZM165.409 70.5H166.744L162.379 81H161.044L162.304 77.73L159.319 70.5H160.654L163.024 76.38L165.409 70.5ZM172.619 74.535L170.474 74.79C169.464 74.92 168.959 75.305 168.959 75.945C168.959 76.285 169.099 76.56 169.379 76.77C169.659 76.97 170.034 77.07 170.504 77.07C171.144 77.07 171.654 76.88 172.034 76.5C172.424 76.12 172.619 75.62 172.619 75H173.144C173.144 75.91 172.864 76.665 172.304 77.265C171.744 77.865 171.044 78.165 170.204 78.165C169.494 78.165 168.904 77.965 168.434 77.565C167.974 77.155 167.744 76.63 167.744 75.99C167.754 75.38 167.974 74.875 168.404 74.475C168.844 74.075 169.449 73.83 170.219 73.74L172.619 73.47V73.17C172.619 72.71 172.439 72.31 172.079 71.97C171.729 71.63 171.299 71.46 170.789 71.46C170.329 71.46 169.919 71.585 169.559 71.835C169.209 72.085 168.989 72.41 168.899 72.81L167.759 72.45C167.959 71.82 168.329 71.31 168.869 70.92C169.419 70.53 170.039 70.335 170.729 70.335C171.569 70.335 172.294 70.605 172.904 71.145C173.514 71.675 173.819 72.31 173.819 73.05V78H172.619V74.535ZM175.545 70.5H176.745V81H175.545V70.5ZM177.57 72.195C177.02 72.735 176.745 73.425 176.745 74.265C176.745 75.095 177.02 75.78 177.57 76.32C178.13 76.86 178.81 77.13 179.61 77.13C180.41 77.13 181.085 76.86 181.635 76.32C182.195 75.78 182.475 75.095 182.475 74.265C182.475 73.425 182.195 72.735 181.635 72.195C181.085 71.655 180.41 71.385 179.61 71.385C178.81 71.385 178.13 71.655 177.57 72.195ZM177.24 77.16C176.53 76.39 176.175 75.425 176.175 74.265C176.175 73.095 176.53 72.13 177.24 71.37C177.95 70.61 178.825 70.23 179.865 70.23C180.935 70.23 181.835 70.61 182.565 71.37C183.305 72.13 183.675 73.095 183.675 74.265C183.675 75.425 183.305 76.39 182.565 77.16C181.835 77.92 180.935 78.3 179.865 78.3C178.825 78.3 177.95 77.92 177.24 77.16ZM185.485 76.41L186.7 76.665L185.8 80.325L184.78 80.115L185.485 76.41ZM193.822 72.18C193.282 72.71 193.012 73.395 193.012 74.235C193.012 75.075 193.282 75.765 193.822 76.305C194.362 76.835 195.022 77.1 195.802 77.1C196.362 77.1 196.867 76.965 197.317 76.695C197.767 76.425 198.112 76.045 198.352 75.555L199.447 76.05C199.117 76.73 198.627 77.27 197.977 77.67C197.327 78.07 196.602 78.27 195.802 78.27C194.682 78.27 193.737 77.89 192.967 77.13C192.197 76.37 191.812 75.405 191.812 74.235C191.812 73.065 192.197 72.1 192.967 71.34C193.737 70.58 194.682 70.2 195.802 70.2C196.612 70.2 197.347 70.405 198.007 70.815C198.667 71.225 199.157 71.785 199.477 72.495L198.382 72.99C198.152 72.48 197.807 72.085 197.347 71.805C196.887 71.515 196.372 71.37 195.802 71.37C195.022 71.37 194.362 71.64 193.822 72.18ZM200.466 76.86H208.671V79.74H207.471V78H201.666V79.74H200.466V76.86ZM200.826 76.86C201.296 76.87 201.656 76.725 201.906 76.425C202.166 76.115 202.296 75.73 202.296 75.27V70.5H207.621V78H206.421V71.67H203.496V75.48C203.496 76.1 203.261 76.64 202.791 77.1C202.321 77.55 201.716 77.775 200.976 77.775H200.541V76.86H200.826ZM216.254 73.68C216.194 72.98 215.909 72.415 215.399 71.985C214.889 71.555 214.274 71.34 213.554 71.34C212.864 71.34 212.269 71.555 211.769 71.985C211.279 72.405 210.989 72.97 210.899 73.68H216.254ZM210.899 74.775C210.989 75.485 211.289 76.055 211.799 76.485C212.309 76.915 212.914 77.13 213.614 77.13C214.154 77.13 214.644 77.005 215.084 76.755C215.524 76.495 215.854 76.14 216.074 75.69L217.184 76.125C216.854 76.785 216.369 77.31 215.729 77.7C215.099 78.08 214.399 78.27 213.629 78.27C212.509 78.27 211.564 77.89 210.794 77.13C210.034 76.36 209.654 75.395 209.654 74.235C209.654 73.075 210.029 72.115 210.779 71.355C211.529 70.585 212.449 70.2 213.539 70.2C214.639 70.2 215.569 70.575 216.329 71.325C217.089 72.065 217.469 73 217.469 74.13C217.469 74.31 217.444 74.525 217.394 74.775H210.899ZM218.845 76.83C219.265 76.83 219.59 76.7 219.82 76.44C220.05 76.17 220.165 75.83 220.165 75.42V70.5H225.49V78H224.29V71.67H221.365V75.615C221.365 76.265 221.145 76.825 220.705 77.295C220.265 77.765 219.695 78 218.995 78H218.53V76.83H218.845ZM231.77 74.535L229.625 74.79C228.615 74.92 228.11 75.305 228.11 75.945C228.11 76.285 228.25 76.56 228.53 76.77C228.81 76.97 229.185 77.07 229.655 77.07C230.295 77.07 230.805 76.88 231.185 76.5C231.575 76.12 231.77 75.62 231.77 75H232.295C232.295 75.91 232.015 76.665 231.455 77.265C230.895 77.865 230.195 78.165 229.355 78.165C228.645 78.165 228.055 77.965 227.585 77.565C227.125 77.155 226.895 76.63 226.895 75.99C226.905 75.38 227.125 74.875 227.555 74.475C227.995 74.075 228.6 73.83 229.37 73.74L231.77 73.47V73.17C231.77 72.71 231.59 72.31 231.23 71.97C230.88 71.63 230.45 71.46 229.94 71.46C229.48 71.46 229.07 71.585 228.71 71.835C228.36 72.085 228.14 72.41 228.05 72.81L226.91 72.45C227.11 71.82 227.48 71.31 228.02 70.92C228.57 70.53 229.19 70.335 229.88 70.335C230.72 70.335 231.445 70.605 232.055 71.145C232.665 71.675 232.97 72.31 232.97 73.05V78H231.77V74.535ZM240.575 70.5V71.64H238.025V78H236.825V71.64H234.275V70.5H240.575ZM246.312 74.64H243.102V76.83H246.312C246.692 76.83 247.007 76.73 247.257 76.53C247.507 76.32 247.632 76.065 247.632 75.765C247.632 75.445 247.507 75.18 247.257 74.97C247.007 74.75 246.692 74.64 246.312 74.64ZM246.462 73.5C247.132 73.5 247.692 73.72 248.142 74.16C248.602 74.6 248.832 75.14 248.832 75.78C248.832 76.41 248.602 76.94 248.142 77.37C247.692 77.79 247.132 78 246.462 78H241.902V70.5H243.102V73.5H246.462ZM20.32 85.5V93H19.12V86.64H15.07V93H13.87V85.5H20.32ZM23.7688 87.18C23.2188 87.71 22.9438 88.395 22.9438 89.235C22.9438 90.075 23.2188 90.765 23.7688 91.305C24.3288 91.835 25.0088 92.1 25.8088 92.1C26.6088 92.1 27.2838 91.835 27.8338 91.305C28.3938 90.765 28.6738 90.075 28.6738 89.235C28.6738 88.395 28.3938 87.71 27.8338 87.18C27.2838 86.64 26.6088 86.37 25.8088 86.37C25.0088 86.37 24.3288 86.64 23.7688 87.18ZM22.9138 92.13C22.1338 91.37 21.7438 90.405 21.7438 89.235C21.7438 88.065 22.1338 87.1 22.9138 86.34C23.7038 85.58 24.6688 85.2 25.8088 85.2C26.9488 85.2 27.9088 85.58 28.6888 86.34C29.4788 87.1 29.8738 88.065 29.8738 89.235C29.8738 90.405 29.4788 91.37 28.6888 92.13C27.9088 92.89 26.9488 93.27 25.8088 93.27C24.6688 93.27 23.7038 92.89 22.9138 92.13ZM30.8813 91.86H39.0863V94.74H37.8863V93H32.0813V94.74H30.8813V91.86ZM31.2413 91.86C31.7113 91.87 32.0713 91.725 32.3213 91.425C32.5813 91.115 32.7113 90.73 32.7113 90.27V85.5H38.0363V93H36.8363V86.67H33.9113V90.48C33.9113 91.1 33.6763 91.64 33.2063 92.1C32.7363 92.55 32.1313 92.775 31.3913 92.775H30.9563V91.86H31.2413ZM40.369 93V85.5H41.569V88.665H46.249V85.5H47.449V93H46.249V89.805H41.569V93H40.369ZM50.8977 87.18C50.3477 87.71 50.0727 88.395 50.0727 89.235C50.0727 90.075 50.3477 90.765 50.8977 91.305C51.4577 91.835 52.1377 92.1 52.9377 92.1C53.7377 92.1 54.4127 91.835 54.9627 91.305C55.5227 90.765 55.8027 90.075 55.8027 89.235C55.8027 88.395 55.5227 87.71 54.9627 87.18C54.4127 86.64 53.7377 86.37 52.9377 86.37C52.1377 86.37 51.4577 86.64 50.8977 87.18ZM50.0427 92.13C49.2627 91.37 48.8727 90.405 48.8727 89.235C48.8727 88.065 49.2627 87.1 50.0427 86.34C50.8327 85.58 51.7977 85.2 52.9377 85.2C54.0777 85.2 55.0377 85.58 55.8177 86.34C56.6077 87.1 57.0027 88.065 57.0027 89.235C57.0027 90.405 56.6077 91.37 55.8177 92.13C55.0377 92.89 54.0777 93.27 52.9377 93.27C51.7977 93.27 50.8327 92.89 50.0427 92.13ZM69.3052 93H58.4452V85.5H59.6452V91.86H63.2752V85.5H64.4752V91.86H68.1052V85.5H69.3052V93ZM77.3429 88.68C77.2829 87.98 76.9979 87.415 76.4879 86.985C75.9779 86.555 75.3629 86.34 74.6429 86.34C73.9529 86.34 73.3579 86.555 72.8579 86.985C72.3679 87.405 72.0779 87.97 71.9879 88.68H77.3429ZM71.9879 89.775C72.0779 90.485 72.3779 91.055 72.8879 91.485C73.3979 91.915 74.0029 92.13 74.7029 92.13C75.2429 92.13 75.7329 92.005 76.1729 91.755C76.6129 91.495 76.9429 91.14 77.1629 90.69L78.2729 91.125C77.9429 91.785 77.4579 92.31 76.8179 92.7C76.1879 93.08 75.4879 93.27 74.7179 93.27C73.5979 93.27 72.6529 92.89 71.8829 92.13C71.1229 91.36 70.7429 90.395 70.7429 89.235C70.7429 88.075 71.1179 87.115 71.8679 86.355C72.6179 85.585 73.5379 85.2 74.6279 85.2C75.7279 85.2 76.6579 85.575 77.4179 86.325C78.1779 87.065 78.5579 88 78.5579 89.13C78.5579 89.31 78.5329 89.525 78.4829 89.775H71.9879ZM79.9784 93V85.5H81.1784V88.665H85.8584V85.5H87.0584V93H85.8584V89.805H81.1784V93H79.9784ZM95.5321 93H94.3321V87L90.2071 93H88.7821V85.5H89.9821V91.35L94.0921 85.5H95.5321V93ZM103.564 88.68C103.504 87.98 103.219 87.415 102.709 86.985C102.199 86.555 101.584 86.34 100.864 86.34C100.174 86.34 99.5786 86.555 99.0786 86.985C98.5886 87.405 98.2986 87.97 98.2086 88.68H103.564ZM98.2086 89.775C98.2986 90.485 98.5986 91.055 99.1086 91.485C99.6186 91.915 100.224 92.13 100.924 92.13C101.464 92.13 101.954 92.005 102.394 91.755C102.834 91.495 103.164 91.14 103.384 90.69L104.494 91.125C104.164 91.785 103.679 92.31 103.039 92.7C102.409 93.08 101.709 93.27 100.939 93.27C99.8186 93.27 98.8736 92.89 98.1036 92.13C97.3436 91.36 96.9636 90.395 96.9636 89.235C96.9636 88.075 97.3386 87.115 98.0886 86.355C98.8386 85.585 99.7586 85.2 100.849 85.2C101.949 85.2 102.879 85.575 103.639 86.325C104.399 87.065 104.779 88 104.779 89.13C104.779 89.31 104.754 89.525 104.704 89.775H98.2086ZM110.242 85.5H111.442V96H110.242V85.5ZM112.267 87.195C111.717 87.735 111.442 88.425 111.442 89.265C111.442 90.095 111.717 90.78 112.267 91.32C112.827 91.86 113.507 92.13 114.307 92.13C115.107 92.13 115.782 91.86 116.332 91.32C116.892 90.78 117.172 90.095 117.172 89.265C117.172 88.425 116.892 87.735 116.332 87.195C115.782 86.655 115.107 86.385 114.307 86.385C113.507 86.385 112.827 86.655 112.267 87.195ZM111.937 92.16C111.227 91.39 110.872 90.425 110.872 89.265C110.872 88.095 111.227 87.13 111.937 86.37C112.647 85.61 113.522 85.23 114.562 85.23C115.632 85.23 116.532 85.61 117.262 86.37C118.002 87.13 118.372 88.095 118.372 89.265C118.372 90.425 118.002 91.39 117.262 92.16C116.532 92.92 115.632 93.3 114.562 93.3C113.522 93.3 112.647 92.92 111.937 92.16ZM124.368 89.535L122.223 89.79C121.213 89.92 120.708 90.305 120.708 90.945C120.708 91.285 120.848 91.56 121.128 91.77C121.408 91.97 121.783 92.07 122.253 92.07C122.893 92.07 123.403 91.88 123.783 91.5C124.173 91.12 124.368 90.62 124.368 90H124.893C124.893 90.91 124.613 91.665 124.053 92.265C123.493 92.865 122.793 93.165 121.953 93.165C121.243 93.165 120.653 92.965 120.183 92.565C119.723 92.155 119.493 91.63 119.493 90.99C119.503 90.38 119.723 89.875 120.153 89.475C120.593 89.075 121.198 88.83 121.968 88.74L124.368 88.47V88.17C124.368 87.71 124.188 87.31 123.828 86.97C123.478 86.63 123.048 86.46 122.538 86.46C122.078 86.46 121.668 86.585 121.308 86.835C120.958 87.085 120.738 87.41 120.648 87.81L119.508 87.45C119.708 86.82 120.078 86.31 120.618 85.92C121.168 85.53 121.788 85.335 122.478 85.335C123.318 85.335 124.043 85.605 124.653 86.145C125.263 86.675 125.568 87.31 125.568 88.05V93H124.368V89.535ZM127.263 86.985C127.523 86.445 127.903 86.02 128.403 85.71C128.913 85.39 129.478 85.23 130.098 85.23C130.878 85.23 131.528 85.455 132.048 85.905C132.578 86.345 132.843 86.9 132.843 87.57C132.843 87.92 132.753 88.245 132.573 88.545C132.403 88.835 132.163 89.065 131.853 89.235C132.203 89.415 132.478 89.675 132.678 90.015C132.888 90.345 132.993 90.71 132.993 91.11C132.993 91.73 132.718 92.245 132.168 92.655C131.618 93.065 130.933 93.27 130.113 93.27C129.413 93.27 128.783 93.11 128.223 92.79C127.673 92.46 127.263 92.01 126.993 91.44L128.103 90.9C128.273 91.27 128.533 91.565 128.883 91.785C129.243 91.995 129.648 92.1 130.098 92.1C130.578 92.1 130.978 91.99 131.298 91.77C131.628 91.55 131.793 91.275 131.793 90.945C131.793 90.605 131.653 90.32 131.373 90.09C131.103 89.86 130.763 89.745 130.353 89.745H129.153V88.755H130.353C130.723 88.755 131.028 88.655 131.268 88.455C131.518 88.255 131.643 88.005 131.643 87.705C131.643 87.335 131.493 87.03 131.193 86.79C130.893 86.54 130.518 86.415 130.068 86.415C129.698 86.415 129.363 86.51 129.063 86.7C128.773 86.89 128.553 87.15 128.403 87.48L127.263 86.985ZM134.412 93V85.5H135.612V88.665H140.292V85.5H141.492V93H140.292V89.805H135.612V93H134.412ZM144.941 87.18C144.391 87.71 144.116 88.395 144.116 89.235C144.116 90.075 144.391 90.765 144.941 91.305C145.501 91.835 146.181 92.1 146.981 92.1C147.781 92.1 148.456 91.835 149.006 91.305C149.566 90.765 149.846 90.075 149.846 89.235C149.846 88.395 149.566 87.71 149.006 87.18C148.456 86.64 147.781 86.37 146.981 86.37C146.181 86.37 145.501 86.64 144.941 87.18ZM144.086 92.13C143.306 91.37 142.916 90.405 142.916 89.235C142.916 88.065 143.306 87.1 144.086 86.34C144.876 85.58 145.841 85.2 146.981 85.2C148.121 85.2 149.081 85.58 149.861 86.34C150.651 87.1 151.046 88.065 151.046 89.235C151.046 90.405 150.651 91.37 149.861 92.13C149.081 92.89 148.121 93.27 146.981 93.27C145.841 93.27 144.876 92.89 144.086 92.13ZM152.488 93V85.5H157.543V86.64H153.688V93H152.488ZM160.688 87.18C160.138 87.71 159.863 88.395 159.863 89.235C159.863 90.075 160.138 90.765 160.688 91.305C161.248 91.835 161.928 92.1 162.728 92.1C163.528 92.1 164.203 91.835 164.753 91.305C165.313 90.765 165.593 90.075 165.593 89.235C165.593 88.395 165.313 87.71 164.753 87.18C164.203 86.64 163.528 86.37 162.728 86.37C161.928 86.37 161.248 86.64 160.688 87.18ZM159.833 92.13C159.053 91.37 158.663 90.405 158.663 89.235C158.663 88.065 159.053 87.1 159.833 86.34C160.623 85.58 161.588 85.2 162.728 85.2C163.868 85.2 164.828 85.58 165.608 86.34C166.398 87.1 166.793 88.065 166.793 89.235C166.793 90.405 166.398 91.37 165.608 92.13C164.828 92.89 163.868 93.27 162.728 93.27C161.588 93.27 160.623 92.89 159.833 92.13ZM177.963 85.5H179.298L174.933 96H173.598L174.858 92.73L171.873 85.5H173.208L175.578 91.38L177.963 85.5ZM180.613 85.5H181.813V96H180.613V85.5ZM182.638 87.195C182.088 87.735 181.813 88.425 181.813 89.265C181.813 90.095 182.088 90.78 182.638 91.32C183.198 91.86 183.878 92.13 184.678 92.13C185.478 92.13 186.153 91.86 186.703 91.32C187.263 90.78 187.543 90.095 187.543 89.265C187.543 88.425 187.263 87.735 186.703 87.195C186.153 86.655 185.478 86.385 184.678 86.385C183.878 86.385 183.198 86.655 182.638 87.195ZM182.308 92.16C181.598 91.39 181.243 90.425 181.243 89.265C181.243 88.095 181.598 87.13 182.308 86.37C183.018 85.61 183.893 85.23 184.933 85.23C186.003 85.23 186.903 85.61 187.633 86.37C188.373 87.13 188.743 88.095 188.743 89.265C188.743 90.425 188.373 91.39 187.633 92.16C186.903 92.92 186.003 93.3 184.933 93.3C183.893 93.3 183.018 92.92 182.308 92.16ZM191.904 87.18C191.354 87.71 191.079 88.395 191.079 89.235C191.079 90.075 191.354 90.765 191.904 91.305C192.464 91.835 193.144 92.1 193.944 92.1C194.744 92.1 195.419 91.835 195.969 91.305C196.529 90.765 196.809 90.075 196.809 89.235C196.809 88.395 196.529 87.71 195.969 87.18C195.419 86.64 194.744 86.37 193.944 86.37C193.144 86.37 192.464 86.64 191.904 87.18ZM191.049 92.13C190.269 91.37 189.879 90.405 189.879 89.235C189.879 88.065 190.269 87.1 191.049 86.34C191.839 85.58 192.804 85.2 193.944 85.2C195.084 85.2 196.044 85.58 196.824 86.34C197.614 87.1 198.009 88.065 198.009 89.235C198.009 90.405 197.614 91.37 196.824 92.13C196.044 92.89 195.084 93.27 193.944 93.27C192.804 93.27 191.839 92.89 191.049 92.13ZM203.666 86.595H200.651V88.71H203.801C204.141 88.71 204.426 88.62 204.656 88.44C204.886 88.25 205.001 88.015 205.001 87.735C205.001 87.405 204.871 87.135 204.611 86.925C204.361 86.705 204.046 86.595 203.666 86.595ZM203.816 89.715H200.651V91.905H203.816C204.196 91.905 204.511 91.805 204.761 91.605C205.021 91.395 205.151 91.14 205.151 90.84C205.151 90.51 205.021 90.24 204.761 90.03C204.511 89.82 204.196 89.715 203.816 89.715ZM203.966 93H199.451V85.5H203.816C204.496 85.5 205.061 85.7 205.511 86.1C205.971 86.49 206.201 86.985 206.201 87.585C206.201 87.915 206.111 88.22 205.931 88.5C205.761 88.77 205.521 88.98 205.211 89.13C205.561 89.3 205.836 89.545 206.036 89.865C206.246 90.185 206.351 90.545 206.351 90.945C206.351 91.525 206.121 92.015 205.661 92.415C205.211 92.805 204.646 93 203.966 93ZM207.771 93V85.5H208.971V88.665H213.651V85.5H214.851V93H213.651V89.805H208.971V93H207.771ZM219.005 89.16H221.795V86.67H219.005C218.585 86.67 218.23 86.79 217.94 87.03C217.66 87.26 217.52 87.545 217.52 87.885C217.52 88.255 217.66 88.56 217.94 88.8C218.23 89.04 218.585 89.16 219.005 89.16ZM219.875 90.255L217.745 93H216.275L218.495 90.18C217.855 90.14 217.325 89.9 216.905 89.46C216.485 89.02 216.275 88.49 216.275 87.87C216.275 87.2 216.52 86.64 217.01 86.19C217.5 85.73 218.11 85.5 218.84 85.5H222.995V93H221.795V90.255H219.875ZM235.513 93H234.313V87L230.188 93H228.763V85.5H229.963V91.35L234.073 85.5H235.513V93ZM247.737 85.5V93H246.537V86.64H242.487V93H241.287V85.5H247.737ZM249.461 85.5H250.661V96H249.461V85.5ZM251.486 87.195C250.936 87.735 250.661 88.425 250.661 89.265C250.661 90.095 250.936 90.78 251.486 91.32C252.046 91.86 252.726 92.13 253.526 92.13C254.326 92.13 255.001 91.86 255.551 91.32C256.111 90.78 256.391 90.095 256.391 89.265C256.391 88.425 256.111 87.735 255.551 87.195C255.001 86.655 254.326 86.385 253.526 86.385C252.726 86.385 252.046 86.655 251.486 87.195ZM251.156 92.16C250.446 91.39 250.091 90.425 250.091 89.265C250.091 88.095 250.446 87.13 251.156 86.37C251.866 85.61 252.741 85.23 253.781 85.23C254.851 85.23 255.751 85.61 256.481 86.37C257.221 87.13 257.591 88.095 257.591 89.265C257.591 90.425 257.221 91.39 256.481 92.16C255.751 92.92 254.851 93.3 253.781 93.3C252.741 93.3 251.866 92.92 251.156 92.16ZM260.751 87.18C260.201 87.71 259.926 88.395 259.926 89.235C259.926 90.075 260.201 90.765 260.751 91.305C261.311 91.835 261.991 92.1 262.791 92.1C263.591 92.1 264.266 91.835 264.816 91.305C265.376 90.765 265.656 90.075 265.656 89.235C265.656 88.395 265.376 87.71 264.816 87.18C264.266 86.64 263.591 86.37 262.791 86.37C261.991 86.37 261.311 86.64 260.751 87.18ZM259.896 92.13C259.116 91.37 258.726 90.405 258.726 89.235C258.726 88.065 259.116 87.1 259.896 86.34C260.686 85.58 261.651 85.2 262.791 85.2C263.931 85.2 264.891 85.58 265.671 86.34C266.461 87.1 266.856 88.065 266.856 89.235C266.856 90.405 266.461 91.37 265.671 92.13C264.891 92.89 263.931 93.27 262.791 93.27C261.651 93.27 260.686 92.89 259.896 92.13ZM270.009 87.18C269.469 87.71 269.199 88.395 269.199 89.235C269.199 90.075 269.469 90.765 270.009 91.305C270.549 91.835 271.209 92.1 271.989 92.1C272.549 92.1 273.054 91.965 273.504 91.695C273.954 91.425 274.299 91.045 274.539 90.555L275.634 91.05C275.304 91.73 274.814 92.27 274.164 92.67C273.514 93.07 272.789 93.27 271.989 93.27C270.869 93.27 269.924 92.89 269.154 92.13C268.384 91.37 267.999 90.405 267.999 89.235C267.999 88.065 268.384 87.1 269.154 86.34C269.924 85.58 270.869 85.2 271.989 85.2C272.799 85.2 273.534 85.405 274.194 85.815C274.854 86.225 275.344 86.785 275.664 87.495L274.569 87.99C274.339 87.48 273.994 87.085 273.534 86.805C273.074 86.515 272.559 86.37 271.989 86.37C271.209 86.37 270.549 86.64 270.009 87.18ZM282.968 85.5V86.64H280.418V93H279.218V86.64H276.668V85.5H282.968ZM286.02 87.18C285.47 87.71 285.195 88.395 285.195 89.235C285.195 90.075 285.47 90.765 286.02 91.305C286.58 91.835 287.26 92.1 288.06 92.1C288.86 92.1 289.535 91.835 290.085 91.305C290.645 90.765 290.925 90.075 290.925 89.235C290.925 88.395 290.645 87.71 290.085 87.18C289.535 86.64 288.86 86.37 288.06 86.37C287.26 86.37 286.58 86.64 286.02 87.18ZM285.165 92.13C284.385 91.37 283.995 90.405 283.995 89.235C283.995 88.065 284.385 87.1 285.165 86.34C285.955 85.58 286.92 85.2 288.06 85.2C289.2 85.2 290.16 85.58 290.94 86.34C291.73 87.1 292.125 88.065 292.125 89.235C292.125 90.405 291.73 91.37 290.94 92.13C290.16 92.89 289.2 93.27 288.06 93.27C286.92 93.27 285.955 92.89 285.165 92.13ZM303.73 85.5V93H302.53V85.5H303.73ZM298.81 85.5V87.99C298.81 88.55 298.97 88.99 299.29 89.31C299.62 89.63 300.04 89.79 300.55 89.79C301.1 89.79 301.565 89.62 301.945 89.28C302.335 88.93 302.53 88.51 302.53 88.02H303.16C303.16 88.83 302.88 89.525 302.32 90.105C301.76 90.675 301.06 90.96 300.22 90.96C299.48 90.96 298.86 90.71 298.36 90.21C297.86 89.7 297.61 89.045 297.61 88.245V85.5H298.81ZM311.147 85.5H312.482L308.117 96H306.782L308.042 92.73L305.057 85.5H306.392L308.762 91.38L311.147 85.5ZM319.677 85.5V86.64H317.127V93H315.927V86.64H313.377V85.5H319.677ZM325.414 89.64H322.204V91.83H325.414C325.794 91.83 326.109 91.73 326.359 91.53C326.609 91.32 326.734 91.065 326.734 90.765C326.734 90.445 326.609 90.18 326.359 89.97C326.109 89.75 325.794 89.64 325.414 89.64ZM325.564 88.5C326.234 88.5 326.794 88.72 327.244 89.16C327.704 89.6 327.934 90.14 327.934 90.78C327.934 91.41 327.704 91.94 327.244 92.37C326.794 92.79 326.234 93 325.564 93H321.004V85.5H322.204V88.5H325.564ZM21.19 97.44C20.89 97.73 20.495 97.95 20.005 98.1C19.525 98.25 18.91 98.38 18.16 98.49C17.17 98.63 16.38 99.055 15.79 99.765C15.21 100.475 14.88 101.44 14.8 102.66C15.1 102.1 15.54 101.655 16.12 101.325C16.71 100.995 17.345 100.83 18.025 100.83C19.035 100.83 19.88 101.185 20.56 101.895C21.24 102.595 21.58 103.465 21.58 104.505C21.58 105.585 21.215 106.485 20.485 107.205C19.755 107.915 18.83 108.27 17.71 108.27C16.96 108.27 16.27 108.1 15.64 107.76C15.02 107.41 14.55 106.925 14.23 106.305C13.81 105.515 13.6 104.505 13.6 103.275C13.6 101.535 13.975 100.185 14.725 99.225C15.485 98.255 16.57 97.655 17.98 97.425C18.44 97.345 18.79 97.28 19.03 97.23C19.28 97.18 19.55 97.1 19.84 96.99C20.13 96.88 20.36 96.745 20.53 96.585L21.19 97.44ZM14.95 104.43C14.95 105.16 15.225 105.785 15.775 106.305C16.325 106.815 16.99 107.07 17.77 107.07C18.52 107.07 19.14 106.83 19.63 106.35C20.13 105.86 20.38 105.25 20.38 104.52C20.38 103.79 20.125 103.19 19.615 102.72C19.115 102.24 18.47 102 17.68 102C16.9 102 16.25 102.235 15.73 102.705C15.21 103.165 14.95 103.74 14.95 104.43ZM24.7503 102.18C24.2003 102.71 23.9253 103.395 23.9253 104.235C23.9253 105.075 24.2003 105.765 24.7503 106.305C25.3103 106.835 25.9903 107.1 26.7903 107.1C27.5903 107.1 28.2653 106.835 28.8153 106.305C29.3753 105.765 29.6553 105.075 29.6553 104.235C29.6553 103.395 29.3753 102.71 28.8153 102.18C28.2653 101.64 27.5903 101.37 26.7903 101.37C25.9903 101.37 25.3103 101.64 24.7503 102.18ZM23.8953 107.13C23.1153 106.37 22.7253 105.405 22.7253 104.235C22.7253 103.065 23.1153 102.1 23.8953 101.34C24.6853 100.58 25.6503 100.2 26.7903 100.2C27.9303 100.2 28.8903 100.58 29.6703 101.34C30.4603 102.1 30.8553 103.065 30.8553 104.235C30.8553 105.405 30.4603 106.37 29.6703 107.13C28.8903 107.89 27.9303 108.27 26.7903 108.27C25.6503 108.27 24.6853 107.89 23.8953 107.13ZM32.2527 106.83C32.6727 106.83 32.9977 106.7 33.2277 106.44C33.4577 106.17 33.5727 105.83 33.5727 105.42V100.5H38.8977V108H37.6977V101.67H34.7727V105.615C34.7727 106.265 34.5527 106.825 34.1127 107.295C33.6727 107.765 33.1027 108 32.4027 108H31.9377V106.83H32.2527ZM45.028 104.64H41.818V106.83H45.028C45.408 106.83 45.723 106.73 45.973 106.53C46.223 106.32 46.348 106.065 46.348 105.765C46.348 105.445 46.223 105.18 45.973 104.97C45.723 104.75 45.408 104.64 45.028 104.64ZM45.178 103.5C45.848 103.5 46.408 103.72 46.858 104.16C47.318 104.6 47.548 105.14 47.548 105.78C47.548 106.41 47.318 106.94 46.858 107.37C46.408 107.79 45.848 108 45.178 108H40.618V100.5H41.818V103.5H45.178ZM59.8423 108H48.9823V100.5H50.1823V106.86H53.8123V100.5H55.0123V106.86H58.6423V100.5H59.8423V108ZM67.88 103.68C67.82 102.98 67.535 102.415 67.025 101.985C66.515 101.555 65.9 101.34 65.18 101.34C64.49 101.34 63.895 101.555 63.395 101.985C62.905 102.405 62.615 102.97 62.525 103.68H67.88ZM62.525 104.775C62.615 105.485 62.915 106.055 63.425 106.485C63.935 106.915 64.54 107.13 65.24 107.13C65.78 107.13 66.27 107.005 66.71 106.755C67.15 106.495 67.48 106.14 67.7 105.69L68.81 106.125C68.48 106.785 67.995 107.31 67.355 107.7C66.725 108.08 66.025 108.27 65.255 108.27C64.135 108.27 63.19 107.89 62.42 107.13C61.66 106.36 61.28 105.395 61.28 104.235C61.28 103.075 61.655 102.115 62.405 101.355C63.155 100.585 64.075 100.2 65.165 100.2C66.265 100.2 67.195 100.575 67.955 101.325C68.715 102.065 69.095 103 69.095 104.13C69.095 104.31 69.07 104.525 69.02 104.775H62.525ZM80.2435 100.5H81.5785L77.2135 111H75.8785L77.1385 107.73L74.1535 100.5H75.4885L77.8585 106.38L80.2435 100.5ZM82.8634 101.985C83.1234 101.445 83.5034 101.02 84.0034 100.71C84.5134 100.39 85.0784 100.23 85.6984 100.23C86.4784 100.23 87.1284 100.455 87.6484 100.905C88.1784 101.345 88.4434 101.9 88.4434 102.57C88.4434 102.92 88.3534 103.245 88.1734 103.545C88.0034 103.835 87.7634 104.065 87.4534 104.235C87.8034 104.415 88.0784 104.675 88.2784 105.015C88.4884 105.345 88.5934 105.71 88.5934 106.11C88.5934 106.73 88.3184 107.245 87.7684 107.655C87.2184 108.065 86.5334 108.27 85.7134 108.27C85.0134 108.27 84.3834 108.11 83.8234 107.79C83.2734 107.46 82.8634 107.01 82.5934 106.44L83.7034 105.9C83.8734 106.27 84.1334 106.565 84.4834 106.785C84.8434 106.995 85.2484 107.1 85.6984 107.1C86.1784 107.1 86.5784 106.99 86.8984 106.77C87.2284 106.55 87.3934 106.275 87.3934 105.945C87.3934 105.605 87.2534 105.32 86.9734 105.09C86.7034 104.86 86.3634 104.745 85.9534 104.745H84.7534V103.755H85.9534C86.3234 103.755 86.6284 103.655 86.8684 103.455C87.1184 103.255 87.2434 103.005 87.2434 102.705C87.2434 102.335 87.0934 102.03 86.7934 101.79C86.4934 101.54 86.1184 101.415 85.6684 101.415C85.2984 101.415 84.9634 101.51 84.6634 101.7C84.3734 101.89 84.1534 102.15 84.0034 102.48L82.8634 101.985ZM90.0126 108V100.5H91.2126V103.665H95.8926V100.5H97.0926V108H95.8926V104.805H91.2126V108H90.0126ZM103.376 104.535L101.231 104.79C100.221 104.92 99.7163 105.305 99.7163 105.945C99.7163 106.285 99.8563 106.56 100.136 106.77C100.416 106.97 100.791 107.07 101.261 107.07C101.901 107.07 102.411 106.88 102.791 106.5C103.181 106.12 103.376 105.62 103.376 105H103.901C103.901 105.91 103.621 106.665 103.061 107.265C102.501 107.865 101.801 108.165 100.961 108.165C100.251 108.165 99.6613 107.965 99.1913 107.565C98.7313 107.155 98.5013 106.63 98.5013 105.99C98.5113 105.38 98.7313 104.875 99.1613 104.475C99.6013 104.075 100.206 103.83 100.976 103.74L103.376 103.47V103.17C103.376 102.71 103.196 102.31 102.836 101.97C102.486 101.63 102.056 101.46 101.546 101.46C101.086 101.46 100.676 101.585 100.316 101.835C99.9663 102.085 99.7463 102.41 99.6563 102.81L98.5163 102.45C98.7163 101.82 99.0863 101.31 99.6263 100.92C100.176 100.53 100.796 100.335 101.486 100.335C102.326 100.335 103.051 100.605 103.661 101.145C104.271 101.675 104.576 102.31 104.576 103.05V108H103.376V104.535ZM112.182 100.5V101.64H109.632V108H108.432V101.64H105.882V100.5H112.182ZM117.919 104.64H114.709V106.83H117.919C118.299 106.83 118.614 106.73 118.864 106.53C119.114 106.32 119.239 106.065 119.239 105.765C119.239 105.445 119.114 105.18 118.864 104.97C118.614 104.75 118.299 104.64 117.919 104.64ZM118.069 103.5C118.739 103.5 119.299 103.72 119.749 104.16C120.209 104.6 120.439 105.14 120.439 105.78C120.439 106.41 120.209 106.94 119.749 107.37C119.299 107.79 118.739 108 118.069 108H113.509V100.5H114.709V103.5H118.069ZM132.366 100.5V108H131.166V101.64H127.116V108H125.916V100.5H132.366ZM134.09 100.5H135.29V111H134.09V100.5ZM136.115 102.195C135.565 102.735 135.29 103.425 135.29 104.265C135.29 105.095 135.565 105.78 136.115 106.32C136.675 106.86 137.355 107.13 138.155 107.13C138.955 107.13 139.63 106.86 140.18 106.32C140.74 105.78 141.02 105.095 141.02 104.265C141.02 103.425 140.74 102.735 140.18 102.195C139.63 101.655 138.955 101.385 138.155 101.385C137.355 101.385 136.675 101.655 136.115 102.195ZM135.785 107.16C135.075 106.39 134.72 105.425 134.72 104.265C134.72 103.095 135.075 102.13 135.785 101.37C136.495 100.61 137.37 100.23 138.41 100.23C139.48 100.23 140.38 100.61 141.11 101.37C141.85 102.13 142.22 103.095 142.22 104.265C142.22 105.425 141.85 106.39 141.11 107.16C140.38 107.92 139.48 108.3 138.41 108.3C137.37 108.3 136.495 107.92 135.785 107.16ZM145.38 102.18C144.83 102.71 144.555 103.395 144.555 104.235C144.555 105.075 144.83 105.765 145.38 106.305C145.94 106.835 146.62 107.1 147.42 107.1C148.22 107.1 148.895 106.835 149.445 106.305C150.005 105.765 150.285 105.075 150.285 104.235C150.285 103.395 150.005 102.71 149.445 102.18C148.895 101.64 148.22 101.37 147.42 101.37C146.62 101.37 145.94 101.64 145.38 102.18ZM144.525 107.13C143.745 106.37 143.355 105.405 143.355 104.235C143.355 103.065 143.745 102.1 144.525 101.34C145.315 100.58 146.28 100.2 147.42 100.2C148.56 100.2 149.52 100.58 150.3 101.34C151.09 102.1 151.485 103.065 151.485 104.235C151.485 105.405 151.09 106.37 150.3 107.13C149.52 107.89 148.56 108.27 147.42 108.27C146.28 108.27 145.315 107.89 144.525 107.13ZM156.971 108V100.5H158.171V103.665H162.851V100.5H164.051V108H162.851V104.805H158.171V108H156.971ZM170.334 104.535L168.189 104.79C167.179 104.92 166.674 105.305 166.674 105.945C166.674 106.285 166.814 106.56 167.094 106.77C167.374 106.97 167.749 107.07 168.219 107.07C168.859 107.07 169.369 106.88 169.749 106.5C170.139 106.12 170.334 105.62 170.334 105H170.859C170.859 105.91 170.579 106.665 170.019 107.265C169.459 107.865 168.759 108.165 167.919 108.165C167.209 108.165 166.619 107.965 166.149 107.565C165.689 107.155 165.459 106.63 165.459 105.99C165.469 105.38 165.689 104.875 166.119 104.475C166.559 104.075 167.164 103.83 167.934 103.74L170.334 103.47V103.17C170.334 102.71 170.154 102.31 169.794 101.97C169.444 101.63 169.014 101.46 168.504 101.46C168.044 101.46 167.634 101.585 167.274 101.835C166.924 102.085 166.704 102.41 166.614 102.81L165.474 102.45C165.674 101.82 166.044 101.31 166.584 100.92C167.134 100.53 167.754 100.335 168.444 100.335C169.284 100.335 170.009 100.605 170.619 101.145C171.229 101.675 171.534 102.31 171.534 103.05V108H170.334V104.535ZM184.12 108H173.26V100.5H174.46V106.86H178.09V100.5H179.29V106.86H182.92V100.5H184.12V108ZM192.157 103.68C192.097 102.98 191.812 102.415 191.302 101.985C190.792 101.555 190.177 101.34 189.457 101.34C188.767 101.34 188.172 101.555 187.672 101.985C187.182 102.405 186.892 102.97 186.802 103.68H192.157ZM186.802 104.775C186.892 105.485 187.192 106.055 187.702 106.485C188.212 106.915 188.817 107.13 189.517 107.13C190.057 107.13 190.547 107.005 190.987 106.755C191.427 106.495 191.757 106.14 191.977 105.69L193.087 106.125C192.757 106.785 192.272 107.31 191.632 107.7C191.002 108.08 190.302 108.27 189.532 108.27C188.412 108.27 187.467 107.89 186.697 107.13C185.937 106.36 185.557 105.395 185.557 104.235C185.557 103.075 185.932 102.115 186.682 101.355C187.432 100.585 188.352 100.2 189.442 100.2C190.542 100.2 191.472 100.575 192.232 101.325C192.992 102.065 193.372 103 193.372 104.13C193.372 104.31 193.347 104.525 193.297 104.775H186.802ZM206.156 97.44C205.856 97.73 205.461 97.95 204.971 98.1C204.491 98.25 203.876 98.38 203.126 98.49C202.136 98.63 201.346 99.055 200.756 99.765C200.176 100.475 199.846 101.44 199.766 102.66C200.066 102.1 200.506 101.655 201.086 101.325C201.676 100.995 202.311 100.83 202.991 100.83C204.001 100.83 204.846 101.185 205.526 101.895C206.206 102.595 206.546 103.465 206.546 104.505C206.546 105.585 206.181 106.485 205.451 107.205C204.721 107.915 203.796 108.27 202.676 108.27C201.926 108.27 201.236 108.1 200.606 107.76C199.986 107.41 199.516 106.925 199.196 106.305C198.776 105.515 198.566 104.505 198.566 103.275C198.566 101.535 198.941 100.185 199.691 99.225C200.451 98.255 201.536 97.655 202.946 97.425C203.406 97.345 203.756 97.28 203.996 97.23C204.246 97.18 204.516 97.1 204.806 96.99C205.096 96.88 205.326 96.745 205.496 96.585L206.156 97.44ZM199.916 104.43C199.916 105.16 200.191 105.785 200.741 106.305C201.291 106.815 201.956 107.07 202.736 107.07C203.486 107.07 204.106 106.83 204.596 106.35C205.096 105.86 205.346 105.25 205.346 104.52C205.346 103.79 205.091 103.19 204.581 102.72C204.081 102.24 203.436 102 202.646 102C201.866 102 201.216 102.235 200.696 102.705C200.176 103.165 199.916 103.74 199.916 104.43ZM207.991 100.5H209.191V111H207.991V100.5ZM210.016 102.195C209.466 102.735 209.191 103.425 209.191 104.265C209.191 105.095 209.466 105.78 210.016 106.32C210.576 106.86 211.256 107.13 212.056 107.13C212.856 107.13 213.531 106.86 214.081 106.32C214.641 105.78 214.921 105.095 214.921 104.265C214.921 103.425 214.641 102.735 214.081 102.195C213.531 101.655 212.856 101.385 212.056 101.385C211.256 101.385 210.576 101.655 210.016 102.195ZM209.686 107.16C208.976 106.39 208.621 105.425 208.621 104.265C208.621 103.095 208.976 102.13 209.686 101.37C210.396 100.61 211.271 100.23 212.311 100.23C213.381 100.23 214.281 100.61 215.011 101.37C215.751 102.13 216.121 103.095 216.121 104.265C216.121 105.425 215.751 106.39 215.011 107.16C214.281 107.92 213.381 108.3 212.311 108.3C211.271 108.3 210.396 107.92 209.686 107.16ZM222.117 104.535L219.972 104.79C218.962 104.92 218.457 105.305 218.457 105.945C218.457 106.285 218.597 106.56 218.877 106.77C219.157 106.97 219.532 107.07 220.002 107.07C220.642 107.07 221.152 106.88 221.532 106.5C221.922 106.12 222.117 105.62 222.117 105H222.642C222.642 105.91 222.362 106.665 221.802 107.265C221.242 107.865 220.542 108.165 219.702 108.165C218.992 108.165 218.402 107.965 217.932 107.565C217.472 107.155 217.242 106.63 217.242 105.99C217.252 105.38 217.472 104.875 217.902 104.475C218.342 104.075 218.947 103.83 219.717 103.74L222.117 103.47V103.17C222.117 102.71 221.937 102.31 221.577 101.97C221.227 101.63 220.797 101.46 220.287 101.46C219.827 101.46 219.417 101.585 219.057 101.835C218.707 102.085 218.487 102.41 218.397 102.81L217.257 102.45C217.457 101.82 217.827 101.31 218.367 100.92C218.917 100.53 219.537 100.335 220.227 100.335C221.067 100.335 221.792 100.605 222.402 101.145C223.012 101.675 223.317 102.31 223.317 103.05V108H222.117V104.535ZM230.922 100.5V101.64H228.372V108H227.172V101.64H224.622V100.5H230.922ZM233.959 102.18C233.419 102.71 233.149 103.395 233.149 104.235C233.149 105.075 233.419 105.765 233.959 106.305C234.499 106.835 235.159 107.1 235.939 107.1C236.499 107.1 237.004 106.965 237.454 106.695C237.904 106.425 238.249 106.045 238.489 105.555L239.584 106.05C239.254 106.73 238.764 107.27 238.114 107.67C237.464 108.07 236.739 108.27 235.939 108.27C234.819 108.27 233.874 107.89 233.104 107.13C232.334 106.37 231.949 105.405 231.949 104.235C231.949 103.065 232.334 102.1 233.104 101.34C233.874 100.58 234.819 100.2 235.939 100.2C236.749 100.2 237.484 100.405 238.144 100.815C238.804 101.225 239.294 101.785 239.614 102.495L238.519 102.99C238.289 102.48 237.944 102.085 237.484 101.805C237.024 101.515 236.509 101.37 235.939 101.37C235.159 101.37 234.499 101.64 233.959 102.18ZM246.918 100.5V101.64H244.368V108H243.168V101.64H240.618V100.5H246.918ZM252.46 101.595H249.445V103.71H252.595C252.935 103.71 253.22 103.62 253.45 103.44C253.68 103.25 253.795 103.015 253.795 102.735C253.795 102.405 253.665 102.135 253.405 101.925C253.155 101.705 252.84 101.595 252.46 101.595ZM252.61 104.715H249.445V106.905H252.61C252.99 106.905 253.305 106.805 253.555 106.605C253.815 106.395 253.945 106.14 253.945 105.84C253.945 105.51 253.815 105.24 253.555 105.03C253.305 104.82 252.99 104.715 252.61 104.715ZM252.76 108H248.245V100.5H252.61C253.29 100.5 253.855 100.7 254.305 101.1C254.765 101.49 254.995 101.985 254.995 102.585C254.995 102.915 254.905 103.22 254.725 103.5C254.555 103.77 254.315 103.98 254.005 104.13C254.355 104.3 254.63 104.545 254.83 104.865C255.04 105.185 255.145 105.545 255.145 105.945C255.145 106.525 254.915 107.015 254.455 107.415C254.005 107.805 253.44 108 252.76 108ZM258.29 102.18C257.74 102.71 257.465 103.395 257.465 104.235C257.465 105.075 257.74 105.765 258.29 106.305C258.85 106.835 259.53 107.1 260.33 107.1C261.13 107.1 261.805 106.835 262.355 106.305C262.915 105.765 263.195 105.075 263.195 104.235C263.195 103.395 262.915 102.71 262.355 102.18C261.805 101.64 261.13 101.37 260.33 101.37C259.53 101.37 258.85 101.64 258.29 102.18ZM257.435 107.13C256.655 106.37 256.265 105.405 256.265 104.235C256.265 103.065 256.655 102.1 257.435 101.34C258.225 100.58 259.19 100.2 260.33 100.2C261.47 100.2 262.43 100.58 263.21 101.34C264 102.1 264.395 103.065 264.395 104.235C264.395 105.405 264 106.37 263.21 107.13C262.43 107.89 261.47 108.27 260.33 108.27C259.19 108.27 258.225 107.89 257.435 107.13ZM265.478 107.22C265.478 106.95 265.568 106.725 265.748 106.545C265.928 106.355 266.158 106.26 266.438 106.26C266.708 106.26 266.933 106.355 267.113 106.545C267.303 106.725 267.398 106.95 267.398 107.22C267.398 107.5 267.308 107.73 267.128 107.91C266.948 108.09 266.718 108.18 266.438 108.18C266.168 108.18 265.938 108.09 265.748 107.91C265.568 107.73 265.478 107.5 265.478 107.22ZM274.415 108L276.26 104.055L272.45 97.5H273.86L276.92 102.9L279.47 97.5H280.88L275.84 108H274.415ZM281.78 106.86H289.985V109.74H288.785V108H282.98V109.74H281.78V106.86ZM282.14 106.86C282.61 106.87 282.97 106.725 283.22 106.425C283.48 106.115 283.61 105.73 283.61 105.27V100.5H288.935V108H287.735V101.67H284.81V105.48C284.81 106.1 284.575 106.64 284.105 107.1C283.635 107.55 283.03 107.775 282.29 107.775H281.855V106.86H282.14ZM295.827 104.535L293.682 104.79C292.672 104.92 292.167 105.305 292.167 105.945C292.167 106.285 292.307 106.56 292.587 106.77C292.867 106.97 293.242 107.07 293.712 107.07C294.352 107.07 294.862 106.88 295.242 106.5C295.632 106.12 295.827 105.62 295.827 105H296.352C296.352 105.91 296.072 106.665 295.512 107.265C294.952 107.865 294.252 108.165 293.412 108.165C292.702 108.165 292.112 107.965 291.642 107.565C291.182 107.155 290.952 106.63 290.952 105.99C290.962 105.38 291.182 104.875 291.612 104.475C292.052 104.075 292.657 103.83 293.427 103.74L295.827 103.47V103.17C295.827 102.71 295.647 102.31 295.287 101.97C294.937 101.63 294.507 101.46 293.997 101.46C293.537 101.46 293.127 101.585 292.767 101.835C292.417 102.085 292.197 102.41 292.107 102.81L290.967 102.45C291.167 101.82 291.537 101.31 292.077 100.92C292.627 100.53 293.247 100.335 293.937 100.335C294.777 100.335 295.502 100.605 296.112 101.145C296.722 101.675 297.027 102.31 297.027 103.05V108H295.827V104.535ZM304.873 100.5V108H303.673V100.5H304.873ZM299.953 100.5V102.99C299.953 103.55 300.113 103.99 300.433 104.31C300.763 104.63 301.183 104.79 301.693 104.79C302.243 104.79 302.708 104.62 303.088 104.28C303.478 103.93 303.673 103.51 303.673 103.02H304.303C304.303 103.83 304.023 104.525 303.463 105.105C302.903 105.675 302.203 105.96 301.363 105.96C300.623 105.96 300.003 105.71 299.503 105.21C299.003 104.7 298.753 104.045 298.753 103.245V100.5H299.953ZM313.354 108H312.154V102L308.029 108H306.604V100.5H307.804V106.35L311.914 100.5H313.354V108ZM316.226 105.03H315.101L315.026 97.5H316.301L316.226 105.03ZM314.711 107.22C314.711 106.95 314.801 106.725 314.981 106.545C315.161 106.355 315.386 106.26 315.656 106.26C315.936 106.26 316.166 106.355 316.346 106.545C316.536 106.725 316.631 106.95 316.631 107.22C316.631 107.5 316.541 107.73 316.361 107.91C316.181 108.09 315.951 108.18 315.671 108.18C315.401 108.18 315.171 108.09 314.981 107.91C314.801 107.73 314.711 107.5 314.711 107.22ZM320.806 101.055V104.25C320.806 105.33 320.561 106.265 320.071 107.055C319.591 107.845 318.961 108.38 318.181 108.66L317.716 107.52C318.266 107.33 318.716 106.935 319.066 106.335C319.426 105.735 319.606 105.015 319.606 104.175V101.13C319.606 100.25 319.411 99.505 319.021 98.895C318.641 98.275 318.156 97.89 317.566 97.74L318.016 96.6C318.836 96.84 319.506 97.365 320.026 98.175C320.546 98.975 320.806 99.935 320.806 101.055Z" fill="white"/>
</svg>
