<svg width="872" height="236" viewBox="0 0 872 236" fill="none" xmlns="http://www.w3.org/2000/svg">
<path d="M45.9 230H39.45V212.5H45.9C48.3333 212.5 50.3833 213.325 52.05 214.975C53.7333 216.608 54.575 218.692 54.575 221.225C54.575 223.758 53.7333 225.858 52.05 227.525C50.3833 229.175 48.3333 230 45.9 230ZM45.65 214.425H41.45V228.075H45.65C47.5833 228.075 49.2167 227.433 50.55 226.15C51.9 224.867 52.575 223.225 52.575 221.225C52.575 219.242 51.9 217.617 50.55 216.35C49.2167 215.067 47.5833 214.425 45.65 214.425ZM67.4549 222.8C67.3549 221.633 66.8799 220.692 66.0299 219.975C65.1799 219.258 64.1549 218.9 62.9549 218.9C61.8049 218.9 60.8132 219.258 59.9799 219.975C59.1632 220.675 58.6799 221.617 58.5299 222.8H67.4549ZM58.5299 224.625C58.6799 225.808 59.1799 226.758 60.0299 227.475C60.8799 228.192 61.8882 228.55 63.0549 228.55C63.9549 228.55 64.7715 228.342 65.5049 227.925C66.2382 227.492 66.7882 226.9 67.1549 226.15L69.0049 226.875C68.4549 227.975 67.6466 228.85 66.5799 229.5C65.5299 230.133 64.3632 230.45 63.0799 230.45C61.2132 230.45 59.6382 229.817 58.3549 228.55C57.0882 227.267 56.4549 225.658 56.4549 223.725C56.4549 221.792 57.0799 220.192 58.3299 218.925C59.5799 217.642 61.1132 217 62.9299 217C64.7632 217 66.3132 217.625 67.5799 218.875C68.8465 220.108 69.4799 221.667 69.4799 223.55C69.4799 223.85 69.4382 224.208 69.3549 224.625H58.5299ZM76.2975 224.6C73.1975 224.067 71.6475 222.842 71.6475 220.925C71.6475 219.842 72.0641 218.95 72.8975 218.25C73.7308 217.533 74.7725 217.175 76.0225 217.175C77.1725 217.175 78.2058 217.492 79.1225 218.125C80.0558 218.758 80.7225 219.608 81.1225 220.675L79.2225 221.35C78.9391 220.617 78.5141 220.042 77.9475 219.625C77.3975 219.208 76.7725 219 76.0725 219C75.3725 219 74.7891 219.175 74.3225 219.525C73.8725 219.875 73.6475 220.308 73.6475 220.825C73.6475 221.308 73.8725 221.7 74.3225 222C74.7891 222.3 75.5308 222.542 76.5475 222.725C79.8141 223.292 81.4475 224.575 81.4475 226.575C81.4475 227.625 80.9891 228.508 80.0725 229.225C79.1725 229.925 78.0725 230.275 76.7725 230.275C75.5558 230.275 74.4475 229.975 73.4475 229.375C72.4641 228.775 71.7641 227.967 71.3475 226.95L73.1725 226.175C73.4891 226.892 73.9558 227.458 74.5725 227.875C75.2058 228.292 75.9225 228.5 76.7225 228.5C77.5058 228.5 78.1558 228.325 78.6725 227.975C79.1891 227.608 79.4475 227.15 79.4475 226.6C79.4475 225.633 78.3975 224.967 76.2975 224.6ZM83.8104 215.075C83.5437 214.808 83.4104 214.483 83.4104 214.1C83.4104 213.717 83.5437 213.4 83.8104 213.15C84.077 212.883 84.3937 212.75 84.7604 212.75C85.1437 212.75 85.4604 212.883 85.7104 213.15C85.977 213.4 86.1104 213.717 86.1104 214.1C86.1104 214.483 85.977 214.808 85.7104 215.075C85.4604 215.325 85.1437 215.45 84.7604 215.45C84.3937 215.45 84.077 215.325 83.8104 215.075ZM83.7604 230V217.5H85.7604V230H83.7604ZM98.0693 218.825C99.1693 219.992 99.7193 221.467 99.7193 223.25C99.7193 225.033 99.1693 226.517 98.0693 227.7C96.986 228.867 95.6443 229.45 94.0443 229.45C92.3943 229.45 90.9943 228.867 89.8443 227.7C88.711 226.517 88.1443 225.042 88.1443 223.275C88.1443 221.492 88.711 220.008 89.8443 218.825C90.9943 217.642 92.3943 217.05 94.0443 217.05C95.6443 217.05 96.986 217.642 98.0693 218.825ZM97.4443 226.325C98.2777 225.525 98.6943 224.508 98.6943 223.275C98.6943 222.042 98.2777 221.033 97.4443 220.25C96.6277 219.45 95.6193 219.05 94.4193 219.05C93.2193 219.05 92.2027 219.45 91.3693 220.25C90.5527 221.033 90.1443 222.042 90.1443 223.275C90.1443 224.508 90.5527 225.525 91.3693 226.325C92.2027 227.108 93.2193 227.5 94.4193 227.5C95.6193 227.5 96.6277 227.108 97.4443 226.325ZM98.6943 230.25V217.5H100.694V230.25C100.694 231.867 100.103 233.183 98.9193 234.2C97.7527 235.217 96.286 235.725 94.5193 235.725C93.1693 235.725 91.9443 235.375 90.8443 234.675C89.761 233.975 88.9527 233.017 88.4193 231.8L90.1693 230.825C90.5527 231.708 91.1277 232.408 91.8943 232.925C92.661 233.442 93.5193 233.7 94.4693 233.7C95.6693 233.7 96.6693 233.375 97.4693 232.725C98.286 232.075 98.6943 231.25 98.6943 230.25ZM103.586 230V217.5H105.586V230H103.586ZM112.286 230V222.6C112.286 221.533 111.986 220.692 111.386 220.075C110.802 219.458 110.036 219.15 109.086 219.15C108.119 219.15 107.294 219.492 106.611 220.175C105.927 220.842 105.586 221.65 105.586 222.6H104.486C104.486 221.133 104.986 219.875 105.986 218.825C106.986 217.758 108.202 217.225 109.636 217.225C110.952 217.225 112.052 217.683 112.936 218.6C113.836 219.517 114.286 220.708 114.286 222.175V230H112.286Z" fill="white"/>
<path d="M18.9 186.45H13.45V193.5H18.9C20.0167 193.5 20.95 193.158 21.7 192.475C22.45 191.792 22.825 190.942 22.825 189.925C22.825 188.925 22.45 188.1 21.7 187.45C20.9667 186.783 20.0333 186.45 18.9 186.45ZM19.6 195.3L24.9 202H22.475L17.275 195.45H13.45V202H11.45V184.5H19.15C20.8 184.5 22.1667 185.017 23.25 186.05C24.35 187.067 24.9 188.367 24.9 189.95C24.9 191.417 24.3917 192.658 23.375 193.675C22.3583 194.692 21.1 195.233 19.6 195.3ZM34.382 196.225L30.807 196.65C29.1237 196.85 28.282 197.492 28.282 198.575C28.282 199.142 28.5154 199.6 28.982 199.95C29.4487 200.283 30.0737 200.45 30.857 200.45C31.9237 200.45 32.7737 200.133 33.407 199.5C34.057 198.867 34.382 198.033 34.382 197H35.257C35.257 198.517 34.7904 199.775 33.857 200.775C32.9237 201.775 31.757 202.275 30.357 202.275C29.1737 202.275 28.1904 201.942 27.407 201.275C26.6404 200.592 26.257 199.717 26.257 198.65C26.2737 197.617 26.6404 196.775 27.357 196.125C28.0904 195.458 29.0987 195.05 30.382 194.9L34.382 194.45V193.95C34.382 193.183 34.082 192.517 33.482 191.95C32.882 191.383 32.1487 191.1 31.282 191.1C30.4987 191.1 29.807 191.308 29.207 191.725C28.607 192.142 28.2154 192.683 28.032 193.35L26.182 192.75C26.4987 191.7 27.1154 190.85 28.032 190.2C28.9487 189.55 29.9904 189.225 31.157 189.225C32.5737 189.225 33.7987 189.675 34.832 190.575C35.8654 191.458 36.382 192.517 36.382 193.75V202H34.382V196.225ZM54.7826 202V194.175C54.7826 193.225 54.5243 192.483 54.0076 191.95C53.5076 191.417 52.8576 191.15 52.0576 191.15C51.2243 191.15 50.5076 191.45 49.9076 192.05C49.3076 192.633 49.0076 193.342 49.0076 194.175H47.9326C47.9326 192.808 48.3826 191.642 49.2826 190.675C50.1826 189.708 51.291 189.225 52.6076 189.225C53.791 189.225 54.7826 189.642 55.5826 190.475C56.3826 191.308 56.7826 192.4 56.7826 193.75V202H54.7826ZM39.2576 202V189.5H41.2576V202H39.2576ZM47.0076 202V194.175C47.0076 193.225 46.7493 192.483 46.2326 191.95C45.7326 191.417 45.091 191.15 44.3076 191.15C43.4576 191.15 42.7326 191.45 42.1326 192.05C41.5493 192.633 41.2576 193.342 41.2576 194.175H40.1576C40.1576 192.808 40.6076 191.642 41.5076 190.675C42.4076 189.708 43.5243 189.225 44.8576 189.225C46.041 189.225 47.0243 189.642 47.8076 190.475C48.6076 191.308 49.0076 192.4 49.0076 193.75V202H47.0076ZM73.5061 186.45H68.4061V194.125H73.5061C74.7394 194.125 75.7727 193.758 76.6061 193.025C77.4394 192.275 77.8561 191.35 77.8561 190.25C77.8561 189.15 77.4394 188.242 76.6061 187.525C75.7727 186.808 74.7394 186.45 73.5061 186.45ZM73.5061 196.075H68.4061V202H66.4061V184.5H73.7561C75.4894 184.5 76.9394 185.05 78.1061 186.15C79.2727 187.233 79.8561 188.6 79.8561 190.25C79.8561 191.867 79.2394 193.242 78.0061 194.375C76.7727 195.508 75.2727 196.075 73.5061 196.075ZM82.0311 202V189.5H84.0311V202H82.0311ZM87.9811 191.3C86.8811 191.3 85.9394 191.625 85.1561 192.275C84.3894 192.925 84.0061 193.7 84.0061 194.6H82.9311C82.9311 193.217 83.4061 191.992 84.3561 190.925C85.3061 189.842 86.4477 189.3 87.7811 189.3H88.4811V191.3H87.9811ZM97.8098 196.225L94.2348 196.65C92.5514 196.85 91.7098 197.492 91.7098 198.575C91.7098 199.142 91.9431 199.6 92.4098 199.95C92.8764 200.283 93.5014 200.45 94.2848 200.45C95.3514 200.45 96.2014 200.133 96.8348 199.5C97.4848 198.867 97.8098 198.033 97.8098 197H98.6848C98.6848 198.517 98.2181 199.775 97.2848 200.775C96.3514 201.775 95.1848 202.275 93.7848 202.275C92.6014 202.275 91.6181 201.942 90.8348 201.275C90.0681 200.592 89.6848 199.717 89.6848 198.65C89.7014 197.617 90.0681 196.775 90.7848 196.125C91.5181 195.458 92.5264 195.05 93.8098 194.9L97.8098 194.45V193.95C97.8098 193.183 97.5098 192.517 96.9098 191.95C96.3098 191.383 95.5764 191.1 94.7098 191.1C93.9264 191.1 93.2348 191.308 92.6348 191.725C92.0348 192.142 91.6431 192.683 91.4598 193.35L89.6098 192.75C89.9264 191.7 90.5431 190.85 91.4598 190.2C92.3764 189.55 93.4181 189.225 94.5848 189.225C96.0014 189.225 97.2264 189.675 98.2598 190.575C99.2931 191.458 99.8098 192.517 99.8098 193.75V202H97.8098V196.225ZM111.477 189.5H113.702L106.427 207H104.202L106.302 201.55L101.327 189.5H103.552L107.502 199.3L111.477 189.5ZM125.905 194.8C125.805 193.633 125.33 192.692 124.48 191.975C123.63 191.258 122.605 190.9 121.405 190.9C120.255 190.9 119.263 191.258 118.43 191.975C117.613 192.675 117.13 193.617 116.98 194.8H125.905ZM116.98 196.625C117.13 197.808 117.63 198.758 118.48 199.475C119.33 200.192 120.338 200.55 121.505 200.55C122.405 200.55 123.222 200.342 123.955 199.925C124.688 199.492 125.238 198.9 125.605 198.15L127.455 198.875C126.905 199.975 126.097 200.85 125.03 201.5C123.98 202.133 122.813 202.45 121.53 202.45C119.663 202.45 118.088 201.817 116.805 200.55C115.538 199.267 114.905 197.658 114.905 195.725C114.905 193.792 115.53 192.192 116.78 190.925C118.03 189.642 119.563 189 121.38 189C123.213 189 124.763 189.625 126.03 190.875C127.297 192.108 127.93 193.667 127.93 195.55C127.93 195.85 127.888 196.208 127.805 196.625H116.98ZM130.298 202V189.5H132.298V202H130.298ZM136.248 191.3C135.148 191.3 134.206 191.625 133.423 192.275C132.656 192.925 132.273 193.7 132.273 194.6H131.198C131.198 193.217 131.673 191.992 132.623 190.925C133.573 189.842 134.714 189.3 136.048 189.3H136.748V191.3H136.248Z" fill="white"/>
<path d="M166.9 214.45H161.45V221.5H166.9C168.017 221.5 168.95 221.158 169.7 220.475C170.45 219.792 170.825 218.942 170.825 217.925C170.825 216.925 170.45 216.1 169.7 215.45C168.967 214.783 168.033 214.45 166.9 214.45ZM167.6 223.3L172.9 230H170.475L165.275 223.45H161.45V230H159.45V212.5H167.15C168.8 212.5 170.167 213.017 171.25 214.05C172.35 215.067 172.9 216.367 172.9 217.95C172.9 219.417 172.392 220.658 171.375 221.675C170.358 222.692 169.1 223.233 167.6 223.3ZM175.27 215.075C175.004 214.808 174.87 214.483 174.87 214.1C174.87 213.717 175.004 213.4 175.27 213.15C175.537 212.883 175.854 212.75 176.22 212.75C176.604 212.75 176.92 212.883 177.17 213.15C177.437 213.4 177.57 213.717 177.57 214.1C177.57 214.483 177.437 214.808 177.17 215.075C176.92 215.325 176.604 215.45 176.22 215.45C175.854 215.45 175.537 215.325 175.27 215.075ZM175.22 230V217.5H177.22V230H175.22ZM187.704 224.225L184.129 224.65C182.446 224.85 181.604 225.492 181.604 226.575C181.604 227.142 181.838 227.6 182.304 227.95C182.771 228.283 183.396 228.45 184.179 228.45C185.246 228.45 186.096 228.133 186.729 227.5C187.379 226.867 187.704 226.033 187.704 225H188.579C188.579 226.517 188.113 227.775 187.179 228.775C186.246 229.775 185.079 230.275 183.679 230.275C182.496 230.275 181.513 229.942 180.729 229.275C179.963 228.592 179.579 227.717 179.579 226.65C179.596 225.617 179.963 224.775 180.679 224.125C181.413 223.458 182.421 223.05 183.704 222.9L187.704 222.45V221.95C187.704 221.183 187.404 220.517 186.804 219.95C186.204 219.383 185.471 219.1 184.604 219.1C183.821 219.1 183.129 219.308 182.529 219.725C181.929 220.142 181.538 220.683 181.354 221.35L179.504 220.75C179.821 219.7 180.438 218.85 181.354 218.2C182.271 217.55 183.313 217.225 184.479 217.225C185.896 217.225 187.121 217.675 188.154 218.575C189.188 219.458 189.704 220.517 189.704 221.75V230H187.704V224.225ZM192.58 230V217.5H194.58V230H192.58ZM201.28 230V222.6C201.28 221.533 200.98 220.692 200.38 220.075C199.797 219.458 199.03 219.15 198.08 219.15C197.113 219.15 196.288 219.492 195.605 220.175C194.922 220.842 194.58 221.65 194.58 222.6H193.48C193.48 221.133 193.98 219.875 194.98 218.825C195.98 217.758 197.197 217.225 198.63 217.225C199.947 217.225 201.047 217.683 201.93 218.6C202.83 219.517 203.28 220.708 203.28 222.175V230H201.28ZM213.754 224.225L210.179 224.65C208.496 224.85 207.654 225.492 207.654 226.575C207.654 227.142 207.887 227.6 208.354 227.95C208.821 228.283 209.446 228.45 210.229 228.45C211.296 228.45 212.146 228.133 212.779 227.5C213.429 226.867 213.754 226.033 213.754 225H214.629C214.629 226.517 214.162 227.775 213.229 228.775C212.296 229.775 211.129 230.275 209.729 230.275C208.546 230.275 207.562 229.942 206.779 229.275C206.012 228.592 205.629 227.717 205.629 226.65C205.646 225.617 206.012 224.775 206.729 224.125C207.462 223.458 208.471 223.05 209.754 222.9L213.754 222.45V221.95C213.754 221.183 213.454 220.517 212.854 219.95C212.254 219.383 211.521 219.1 210.654 219.1C209.871 219.1 209.179 219.308 208.579 219.725C207.979 220.142 207.587 220.683 207.404 221.35L205.554 220.75C205.871 219.7 206.487 218.85 207.404 218.2C208.321 217.55 209.362 217.225 210.529 217.225C211.946 217.225 213.171 217.675 214.204 218.575C215.237 219.458 215.754 220.517 215.754 221.75V230H213.754V224.225ZM227.13 228.75V230.425H217.905V228.75H227.13ZM236.749 214.45H231.299V221.5H236.749C237.865 221.5 238.799 221.158 239.549 220.475C240.299 219.792 240.674 218.942 240.674 217.925C240.674 216.925 240.299 216.1 239.549 215.45C238.815 214.783 237.882 214.45 236.749 214.45ZM237.449 223.3L242.749 230H240.324L235.124 223.45H231.299V230H229.299V212.5H236.999C238.649 212.5 240.015 213.017 241.099 214.05C242.199 215.067 242.749 216.367 242.749 217.95C242.749 219.417 242.24 220.658 241.224 221.675C240.207 222.692 238.949 223.233 237.449 223.3ZM245.119 215.075C244.852 214.808 244.719 214.483 244.719 214.1C244.719 213.717 244.852 213.4 245.119 213.15C245.386 212.883 245.702 212.75 246.069 212.75C246.452 212.75 246.769 212.883 247.019 213.15C247.286 213.4 247.419 213.717 247.419 214.1C247.419 214.483 247.286 214.808 247.019 215.075C246.769 215.325 246.452 215.45 246.069 215.45C245.702 215.45 245.386 215.325 245.119 215.075ZM245.069 230V217.5H247.069V230H245.069ZM265.478 230V222.175C265.478 221.225 265.22 220.483 264.703 219.95C264.203 219.417 263.553 219.15 262.753 219.15C261.92 219.15 261.203 219.45 260.603 220.05C260.003 220.633 259.703 221.342 259.703 222.175H258.628C258.628 220.808 259.078 219.642 259.978 218.675C260.878 217.708 261.986 217.225 263.303 217.225C264.486 217.225 265.478 217.642 266.278 218.475C267.078 219.308 267.478 220.4 267.478 221.75V230H265.478ZM249.953 230V217.5H251.953V230H249.953ZM257.703 230V222.175C257.703 221.225 257.445 220.483 256.928 219.95C256.428 219.417 255.786 219.15 255.003 219.15C254.153 219.15 253.428 219.45 252.828 220.05C252.245 220.633 251.953 221.342 251.953 222.175H250.853C250.853 220.808 251.303 219.642 252.203 218.675C253.103 217.708 254.22 217.225 255.553 217.225C256.736 217.225 257.72 217.642 258.503 218.475C259.303 219.308 259.703 220.4 259.703 221.75V230H257.703Z" fill="white"/>
<path d="M31 224L19.6611 217.453L19.6611 230.547L31 224ZM12.5 224H11.3661V225.134H12.5V224ZM12.5 209.5L11.3661 209.5L11.3661 224H12.5H13.6339L13.6339 209.5L12.5 209.5ZM12.5 224V225.134H20.795V224V222.866H12.5V224Z" fill="white"/>
<path d="M151 224L139.661 217.453V230.547L151 224ZM123 224L123 225.134H140.795V224V222.866H123L123 224Z" fill="white"/>
<path d="M1.45 27V9.5H13.3V11.4H3.45V27H1.45ZM15.4131 25.05C16.1131 25.05 16.6548 24.8333 17.0381 24.4C17.4214 23.95 17.6131 23.3833 17.6131 22.7V14.5H26.4881V27H24.4881V16.45H19.6131V23.025C19.6131 24.1083 19.2464 25.0417 18.5131 25.825C17.7798 26.6083 16.8298 27 15.6631 27H14.8881V25.05H15.4131ZM36.9553 21.225L33.3803 21.65C31.6969 21.8667 30.8553 22.5083 30.8553 23.575C30.8553 24.1417 31.0886 24.6 31.5553 24.95C32.0219 25.2833 32.6469 25.45 33.4303 25.45C34.4969 25.45 35.3469 25.1333 35.9803 24.5C36.6303 23.8667 36.9553 23.0333 36.9553 22H37.8303C37.8303 23.5167 37.3636 24.775 36.4303 25.775C35.4969 26.775 34.3303 27.275 32.9303 27.275C31.7469 27.275 30.7636 26.9417 29.9803 26.275C29.2136 25.5917 28.8303 24.7167 28.8303 23.65C28.8469 22.6333 29.2136 21.7917 29.9303 21.125C30.6636 20.4583 31.6719 20.05 32.9553 19.9L36.9553 19.45V18.95C36.9553 18.1833 36.6553 17.5167 36.0553 16.95C35.4719 16.3833 34.7553 16.1 33.9053 16.1C33.1386 16.1 32.4553 16.3083 31.8553 16.725C31.2719 17.1417 30.9053 17.6833 30.7553 18.35L28.8553 17.75C29.1886 16.7 29.8053 15.85 30.7053 15.2C31.6219 14.55 32.6553 14.225 33.8053 14.225C35.2053 14.225 36.4136 14.675 37.4303 15.575C38.4469 16.4583 38.9553 17.5167 38.9553 18.75V27H36.9553V21.225ZM48.8559 16.325H43.8309V19.85H49.0809C49.6475 19.85 50.1225 19.7 50.5059 19.4C50.8892 19.0833 51.0809 18.6917 51.0809 18.225C51.0809 17.675 50.8642 17.225 50.4309 16.875C50.0142 16.5083 49.4892 16.325 48.8559 16.325ZM49.1059 21.525H43.8309V25.175H49.1059C49.7392 25.175 50.2642 25.0083 50.6809 24.675C51.1142 24.325 51.3309 23.9 51.3309 23.4C51.3309 22.85 51.1142 22.4 50.6809 22.05C50.2642 21.7 49.7392 21.525 49.1059 21.525ZM49.3559 27H41.8309V14.5H49.1059C50.2392 14.5 51.1809 14.8333 51.9309 15.5C52.6975 16.15 53.0809 16.975 53.0809 17.975C53.0809 18.525 52.9309 19.0333 52.6309 19.5C52.3475 19.95 51.9475 20.3 51.4309 20.55C52.0142 20.8333 52.4725 21.2417 52.8059 21.775C53.1559 22.3083 53.3309 22.9083 53.3309 23.575C53.3309 24.5417 52.9475 25.3583 52.1809 26.025C51.4309 26.675 50.4892 27 49.3559 27ZM55.698 27V14.5H57.698V19.775H65.498V14.5H67.498V27H65.498V21.675H57.698V27H55.698ZM83.7459 27V14.5H85.7459V27H83.7459ZM77.4709 21.4H72.2959V25.05H77.4709C78.1042 25.05 78.6292 24.8833 79.0459 24.55C79.4626 24.2 79.6709 23.775 79.6709 23.275C79.6709 22.7417 79.4626 22.3 79.0459 21.95C78.6292 21.5833 78.1042 21.4 77.4709 21.4ZM77.7209 19.5C78.8376 19.5 79.7709 19.8667 80.5209 20.6C81.2876 21.3333 81.6709 22.2333 81.6709 23.3C81.6709 24.35 81.2876 25.2333 80.5209 25.95C79.7709 26.65 78.8376 27 77.7209 27H70.2959V14.5H72.2959V19.5H77.7209ZM94.3076 12.6C93.1576 12.6 92.1826 12.225 91.3826 11.475C90.5826 10.7083 90.1826 9.79167 90.1826 8.725H91.8576C91.8576 9.39167 92.091 9.94167 92.5576 10.375C93.0243 10.8083 93.616 11.025 94.3326 11.025C95.066 11.025 95.6826 10.8 96.1826 10.35C96.6993 9.9 96.9576 9.35833 96.9576 8.725H98.6326C98.6326 9.75833 98.1993 10.6667 97.3326 11.45C96.4826 12.2167 95.4743 12.6 94.3076 12.6ZM99.8826 27H97.8826V17L91.0076 27H88.6326V14.5H90.6326V24.25L97.4826 14.5H99.8826V27ZM109.507 27V14.5H117.932V16.4H111.507V27H109.507ZM127.898 21.225L124.323 21.65C122.639 21.8667 121.798 22.5083 121.798 23.575C121.798 24.1417 122.031 24.6 122.498 24.95C122.964 25.2833 123.589 25.45 124.373 25.45C125.439 25.45 126.289 25.1333 126.923 24.5C127.573 23.8667 127.898 23.0333 127.898 22H128.773C128.773 23.5167 128.306 24.775 127.373 25.775C126.439 26.775 125.273 27.275 123.873 27.275C122.689 27.275 121.706 26.9417 120.923 26.275C120.156 25.5917 119.773 24.7167 119.773 23.65C119.789 22.6333 120.156 21.7917 120.873 21.125C121.606 20.4583 122.614 20.05 123.898 19.9L127.898 19.45V18.95C127.898 18.1833 127.598 17.5167 126.998 16.95C126.414 16.3833 125.698 16.1 124.848 16.1C124.081 16.1 123.398 16.3083 122.798 16.725C122.214 17.1417 121.848 17.6833 121.698 18.35L119.798 17.75C120.131 16.7 120.748 15.85 121.648 15.2C122.564 14.55 123.598 14.225 124.748 14.225C126.148 14.225 127.356 14.675 128.373 15.575C129.389 16.4583 129.898 17.5167 129.898 18.75V27H127.898V21.225ZM132.773 14.5H134.773V32H132.773V14.5ZM136.148 17.325C135.232 18.225 134.773 19.375 134.773 20.775C134.773 22.1583 135.232 23.3 136.148 24.2C137.082 25.1 138.215 25.55 139.548 25.55C140.882 25.55 142.007 25.1 142.923 24.2C143.857 23.3 144.323 22.1583 144.323 20.775C144.323 19.375 143.857 18.225 142.923 17.325C142.007 16.425 140.882 15.975 139.548 15.975C138.215 15.975 137.082 16.425 136.148 17.325ZM135.598 25.6C134.415 24.3167 133.823 22.7083 133.823 20.775C133.823 18.825 134.415 17.2167 135.598 15.95C136.782 14.6833 138.24 14.05 139.973 14.05C141.757 14.05 143.257 14.6833 144.473 15.95C145.707 17.2167 146.323 18.825 146.323 20.775C146.323 22.7083 145.707 24.3167 144.473 25.6C143.257 26.8667 141.757 27.5 139.973 27.5C138.24 27.5 136.782 26.8667 135.598 25.6ZM156.316 21.225L152.741 21.65C151.057 21.8667 150.216 22.5083 150.216 23.575C150.216 24.1417 150.449 24.6 150.916 24.95C151.382 25.2833 152.007 25.45 152.791 25.45C153.857 25.45 154.707 25.1333 155.341 24.5C155.991 23.8667 156.316 23.0333 156.316 22H157.191C157.191 23.5167 156.724 24.775 155.791 25.775C154.857 26.775 153.691 27.275 152.291 27.275C151.107 27.275 150.124 26.9417 149.341 26.275C148.574 25.5917 148.191 24.7167 148.191 23.65C148.207 22.6333 148.574 21.7917 149.291 21.125C150.024 20.4583 151.032 20.05 152.316 19.9L156.316 19.45V18.95C156.316 18.1833 156.016 17.5167 155.416 16.95C154.832 16.3833 154.116 16.1 153.266 16.1C152.499 16.1 151.816 16.3083 151.216 16.725C150.632 17.1417 150.266 17.6833 150.116 18.35L148.216 17.75C148.549 16.7 149.166 15.85 150.066 15.2C150.982 14.55 152.016 14.225 153.166 14.225C154.566 14.225 155.774 14.675 156.791 15.575C157.807 16.4583 158.316 17.5167 158.316 18.75V27H156.316V21.225ZM161.191 27V14.5H163.191V19.775H170.991V14.5H172.991V27H170.991V21.675H163.191V27H161.191ZM185.664 14.5V16.4H181.414V27H179.414V16.4H175.164V14.5H185.664ZM194.614 27V14.5H196.614V19.775H204.414V14.5H206.414V27H204.414V21.675H196.614V27H194.614ZM216.887 21.225L213.312 21.65C211.629 21.8667 210.787 22.5083 210.787 23.575C210.787 24.1417 211.02 24.6 211.487 24.95C211.954 25.2833 212.579 25.45 213.362 25.45C214.429 25.45 215.279 25.1333 215.912 24.5C216.562 23.8667 216.887 23.0333 216.887 22H217.762C217.762 23.5167 217.295 24.775 216.362 25.775C215.429 26.775 214.262 27.275 212.862 27.275C211.679 27.275 210.695 26.9417 209.912 26.275C209.145 25.5917 208.762 24.7167 208.762 23.65C208.779 22.6333 209.145 21.7917 209.862 21.125C210.595 20.4583 211.604 20.05 212.887 19.9L216.887 19.45V18.95C216.887 18.1833 216.587 17.5167 215.987 16.95C215.404 16.3833 214.687 16.1 213.837 16.1C213.07 16.1 212.387 16.3083 211.787 16.725C211.204 17.1417 210.837 17.6833 210.687 18.35L208.787 17.75C209.12 16.7 209.737 15.85 210.637 15.2C211.554 14.55 212.587 14.225 213.737 14.225C215.137 14.225 216.345 14.675 217.362 15.575C218.379 16.4583 218.887 17.5167 218.887 18.75V27H216.887V21.225ZM239.863 27H221.763V14.5H223.763V25.1H229.813V14.5H231.813V25.1H237.863V14.5H239.863V27ZM253.259 19.8C253.159 18.6333 252.684 17.6917 251.834 16.975C250.984 16.2583 249.959 15.9 248.759 15.9C247.609 15.9 246.617 16.2583 245.784 16.975C244.967 17.675 244.484 18.6167 244.334 19.8H253.259ZM244.334 21.625C244.484 22.8083 244.984 23.7583 245.834 24.475C246.684 25.1917 247.692 25.55 248.859 25.55C249.759 25.55 250.575 25.3417 251.309 24.925C252.042 24.4917 252.592 23.9 252.959 23.15L254.809 23.875C254.259 24.975 253.45 25.85 252.384 26.5C251.334 27.1333 250.167 27.45 248.884 27.45C247.017 27.45 245.442 26.8167 244.159 25.55C242.892 24.2667 242.259 22.6583 242.259 20.725C242.259 18.7917 242.884 17.1917 244.134 15.925C245.384 14.6417 246.917 14 248.734 14C250.567 14 252.117 14.625 253.384 15.875C254.65 17.1083 255.284 18.6667 255.284 20.55C255.284 20.85 255.242 21.2083 255.159 21.625H244.334ZM263.326 12.6C262.176 12.6 261.201 12.225 260.401 11.475C259.601 10.7083 259.201 9.79167 259.201 8.725H260.876C260.876 9.39167 261.11 9.94167 261.576 10.375C262.043 10.8083 262.635 11.025 263.351 11.025C264.085 11.025 264.701 10.8 265.201 10.35C265.718 9.9 265.976 9.35833 265.976 8.725H267.651C267.651 9.75833 267.218 10.6667 266.351 11.45C265.501 12.2167 264.493 12.6 263.326 12.6ZM268.901 27H266.901V17L260.026 27H257.651V14.5H259.651V24.25L266.501 14.5H268.901V27ZM289.525 22.65V24.95L283.875 21.575V18.975L289.525 15.6V17.9L285.525 20.25L289.525 22.65ZM283.625 22.65V24.95L278.025 21.575V18.975L283.625 15.6V17.9L279.625 20.25L283.625 22.65ZM302.654 14.5V27H300.654V16.4H293.904V27H291.904V14.5H302.654ZM315.002 14.5H317.227L309.952 32H307.727L309.827 26.55L304.852 14.5H307.077L311.027 24.3L315.002 14.5ZM337.519 27H319.419V14.5H321.419V25.1H327.469V14.5H329.469V25.1H335.519V14.5H337.519V27ZM351.665 27H349.665V17L342.79 27H340.415V14.5H342.415V24.25L349.265 14.5H351.665V27ZM357.401 17.3C356.501 18.1833 356.051 19.325 356.051 20.725C356.051 22.125 356.501 23.275 357.401 24.175C358.301 25.0583 359.401 25.5 360.701 25.5C361.634 25.5 362.476 25.275 363.226 24.825C363.976 24.375 364.551 23.7417 364.951 22.925L366.776 23.75C366.226 24.8833 365.409 25.7833 364.326 26.45C363.242 27.1167 362.034 27.45 360.701 27.45C358.834 27.45 357.259 26.8167 355.976 25.55C354.692 24.2833 354.051 22.675 354.051 20.725C354.051 18.775 354.692 17.1667 355.976 15.9C357.259 14.6333 358.834 14 360.701 14C362.051 14 363.276 14.3417 364.376 15.025C365.476 15.7083 366.292 16.6417 366.826 17.825L365.001 18.65C364.617 17.8 364.042 17.1417 363.276 16.675C362.509 16.1917 361.651 15.95 360.701 15.95C359.401 15.95 358.301 16.4 357.401 17.3ZM378.999 14.5V16.4H374.749V27H372.749V16.4H368.499V14.5H378.999ZM384.086 17.3C383.169 18.1833 382.711 19.325 382.711 20.725C382.711 22.125 383.169 23.275 384.086 24.175C385.019 25.0583 386.152 25.5 387.486 25.5C388.819 25.5 389.944 25.0583 390.861 24.175C391.794 23.275 392.261 22.125 392.261 20.725C392.261 19.325 391.794 18.1833 390.861 17.3C389.944 16.4 388.819 15.95 387.486 15.95C386.152 15.95 385.019 16.4 384.086 17.3ZM382.661 25.55C381.361 24.2833 380.711 22.675 380.711 20.725C380.711 18.775 381.361 17.1667 382.661 15.9C383.977 14.6333 385.586 14 387.486 14C389.386 14 390.986 14.6333 392.286 15.9C393.602 17.1667 394.261 18.775 394.261 20.725C394.261 22.675 393.602 24.2833 392.286 25.55C390.986 26.8167 389.386 27.45 387.486 27.45C385.586 27.45 383.977 26.8167 382.661 25.55ZM402.34 12.6C401.19 12.6 400.215 12.225 399.415 11.475C398.615 10.7083 398.215 9.79167 398.215 8.725H399.89C399.89 9.39167 400.123 9.94167 400.59 10.375C401.057 10.8083 401.648 11.025 402.365 11.025C403.098 11.025 403.715 10.8 404.215 10.35C404.732 9.9 404.99 9.35833 404.99 8.725H406.665C406.665 9.75833 406.232 10.6667 405.365 11.45C404.515 12.2167 403.507 12.6 402.34 12.6ZM407.915 27H405.915V17L399.04 27H396.665V14.5H398.665V24.25L405.515 14.5H407.915V27ZM410.301 17.9V15.6L415.901 18.975V21.575L410.301 24.95V22.65L414.301 20.3L410.301 17.9ZM416.151 17.9V15.6L421.801 18.975V21.575L416.151 24.95V22.65L420.151 20.3L416.151 17.9ZM437.943 16.325H432.918V19.85H438.168C438.734 19.85 439.209 19.7 439.593 19.4C439.976 19.0833 440.168 18.6917 440.168 18.225C440.168 17.675 439.951 17.225 439.518 16.875C439.101 16.5083 438.576 16.325 437.943 16.325ZM438.193 21.525H432.918V25.175H438.193C438.826 25.175 439.351 25.0083 439.768 24.675C440.201 24.325 440.418 23.9 440.418 23.4C440.418 22.85 440.201 22.4 439.768 22.05C439.351 21.7 438.826 21.525 438.193 21.525ZM438.443 27H430.918V14.5H438.193C439.326 14.5 440.268 14.8333 441.018 15.5C441.784 16.15 442.168 16.975 442.168 17.975C442.168 18.525 442.018 19.0333 441.718 19.5C441.434 19.95 441.034 20.3 440.518 20.55C441.101 20.8333 441.559 21.2417 441.893 21.775C442.243 22.3083 442.418 22.9083 442.418 23.575C442.418 24.5417 442.034 25.3583 441.268 26.025C440.518 26.675 439.576 27 438.443 27ZM455.285 19.8C455.185 18.6333 454.71 17.6917 453.86 16.975C453.01 16.2583 451.985 15.9 450.785 15.9C449.635 15.9 448.643 16.2583 447.81 16.975C446.993 17.675 446.51 18.6167 446.36 19.8H455.285ZM446.36 21.625C446.51 22.8083 447.01 23.7583 447.86 24.475C448.71 25.1917 449.718 25.55 450.885 25.55C451.785 25.55 452.602 25.3417 453.335 24.925C454.068 24.4917 454.618 23.9 454.985 23.15L456.835 23.875C456.285 24.975 455.477 25.85 454.41 26.5C453.36 27.1333 452.193 27.45 450.91 27.45C449.043 27.45 447.468 26.8167 446.185 25.55C444.918 24.2667 444.285 22.6583 444.285 20.725C444.285 18.7917 444.91 17.1917 446.16 15.925C447.41 14.6417 448.943 14 450.76 14C452.593 14 454.143 14.625 455.41 15.875C456.677 17.1083 457.31 18.6667 457.31 20.55C457.31 20.85 457.268 21.2083 457.185 21.625H446.36ZM459.678 14.5H461.678V32H459.678V14.5ZM463.053 17.325C462.136 18.225 461.678 19.375 461.678 20.775C461.678 22.1583 462.136 23.3 463.053 24.2C463.986 25.1 465.119 25.55 466.453 25.55C467.786 25.55 468.911 25.1 469.828 24.2C470.761 23.3 471.228 22.1583 471.228 20.775C471.228 19.375 470.761 18.225 469.828 17.325C468.911 16.425 467.786 15.975 466.453 15.975C465.119 15.975 463.986 16.425 463.053 17.325ZM462.503 25.6C461.319 24.3167 460.728 22.7083 460.728 20.775C460.728 18.825 461.319 17.2167 462.503 15.95C463.686 14.6833 465.144 14.05 466.878 14.05C468.661 14.05 470.161 14.6833 471.378 15.95C472.611 17.2167 473.228 18.825 473.228 20.775C473.228 22.7083 472.611 24.3167 471.378 25.6C470.161 26.8667 468.661 27.5 466.878 27.5C465.144 27.5 463.686 26.8667 462.503 25.6ZM488.995 27V14.5H490.995V27H488.995ZM482.72 21.4H477.545V25.05H482.72C483.353 25.05 483.878 24.8833 484.295 24.55C484.712 24.2 484.92 23.775 484.92 23.275C484.92 22.7417 484.712 22.3 484.295 21.95C483.878 21.5833 483.353 21.4 482.72 21.4ZM482.97 19.5C484.087 19.5 485.02 19.8667 485.77 20.6C486.537 21.3333 486.92 22.2333 486.92 23.3C486.92 24.35 486.537 25.2333 485.77 25.95C485.02 26.65 484.087 27 482.97 27H475.545V14.5H477.545V19.5H482.97ZM511.87 27H509.87V17L502.995 27H500.62V14.5H502.62V24.25L509.47 14.5H511.87V27ZM532.244 14.5V27H530.244V16.4H523.494V27H521.494V14.5H532.244ZM535.117 14.5H537.117V32H535.117V14.5ZM538.492 17.325C537.575 18.225 537.117 19.375 537.117 20.775C537.117 22.1583 537.575 23.3 538.492 24.2C539.425 25.1 540.559 25.55 541.892 25.55C543.225 25.55 544.35 25.1 545.267 24.2C546.2 23.3 546.667 22.1583 546.667 20.775C546.667 19.375 546.2 18.225 545.267 17.325C544.35 16.425 543.225 15.975 541.892 15.975C540.559 15.975 539.425 16.425 538.492 17.325ZM537.942 25.6C536.759 24.3167 536.167 22.7083 536.167 20.775C536.167 18.825 536.759 17.2167 537.942 15.95C539.125 14.6833 540.584 14.05 542.317 14.05C544.1 14.05 545.6 14.6833 546.817 15.95C548.05 17.2167 548.667 18.825 548.667 20.775C548.667 22.7083 548.05 24.3167 546.817 25.6C545.6 26.8667 544.1 27.5 542.317 27.5C540.584 27.5 539.125 26.8667 537.942 25.6ZM553.934 17.3C553.018 18.1833 552.559 19.325 552.559 20.725C552.559 22.125 553.018 23.275 553.934 24.175C554.868 25.0583 556.001 25.5 557.334 25.5C558.668 25.5 559.793 25.0583 560.709 24.175C561.643 23.275 562.109 22.125 562.109 20.725C562.109 19.325 561.643 18.1833 560.709 17.3C559.793 16.4 558.668 15.95 557.334 15.95C556.001 15.95 554.868 16.4 553.934 17.3ZM552.509 25.55C551.209 24.2833 550.559 22.675 550.559 20.725C550.559 18.775 551.209 17.1667 552.509 15.9C553.826 14.6333 555.434 14 557.334 14C559.234 14 560.834 14.6333 562.134 15.9C563.451 17.1667 564.109 18.775 564.109 20.725C564.109 22.675 563.451 24.2833 562.134 25.55C560.834 26.8167 559.234 27.45 557.334 27.45C555.434 27.45 553.826 26.8167 552.509 25.55ZM573.538 16.325H568.513V19.85H573.763C574.33 19.85 574.805 19.7 575.188 19.4C575.572 19.0833 575.763 18.6917 575.763 18.225C575.763 17.675 575.547 17.225 575.113 16.875C574.697 16.5083 574.172 16.325 573.538 16.325ZM573.788 21.525H568.513V25.175H573.788C574.422 25.175 574.947 25.0083 575.363 24.675C575.797 24.325 576.013 23.9 576.013 23.4C576.013 22.85 575.797 22.4 575.363 22.05C574.947 21.7 574.422 21.525 573.788 21.525ZM574.038 27H566.513V14.5H573.788C574.922 14.5 575.863 14.8333 576.613 15.5C577.38 16.15 577.763 16.975 577.763 17.975C577.763 18.525 577.613 19.0333 577.313 19.5C577.03 19.95 576.63 20.3 576.113 20.55C576.697 20.8333 577.155 21.2417 577.488 21.775C577.838 22.3083 578.013 22.9083 578.013 23.575C578.013 24.5417 577.63 25.3583 576.863 26.025C576.113 26.675 575.172 27 574.038 27ZM583.256 17.3C582.339 18.1833 581.881 19.325 581.881 20.725C581.881 22.125 582.339 23.275 583.256 24.175C584.189 25.0583 585.322 25.5 586.656 25.5C587.989 25.5 589.114 25.0583 590.031 24.175C590.964 23.275 591.431 22.125 591.431 20.725C591.431 19.325 590.964 18.1833 590.031 17.3C589.114 16.4 587.989 15.95 586.656 15.95C585.322 15.95 584.189 16.4 583.256 17.3ZM581.831 25.55C580.531 24.2833 579.881 22.675 579.881 20.725C579.881 18.775 580.531 17.1667 581.831 15.9C583.147 14.6333 584.756 14 586.656 14C588.556 14 590.156 14.6333 591.456 15.9C592.772 17.1667 593.431 18.775 593.431 20.725C593.431 22.675 592.772 24.2833 591.456 25.55C590.156 26.8167 588.556 27.45 586.656 27.45C584.756 27.45 583.147 26.8167 581.831 25.55ZM595.11 25.1H608.785V29.9H606.785V27H597.11V29.9H595.11V25.1ZM595.71 25.1C596.493 25.1167 597.093 24.875 597.51 24.375C597.943 23.8583 598.16 23.2167 598.16 22.45V14.5H607.035V27H605.035V16.45H600.16V22.8C600.16 23.8333 599.768 24.7333 598.985 25.5C598.201 26.25 597.193 26.625 595.96 26.625H595.235V25.1H595.71ZM610.923 27V14.5H612.923V19.775H620.723V14.5H622.723V27H620.723V21.675H612.923V27H610.923ZM636.846 27H634.846V17L627.971 27H625.596V14.5H627.596V24.25L634.446 14.5H636.846V27ZM639.731 27V14.5H641.731V19.75H642.381L647.481 14.5H650.081L644.131 20.75L650.081 27H647.481L642.381 21.825H641.731V27H639.731ZM658.269 25.1H671.944V29.9H669.944V27H660.269V29.9H658.269V25.1ZM658.869 25.1C659.652 25.1167 660.252 24.875 660.669 24.375C661.102 23.8583 661.319 23.2167 661.319 22.45V14.5H670.194V27H668.194V16.45H663.319V22.8C663.319 23.8333 662.927 24.7333 662.144 25.5C661.361 26.25 660.352 26.625 659.119 26.625H658.394V25.1H658.869ZM683.557 14.5H685.782L678.507 32H676.282L678.382 26.55L673.407 14.5H675.632L679.582 24.3L683.557 14.5ZM699.523 27H697.123L693.398 22.05L689.723 27H687.273L691.973 20.75L687.273 14.5H689.723L693.398 19.45L697.123 14.5H699.523L694.823 20.75L699.523 27ZM704.594 17.3C703.677 18.1833 703.219 19.325 703.219 20.725C703.219 22.125 703.677 23.275 704.594 24.175C705.527 25.0583 706.66 25.5 707.994 25.5C709.327 25.5 710.452 25.0583 711.369 24.175C712.302 23.275 712.769 22.125 712.769 20.725C712.769 19.325 712.302 18.1833 711.369 17.3C710.452 16.4 709.327 15.95 707.994 15.95C706.66 15.95 705.527 16.4 704.594 17.3ZM703.169 25.55C701.869 24.2833 701.219 22.675 701.219 20.725C701.219 18.775 701.869 17.1667 703.169 15.9C704.485 14.6333 706.094 14 707.994 14C709.894 14 711.494 14.6333 712.794 15.9C714.11 17.1667 714.769 18.775 714.769 20.725C714.769 22.675 714.11 24.2833 712.794 25.55C711.494 26.8167 709.894 27.45 707.994 27.45C706.094 27.45 704.485 26.8167 703.169 25.55ZM724.198 16.325H719.173V19.85H724.423C724.989 19.85 725.464 19.7 725.848 19.4C726.231 19.0833 726.423 18.6917 726.423 18.225C726.423 17.675 726.206 17.225 725.773 16.875C725.356 16.5083 724.831 16.325 724.198 16.325ZM724.448 21.525H719.173V25.175H724.448C725.081 25.175 725.606 25.0083 726.023 24.675C726.456 24.325 726.673 23.9 726.673 23.4C726.673 22.85 726.456 22.4 726.023 22.05C725.606 21.7 725.081 21.525 724.448 21.525ZM724.698 27H717.173V14.5H724.448C725.581 14.5 726.523 14.8333 727.273 15.5C728.039 16.15 728.423 16.975 728.423 17.975C728.423 18.525 728.273 19.0333 727.973 19.5C727.689 19.95 727.289 20.3 726.773 20.55C727.356 20.8333 727.814 21.2417 728.148 21.775C728.498 22.3083 728.673 22.9083 728.673 23.575C728.673 24.5417 728.289 25.3583 727.523 26.025C726.773 26.675 725.831 27 724.698 27ZM731.04 27V14.5H733.04V19.775H740.84V14.5H742.84V27H740.84V21.675H733.04V27H731.04ZM748.588 17.3C747.671 18.1833 747.213 19.325 747.213 20.725C747.213 22.125 747.671 23.275 748.588 24.175C749.521 25.0583 750.654 25.5 751.988 25.5C753.321 25.5 754.446 25.0583 755.363 24.175C756.296 23.275 756.763 22.125 756.763 20.725C756.763 19.325 756.296 18.1833 755.363 17.3C754.446 16.4 753.321 15.95 751.988 15.95C750.654 15.95 749.521 16.4 748.588 17.3ZM747.163 25.55C745.863 24.2833 745.213 22.675 745.213 20.725C745.213 18.775 745.863 17.1667 747.163 15.9C748.479 14.6333 750.088 14 751.988 14C753.888 14 755.488 14.6333 756.788 15.9C758.104 17.1667 758.763 18.775 758.763 20.725C758.763 22.675 758.104 24.2833 756.788 25.55C755.488 26.8167 753.888 27.45 751.988 27.45C750.088 27.45 748.479 26.8167 747.163 25.55ZM766.842 12.6C765.692 12.6 764.717 12.225 763.917 11.475C763.117 10.7083 762.717 9.79167 762.717 8.725H764.392C764.392 9.39167 764.625 9.94167 765.092 10.375C765.558 10.8083 766.15 11.025 766.867 11.025C767.6 11.025 768.217 10.8 768.717 10.35C769.233 9.9 769.492 9.35833 769.492 8.725H771.167C771.167 9.75833 770.733 10.6667 769.867 11.45C769.017 12.2167 768.008 12.6 766.842 12.6ZM772.417 27H770.417V17L763.542 27H761.167V14.5H763.167V24.25L770.017 14.5H772.417V27ZM784.891 17.3C783.991 18.1833 783.541 19.325 783.541 20.725C783.541 22.125 783.991 23.275 784.891 24.175C785.791 25.0583 786.891 25.5 788.191 25.5C789.124 25.5 789.966 25.275 790.716 24.825C791.466 24.375 792.041 23.7417 792.441 22.925L794.266 23.75C793.716 24.8833 792.899 25.7833 791.816 26.45C790.732 27.1167 789.524 27.45 788.191 27.45C786.324 27.45 784.749 26.8167 783.466 25.55C782.182 24.2833 781.541 22.675 781.541 20.725C781.541 18.775 782.182 17.1667 783.466 15.9C784.749 14.6333 786.324 14 788.191 14C789.541 14 790.766 14.3417 791.866 15.025C792.966 15.7083 793.782 16.6417 794.316 17.825L792.491 18.65C792.107 17.8 791.532 17.1417 790.766 16.675C789.999 16.1917 789.141 15.95 788.191 15.95C786.891 15.95 785.791 16.4 784.891 17.3ZM807.939 27H805.939V17L799.064 27H796.689V14.5H798.689V24.25L805.539 14.5H807.939V27ZM810.75 25.05C811.45 25.05 811.992 24.8333 812.375 24.4C812.758 23.95 812.95 23.3833 812.95 22.7V14.5H821.825V27H819.825V16.45H814.95V23.025C814.95 24.1083 814.583 25.0417 813.85 25.825C813.117 26.6083 812.167 27 811 27H810.225V25.05H810.75ZM838.067 27V14.5H840.067V27H838.067ZM831.792 21.4H826.617V25.05H831.792C832.426 25.05 832.951 24.8833 833.367 24.55C833.784 24.2 833.992 23.775 833.992 23.275C833.992 22.7417 833.784 22.3 833.367 21.95C832.951 21.5833 832.426 21.4 831.792 21.4ZM832.042 19.5C833.159 19.5 834.092 19.8667 834.842 20.6C835.609 21.3333 835.992 22.2333 835.992 23.3C835.992 24.35 835.609 25.2333 834.842 25.95C834.092 26.65 833.159 27 832.042 27H824.617V14.5H826.617V19.5H832.042ZM842.354 25.7C842.354 25.25 842.504 24.875 842.804 24.575C843.104 24.2583 843.487 24.1 843.954 24.1C844.404 24.1 844.779 24.2583 845.079 24.575C845.396 24.875 845.554 25.25 845.554 25.7C845.554 26.1667 845.404 26.55 845.104 26.85C844.804 27.15 844.421 27.3 843.954 27.3C843.504 27.3 843.121 27.15 842.804 26.85C842.504 26.55 842.354 26.1667 842.354 25.7ZM2.95 48.175C2.95 50.3083 3.61667 52.0583 4.95 53.425C6.28333 54.775 7.91667 55.45 9.85 55.45C11.7833 55.45 13.4167 54.775 14.75 53.425C16.0833 52.0583 16.75 50.3083 16.75 48.175C16.75 46.0917 16.0833 44.375 14.75 43.025C13.4167 41.675 11.7833 41 9.85 41C7.91667 41 6.28333 41.675 4.95 43.025C3.61667 44.375 2.95 46.0917 2.95 48.175ZM0.95 48.175C0.95 46.8583 1.18333 45.625 1.65 44.475C2.11667 43.325 2.75 42.3583 3.55 41.575C4.35 40.775 5.29167 40.15 6.375 39.7C7.475 39.2333 8.63333 39 9.85 39C11.0667 39 12.2167 39.2333 13.3 39.7C14.4 40.15 15.35 40.775 16.15 41.575C16.95 42.3583 17.5833 43.325 18.05 44.475C18.5167 45.625 18.75 46.8583 18.75 48.175C18.75 49.5083 18.5167 50.7583 18.05 51.925C17.5833 53.075 16.95 54.0583 16.15 54.875C15.35 55.675 14.4 56.3083 13.3 56.775C12.2167 57.225 11.0667 57.45 9.85 57.45C8.63333 57.45 7.475 57.225 6.375 56.775C5.29167 56.3083 4.35 55.675 3.55 54.875C2.75 54.0583 2.11667 53.075 1.65 51.925C1.18333 50.7583 0.95 49.5083 0.95 48.175ZM21.1521 57V44.5H23.1521V49.775H30.9521V44.5H32.9521V57H30.9521V51.675H23.1521V57H21.1521ZM53.3133 44.5V57H51.3133V46.4H44.5633V57H42.5633V44.5H53.3133ZM56.1863 44.5H58.1863V62H56.1863V44.5ZM59.5613 47.325C58.6447 48.225 58.1863 49.375 58.1863 50.775C58.1863 52.1583 58.6447 53.3 59.5613 54.2C60.4947 55.1 61.628 55.55 62.9613 55.55C64.2947 55.55 65.4197 55.1 66.3363 54.2C67.2697 53.3 67.7363 52.1583 67.7363 50.775C67.7363 49.375 67.2697 48.225 66.3363 47.325C65.4197 46.425 64.2947 45.975 62.9613 45.975C61.628 45.975 60.4947 46.425 59.5613 47.325ZM59.0113 55.6C57.828 54.3167 57.2363 52.7083 57.2363 50.775C57.2363 48.825 57.828 47.2167 59.0113 45.95C60.1947 44.6833 61.653 44.05 63.3863 44.05C65.1697 44.05 66.6697 44.6833 67.8863 45.95C69.1197 47.2167 69.7363 48.825 69.7363 50.775C69.7363 52.7083 69.1197 54.3167 67.8863 55.6C66.6697 56.8667 65.1697 57.5 63.3863 57.5C61.653 57.5 60.1947 56.8667 59.0113 55.6ZM83.3787 57H81.3787V47L74.5037 57H72.1287V44.5H74.1287V54.25L80.9787 44.5H83.3787V57ZM86.2645 57V44.5H88.2645V49.775H96.0645V44.5H98.0645V57H96.0645V51.675H88.2645V57H86.2645ZM104.987 50.6H109.637V46.45H104.987C104.287 46.45 103.696 46.65 103.212 47.05C102.746 47.4333 102.512 47.9083 102.512 48.475C102.512 49.0917 102.746 49.6 103.212 50C103.696 50.4 104.287 50.6 104.987 50.6ZM106.437 52.425L102.887 57H100.437L104.137 52.3C103.071 52.2333 102.187 51.8333 101.487 51.1C100.787 50.3667 100.437 49.4833 100.437 48.45C100.437 47.3333 100.846 46.4 101.662 45.65C102.479 44.8833 103.496 44.5 104.712 44.5H111.637V57H109.637V52.425H106.437ZM114.437 55.05C115.137 55.05 115.678 54.8333 116.062 54.4C116.445 53.95 116.637 53.3833 116.637 52.7V44.5H125.512V57H123.512V46.45H118.637V53.025C118.637 54.1083 118.27 55.0417 117.537 55.825C116.803 56.6083 115.853 57 114.687 57H113.912V55.05H114.437ZM135.117 57V44.5H137.117V49.775H144.917V44.5H146.917V57H144.917V51.675H137.117V57H135.117ZM157.39 51.225L153.815 51.65C152.132 51.8667 151.29 52.5083 151.29 53.575C151.29 54.1417 151.523 54.6 151.99 54.95C152.457 55.2833 153.082 55.45 153.865 55.45C154.932 55.45 155.782 55.1333 156.415 54.5C157.065 53.8667 157.39 53.0333 157.39 52H158.265C158.265 53.5167 157.798 54.775 156.865 55.775C155.932 56.775 154.765 57.275 153.365 57.275C152.182 57.275 151.198 56.9417 150.415 56.275C149.648 55.5917 149.265 54.7167 149.265 53.65C149.282 52.6333 149.648 51.7917 150.365 51.125C151.098 50.4583 152.107 50.05 153.39 49.9L157.39 49.45V48.95C157.39 48.1833 157.09 47.5167 156.49 46.95C155.907 46.3833 155.19 46.1 154.34 46.1C153.573 46.1 152.89 46.3083 152.29 46.725C151.707 47.1417 151.34 47.6833 151.19 48.35L149.29 47.75C149.623 46.7 150.24 45.85 151.14 45.2C152.057 44.55 153.09 44.225 154.24 44.225C155.64 44.225 156.848 44.675 157.865 45.575C158.882 46.4583 159.39 47.5167 159.39 48.75V57H157.39V51.225ZM171.854 47.3C170.954 48.1833 170.504 49.325 170.504 50.725C170.504 52.125 170.954 53.275 171.854 54.175C172.754 55.0583 173.854 55.5 175.154 55.5C176.087 55.5 176.929 55.275 177.679 54.825C178.429 54.375 179.004 53.7417 179.404 52.925L181.229 53.75C180.679 54.8833 179.862 55.7833 178.779 56.45C177.695 57.1167 176.487 57.45 175.154 57.45C173.287 57.45 171.712 56.8167 170.429 55.55C169.145 54.2833 168.504 52.675 168.504 50.725C168.504 48.775 169.145 47.1667 170.429 45.9C171.712 44.6333 173.287 44 175.154 44C176.504 44 177.729 44.3417 178.829 45.025C179.929 45.7083 180.745 46.6417 181.279 47.825L179.454 48.65C179.07 47.8 178.495 47.1417 177.729 46.675C176.962 46.1917 176.104 45.95 175.154 45.95C173.854 45.95 172.754 46.4 171.854 47.3ZM194.152 49.8C194.052 48.6333 193.577 47.6917 192.727 46.975C191.877 46.2583 190.852 45.9 189.652 45.9C188.502 45.9 187.51 46.2583 186.677 46.975C185.86 47.675 185.377 48.6167 185.227 49.8H194.152ZM185.227 51.625C185.377 52.8083 185.877 53.7583 186.727 54.475C187.577 55.1917 188.585 55.55 189.752 55.55C190.652 55.55 191.469 55.3417 192.202 54.925C192.935 54.4917 193.485 53.9 193.852 53.15L195.702 53.875C195.152 54.975 194.344 55.85 193.277 56.5C192.227 57.1333 191.06 57.45 189.777 57.45C187.91 57.45 186.335 56.8167 185.052 55.55C183.785 54.2667 183.152 52.6583 183.152 50.725C183.152 48.7917 183.777 47.1917 185.027 45.925C186.277 44.6417 187.81 44 189.627 44C191.46 44 193.01 44.625 194.277 45.875C195.544 47.1083 196.177 48.6667 196.177 50.55C196.177 50.85 196.135 51.2083 196.052 51.625H185.227ZM210.745 39.4C210.245 39.8833 209.586 40.25 208.77 40.5C207.97 40.75 206.945 40.9667 205.695 41.15C204.045 41.3833 202.728 42.0917 201.745 43.275C200.778 44.4583 200.228 46.0667 200.095 48.1C200.595 47.1667 201.328 46.425 202.295 45.875C203.278 45.325 204.336 45.05 205.47 45.05C207.153 45.05 208.561 45.6417 209.695 46.825C210.828 47.9917 211.395 49.4417 211.395 51.175C211.395 52.975 210.786 54.475 209.57 55.675C208.353 56.8583 206.811 57.45 204.945 57.45C203.695 57.45 202.545 57.1667 201.495 56.6C200.461 56.0167 199.678 55.2083 199.145 54.175C198.445 52.8583 198.095 51.175 198.095 49.125C198.095 46.225 198.72 43.975 199.97 42.375C201.236 40.7583 203.045 39.7583 205.395 39.375C206.161 39.2417 206.745 39.1333 207.145 39.05C207.561 38.9667 208.011 38.8333 208.495 38.65C208.978 38.4667 209.361 38.2417 209.645 37.975L210.745 39.4ZM200.345 51.05C200.345 52.2667 200.803 53.3083 201.72 54.175C202.636 55.025 203.745 55.45 205.045 55.45C206.295 55.45 207.328 55.05 208.145 54.25C208.978 53.4333 209.395 52.4167 209.395 51.2C209.395 49.9833 208.97 48.9833 208.12 48.2C207.286 47.4 206.211 47 204.895 47C203.595 47 202.511 47.3917 201.645 48.175C200.778 48.9417 200.345 49.9 200.345 51.05ZM217.854 50.6H222.504V46.45H217.854C217.154 46.45 216.562 46.65 216.079 47.05C215.612 47.4333 215.379 47.9083 215.379 48.475C215.379 49.0917 215.612 49.6 216.079 50C216.562 50.4 217.154 50.6 217.854 50.6ZM219.304 52.425L215.754 57H213.304L217.004 52.3C215.937 52.2333 215.054 51.8333 214.354 51.1C213.654 50.3667 213.304 49.4833 213.304 48.45C213.304 47.3333 213.712 46.4 214.529 45.65C215.345 44.8833 216.362 44.5 217.579 44.5H224.504V57H222.504V52.425H219.304ZM241.141 46.325H236.116V49.85H241.366C241.933 49.85 242.408 49.7 242.791 49.4C243.174 49.0833 243.366 48.6917 243.366 48.225C243.366 47.675 243.149 47.225 242.716 46.875C242.299 46.5083 241.774 46.325 241.141 46.325ZM241.391 51.525H236.116V55.175H241.391C242.024 55.175 242.549 55.0083 242.966 54.675C243.399 54.325 243.616 53.9 243.616 53.4C243.616 52.85 243.399 52.4 242.966 52.05C242.549 51.7 242.024 51.525 241.391 51.525ZM241.641 57H234.116V44.5H241.391C242.524 44.5 243.466 44.8333 244.216 45.5C244.983 46.15 245.366 46.975 245.366 47.975C245.366 48.525 245.216 49.0333 244.916 49.5C244.633 49.95 244.233 50.3 243.716 50.55C244.299 50.8333 244.758 51.2417 245.091 51.775C245.441 52.3083 245.616 52.9083 245.616 53.575C245.616 54.5417 245.233 55.3583 244.466 56.025C243.716 56.675 242.774 57 241.641 57ZM250.833 47.3C249.933 48.1833 249.483 49.325 249.483 50.725C249.483 52.125 249.933 53.275 250.833 54.175C251.733 55.0583 252.833 55.5 254.133 55.5C255.067 55.5 255.908 55.275 256.658 54.825C257.408 54.375 257.983 53.7417 258.383 52.925L260.208 53.75C259.658 54.8833 258.842 55.7833 257.758 56.45C256.675 57.1167 255.467 57.45 254.133 57.45C252.267 57.45 250.692 56.8167 249.408 55.55C248.125 54.2833 247.483 52.675 247.483 50.725C247.483 48.775 248.125 47.1667 249.408 45.9C250.692 44.6333 252.267 44 254.133 44C255.483 44 256.708 44.3417 257.808 45.025C258.908 45.7083 259.725 46.6417 260.258 47.825L258.433 48.65C258.05 47.8 257.475 47.1417 256.708 46.675C255.942 46.1917 255.083 45.95 254.133 45.95C252.833 45.95 251.733 46.4 250.833 47.3ZM270.432 50.725C270.432 52.125 270.89 53.275 271.807 54.175C272.723 55.0583 273.848 55.5 275.182 55.5C276.515 55.5 277.64 55.0583 278.557 54.175C279.473 53.275 279.932 52.125 279.932 50.725C279.932 49.325 279.473 48.1833 278.557 47.3C277.64 46.4 276.515 45.95 275.182 45.95C273.848 45.95 272.723 46.4 271.807 47.3C270.89 48.1833 270.432 49.325 270.432 50.725ZM268.432 50.725C268.432 48.775 269.082 47.1667 270.382 45.9C271.698 44.6333 273.298 44 275.182 44C277.082 44 278.682 44.6333 279.982 45.9C281.282 47.1667 281.932 48.775 281.932 50.725C281.932 52.675 281.282 54.2833 279.982 55.55C278.682 56.8167 277.082 57.45 275.182 57.45C273.298 57.45 271.698 56.8167 270.382 55.55C269.082 54.2833 268.432 52.675 268.432 50.725ZM268.932 49.75V51.7H264.632V57H262.632V44.5H264.632V49.75H268.932ZM298.099 46.325H293.074V49.85H298.324C298.891 49.85 299.366 49.7 299.749 49.4C300.132 49.0833 300.324 48.6917 300.324 48.225C300.324 47.675 300.107 47.225 299.674 46.875C299.257 46.5083 298.732 46.325 298.099 46.325ZM298.349 51.525H293.074V55.175H298.349C298.982 55.175 299.507 55.0083 299.924 54.675C300.357 54.325 300.574 53.9 300.574 53.4C300.574 52.85 300.357 52.4 299.924 52.05C299.507 51.7 298.982 51.525 298.349 51.525ZM298.599 57H291.074V44.5H298.349C299.482 44.5 300.424 44.8333 301.174 45.5C301.941 46.15 302.324 46.975 302.324 47.975C302.324 48.525 302.174 49.0333 301.874 49.5C301.591 49.95 301.191 50.3 300.674 50.55C301.257 50.8333 301.716 51.2417 302.049 51.775C302.399 52.3083 302.574 52.9083 302.574 53.575C302.574 54.5417 302.191 55.3583 301.424 56.025C300.674 56.675 299.732 57 298.599 57ZM307.816 47.3C306.9 48.1833 306.441 49.325 306.441 50.725C306.441 52.125 306.9 53.275 307.816 54.175C308.75 55.0583 309.883 55.5 311.216 55.5C312.55 55.5 313.675 55.0583 314.591 54.175C315.525 53.275 315.991 52.125 315.991 50.725C315.991 49.325 315.525 48.1833 314.591 47.3C313.675 46.4 312.55 45.95 311.216 45.95C309.883 45.95 308.75 46.4 307.816 47.3ZM306.391 55.55C305.091 54.2833 304.441 52.675 304.441 50.725C304.441 48.775 305.091 47.1667 306.391 45.9C307.708 44.6333 309.316 44 311.216 44C313.116 44 314.716 44.6333 316.016 45.9C317.333 47.1667 317.991 48.775 317.991 50.725C317.991 52.675 317.333 54.2833 316.016 55.55C314.716 56.8167 313.116 57.45 311.216 57.45C309.316 57.45 307.708 56.8167 306.391 55.55ZM320.32 55.05C321.02 55.05 321.562 54.8333 321.945 54.4C322.329 53.95 322.52 53.3833 322.52 52.7V44.5H331.395V57H329.395V46.45H324.52V53.025C324.52 54.1083 324.154 55.0417 323.42 55.825C322.687 56.6083 321.737 57 320.57 57H319.795V55.05H320.32ZM342.063 50.725C342.063 52.125 342.521 53.275 343.438 54.175C344.354 55.0583 345.479 55.5 346.813 55.5C348.146 55.5 349.271 55.0583 350.188 54.175C351.104 53.275 351.563 52.125 351.563 50.725C351.563 49.325 351.104 48.1833 350.188 47.3C349.271 46.4 348.146 45.95 346.813 45.95C345.479 45.95 344.354 46.4 343.438 47.3C342.521 48.1833 342.063 49.325 342.063 50.725ZM340.063 50.725C340.063 48.775 340.713 47.1667 342.013 45.9C343.329 44.6333 344.929 44 346.813 44C348.713 44 350.313 44.6333 351.613 45.9C352.913 47.1667 353.563 48.775 353.563 50.725C353.563 52.675 352.913 54.2833 351.613 55.55C350.313 56.8167 348.713 57.45 346.813 57.45C344.929 57.45 343.329 56.8167 342.013 55.55C340.713 54.2833 340.063 52.675 340.063 50.725ZM340.563 49.75V51.7H336.263V57H334.263V44.5H336.263V49.75H340.563ZM373.455 44.5V57H371.455V46.4H364.705V57H362.705V44.5H373.455ZM376.328 44.5H378.328V62H376.328V44.5ZM379.703 47.325C378.786 48.225 378.328 49.375 378.328 50.775C378.328 52.1583 378.786 53.3 379.703 54.2C380.636 55.1 381.77 55.55 383.103 55.55C384.436 55.55 385.561 55.1 386.478 54.2C387.411 53.3 387.878 52.1583 387.878 50.775C387.878 49.375 387.411 48.225 386.478 47.325C385.561 46.425 384.436 45.975 383.103 45.975C381.77 45.975 380.636 46.425 379.703 47.325ZM379.153 55.6C377.97 54.3167 377.378 52.7083 377.378 50.775C377.378 48.825 377.97 47.2167 379.153 45.95C380.336 44.6833 381.795 44.05 383.528 44.05C385.311 44.05 386.811 44.6833 388.028 45.95C389.261 47.2167 389.878 48.825 389.878 50.775C389.878 52.7083 389.261 54.3167 388.028 55.6C386.811 56.8667 385.311 57.5 383.528 57.5C381.795 57.5 380.336 56.8667 379.153 55.6ZM403.52 57H401.52V47L394.645 57H392.27V44.5H394.27V54.25L401.12 44.5H403.52V57ZM406.406 44.5H408.406V62H406.406V44.5ZM409.781 47.325C408.864 48.225 408.406 49.375 408.406 50.775C408.406 52.1583 408.864 53.3 409.781 54.2C410.714 55.1 411.848 55.55 413.181 55.55C414.514 55.55 415.639 55.1 416.556 54.2C417.489 53.3 417.956 52.1583 417.956 50.775C417.956 49.375 417.489 48.225 416.556 47.325C415.639 46.425 414.514 45.975 413.181 45.975C411.848 45.975 410.714 46.425 409.781 47.325ZM409.231 55.6C408.048 54.3167 407.456 52.7083 407.456 50.775C407.456 48.825 408.048 47.2167 409.231 45.95C410.414 44.6833 411.873 44.05 413.606 44.05C415.389 44.05 416.889 44.6833 418.106 45.95C419.339 47.2167 419.956 48.825 419.956 50.775C419.956 52.7083 419.339 54.3167 418.106 55.6C416.889 56.8667 415.389 57.5 413.606 57.5C411.873 57.5 410.414 56.8667 409.231 55.6ZM425.223 47.3C424.307 48.1833 423.848 49.325 423.848 50.725C423.848 52.125 424.307 53.275 425.223 54.175C426.157 55.0583 427.29 55.5 428.623 55.5C429.957 55.5 431.082 55.0583 431.998 54.175C432.932 53.275 433.398 52.125 433.398 50.725C433.398 49.325 432.932 48.1833 431.998 47.3C431.082 46.4 429.957 45.95 428.623 45.95C427.29 45.95 426.157 46.4 425.223 47.3ZM423.798 55.55C422.498 54.2833 421.848 52.675 421.848 50.725C421.848 48.775 422.498 47.1667 423.798 45.9C425.115 44.6333 426.723 44 428.623 44C430.523 44 432.123 44.6333 433.423 45.9C434.74 47.1667 435.398 48.775 435.398 50.725C435.398 52.675 434.74 54.2833 433.423 55.55C432.123 56.8167 430.523 57.45 428.623 57.45C426.723 57.45 425.115 56.8167 423.798 55.55ZM437.078 55.1H450.753V59.9H448.753V57H439.078V59.9H437.078V55.1ZM437.678 55.1C438.461 55.1167 439.061 54.875 439.478 54.375C439.911 53.8583 440.128 53.2167 440.128 52.45V44.5H449.003V57H447.003V46.45H442.128V52.8C442.128 53.8333 441.736 54.7333 440.953 55.5C440.169 56.25 439.161 56.625 437.928 56.625H437.203V55.1H437.678ZM466.265 57V44.5H468.265V57H466.265ZM459.99 51.4H454.815V55.05H459.99C460.624 55.05 461.149 54.8833 461.565 54.55C461.982 54.2 462.19 53.775 462.19 53.275C462.19 52.7417 461.982 52.3 461.565 51.95C461.149 51.5833 460.624 51.4 459.99 51.4ZM460.24 49.5C461.357 49.5 462.29 49.8667 463.04 50.6C463.807 51.3333 464.19 52.2333 464.19 53.3C464.19 54.35 463.807 55.2333 463.04 55.95C462.29 56.65 461.357 57 460.24 57H452.815V44.5H454.815V49.5H460.24ZM489.14 57H487.14V47L480.265 57H477.89V44.5H479.89V54.25L486.74 44.5H489.14V57ZM509.264 49.8C509.164 48.6333 508.689 47.6917 507.839 46.975C506.989 46.2583 505.964 45.9 504.764 45.9C503.614 45.9 502.623 46.2583 501.789 46.975C500.973 47.675 500.489 48.6167 500.339 49.8H509.264ZM500.339 51.625C500.489 52.8083 500.989 53.7583 501.839 54.475C502.689 55.1917 503.698 55.55 504.864 55.55C505.764 55.55 506.581 55.3417 507.314 54.925C508.048 54.4917 508.598 53.9 508.964 53.15L510.814 53.875C510.264 54.975 509.456 55.85 508.389 56.5C507.339 57.1333 506.173 57.45 504.889 57.45C503.023 57.45 501.448 56.8167 500.164 55.55C498.898 54.2667 498.264 52.6583 498.264 50.725C498.264 48.7917 498.889 47.1917 500.139 45.925C501.389 44.6417 502.923 44 504.739 44C506.573 44 508.123 44.625 509.389 45.875C510.656 47.1083 511.289 48.6667 511.289 50.55C511.289 50.85 511.248 51.2083 511.164 51.625H500.339ZM513.657 57V44.5H522.082V46.4H515.657V57H513.657ZM527.323 47.3C526.406 48.1833 525.948 49.325 525.948 50.725C525.948 52.125 526.406 53.275 527.323 54.175C528.256 55.0583 529.39 55.5 530.723 55.5C532.056 55.5 533.181 55.0583 534.098 54.175C535.031 53.275 535.498 52.125 535.498 50.725C535.498 49.325 535.031 48.1833 534.098 47.3C533.181 46.4 532.056 45.95 530.723 45.95C529.39 45.95 528.256 46.4 527.323 47.3ZM525.898 55.55C524.598 54.2833 523.948 52.675 523.948 50.725C523.948 48.775 524.598 47.1667 525.898 45.9C527.215 44.6333 528.823 44 530.723 44C532.623 44 534.223 44.6333 535.523 45.9C536.84 47.1667 537.498 48.775 537.498 50.725C537.498 52.675 536.84 54.2833 535.523 55.55C534.223 56.8167 532.623 57.45 530.723 57.45C528.823 57.45 527.215 56.8167 525.898 55.55ZM546.64 57V44.5H548.64V49.775H556.44V44.5H558.44V57H556.44V51.675H548.64V57H546.64ZM571.813 49.8C571.713 48.6333 571.238 47.6917 570.388 46.975C569.538 46.2583 568.513 45.9 567.313 45.9C566.163 45.9 565.172 46.2583 564.338 46.975C563.522 47.675 563.038 48.6167 562.888 49.8H571.813ZM562.888 51.625C563.038 52.8083 563.538 53.7583 564.388 54.475C565.238 55.1917 566.247 55.55 567.413 55.55C568.313 55.55 569.13 55.3417 569.863 54.925C570.597 54.4917 571.147 53.9 571.513 53.15L573.363 53.875C572.813 54.975 572.005 55.85 570.938 56.5C569.888 57.1333 568.722 57.45 567.438 57.45C565.572 57.45 563.997 56.8167 562.713 55.55C561.447 54.2667 560.813 52.6583 560.813 50.725C560.813 48.7917 561.438 47.1917 562.688 45.925C563.938 44.6417 565.472 44 567.288 44C569.122 44 570.672 44.625 571.938 45.875C573.205 47.1083 573.838 48.6667 573.838 50.55C573.838 50.85 573.797 51.2083 573.713 51.625H562.888ZM583.356 44.5H585.356V49.775H586.506L590.806 44.5H593.156L588.056 50.75L593.156 57H590.806L586.506 51.8H585.356V57H583.356V51.725H582.256L577.906 57H575.556L580.706 50.75L575.556 44.5H577.906L582.256 49.7H583.356V44.5ZM595.42 57V44.5H597.42V49.775H605.22V44.5H607.22V57H605.22V51.675H597.42V57H595.42ZM612.968 47.3C612.051 48.1833 611.593 49.325 611.593 50.725C611.593 52.125 612.051 53.275 612.968 54.175C613.901 55.0583 615.034 55.5 616.368 55.5C617.701 55.5 618.826 55.0583 619.743 54.175C620.676 53.275 621.143 52.125 621.143 50.725C621.143 49.325 620.676 48.1833 619.743 47.3C618.826 46.4 617.701 45.95 616.368 45.95C615.034 45.95 613.901 46.4 612.968 47.3ZM611.543 55.55C610.243 54.2833 609.593 52.675 609.593 50.725C609.593 48.775 610.243 47.1667 611.543 45.9C612.859 44.6333 614.468 44 616.368 44C618.268 44 619.868 44.6333 621.168 45.9C622.484 47.1667 623.143 48.775 623.143 50.725C623.143 52.675 622.484 54.2833 621.168 55.55C619.868 56.8167 618.268 57.45 616.368 57.45C614.468 57.45 612.859 56.8167 611.543 55.55ZM632.797 49.45V51.25H624.822V49.45H632.797ZM634.971 57V44.5H637.321L642.221 52.75L647.121 44.5H649.471V57H647.471V47.4L642.921 55.15H641.546L636.971 47.4V57H634.971ZM655.253 47.3C654.336 48.1833 653.878 49.325 653.878 50.725C653.878 52.125 654.336 53.275 655.253 54.175C656.186 55.0583 657.319 55.5 658.653 55.5C659.986 55.5 661.111 55.0583 662.028 54.175C662.961 53.275 663.428 52.125 663.428 50.725C663.428 49.325 662.961 48.1833 662.028 47.3C661.111 46.4 659.986 45.95 658.653 45.95C657.319 45.95 656.186 46.4 655.253 47.3ZM653.828 55.55C652.528 54.2833 651.878 52.675 651.878 50.725C651.878 48.775 652.528 47.1667 653.828 45.9C655.144 44.6333 656.753 44 658.653 44C660.553 44 662.153 44.6333 663.453 45.9C664.769 47.1667 665.428 48.775 665.428 50.725C665.428 52.675 664.769 54.2833 663.453 55.55C662.153 56.8167 660.553 57.45 658.653 57.45C656.753 57.45 655.144 56.8167 653.828 55.55ZM667.757 55.05C668.457 55.05 668.999 54.8333 669.382 54.4C669.765 53.95 669.957 53.3833 669.957 52.7V44.5H678.832V57H676.832V46.45H671.957V53.025C671.957 54.1083 671.59 55.0417 670.857 55.825C670.124 56.6083 669.174 57 668.007 57H667.232V55.05H667.757ZM684.574 47.3C683.657 48.1833 683.199 49.325 683.199 50.725C683.199 52.125 683.657 53.275 684.574 54.175C685.507 55.0583 686.641 55.5 687.974 55.5C689.307 55.5 690.432 55.0583 691.349 54.175C692.282 53.275 692.749 52.125 692.749 50.725C692.749 49.325 692.282 48.1833 691.349 47.3C690.432 46.4 689.307 45.95 687.974 45.95C686.641 45.95 685.507 46.4 684.574 47.3ZM683.149 55.55C681.849 54.2833 681.199 52.675 681.199 50.725C681.199 48.775 681.849 47.1667 683.149 45.9C684.466 44.6333 686.074 44 687.974 44C689.874 44 691.474 44.6333 692.774 45.9C694.091 47.1667 694.749 48.775 694.749 50.725C694.749 52.675 694.091 54.2833 692.774 55.55C691.474 56.8167 689.874 57.45 687.974 57.45C686.074 57.45 684.466 56.8167 683.149 55.55ZM707.353 44.5V57H705.353V44.5H707.353ZM699.153 44.5V48.65C699.153 49.5833 699.42 50.3167 699.953 50.85C700.503 51.3833 701.203 51.65 702.053 51.65C702.97 51.65 703.745 51.3667 704.378 50.8C705.028 50.2167 705.353 49.5167 705.353 48.7H706.403C706.403 50.05 705.936 51.2083 705.003 52.175C704.07 53.125 702.903 53.6 701.503 53.6C700.27 53.6 699.236 53.1833 698.403 52.35C697.57 51.5 697.153 50.4083 697.153 49.075V44.5H699.153ZM710.239 57V44.5H712.239V49.775H720.039V44.5H722.039V57H720.039V51.675H712.239V57H710.239ZM738.287 57V44.5H740.287V57H738.287ZM732.012 51.4H726.837V55.05H732.012C732.645 55.05 733.17 54.8833 733.587 54.55C734.004 54.2 734.212 53.775 734.212 53.275C734.212 52.7417 734.004 52.3 733.587 51.95C733.17 51.5833 732.645 51.4 732.012 51.4ZM732.262 49.5C733.379 49.5 734.312 49.8667 735.062 50.6C735.829 51.3333 736.212 52.2333 736.212 53.3C736.212 54.35 735.829 55.2333 735.062 55.95C734.312 56.65 733.379 57 732.262 57H724.837V44.5H726.837V49.5H732.262ZM753.674 49.8C753.574 48.6333 753.099 47.6917 752.249 46.975C751.399 46.2583 750.374 45.9 749.174 45.9C748.024 45.9 747.032 46.2583 746.199 46.975C745.382 47.675 744.899 48.6167 744.749 49.8H753.674ZM744.749 51.625C744.899 52.8083 745.399 53.7583 746.249 54.475C747.099 55.1917 748.107 55.55 749.274 55.55C750.174 55.55 750.99 55.3417 751.724 54.925C752.457 54.4917 753.007 53.9 753.374 53.15L755.224 53.875C754.674 54.975 753.865 55.85 752.799 56.5C751.749 57.1333 750.582 57.45 749.299 57.45C747.432 57.45 745.857 56.8167 744.574 55.55C743.307 54.2667 742.674 52.6583 742.674 50.725C742.674 48.7917 743.299 47.1917 744.549 45.925C745.799 44.6417 747.332 44 749.149 44C750.982 44 752.532 44.625 753.799 45.875C755.065 47.1083 755.699 48.6667 755.699 50.55C755.699 50.85 755.657 51.2083 755.574 51.625H744.749ZM767.679 47.3C766.763 48.1833 766.304 49.325 766.304 50.725C766.304 52.125 766.763 53.275 767.679 54.175C768.613 55.0583 769.746 55.5 771.079 55.5C772.413 55.5 773.538 55.0583 774.454 54.175C775.388 53.275 775.854 52.125 775.854 50.725C775.854 49.325 775.388 48.1833 774.454 47.3C773.538 46.4 772.413 45.95 771.079 45.95C769.746 45.95 768.613 46.4 767.679 47.3ZM766.254 55.55C764.954 54.2833 764.304 52.675 764.304 50.725C764.304 48.775 764.954 47.1667 766.254 45.9C767.571 44.6333 769.179 44 771.079 44C772.979 44 774.579 44.6333 775.879 45.9C777.196 47.1667 777.854 48.775 777.854 50.725C777.854 52.675 777.196 54.2833 775.879 55.55C774.579 56.8167 772.979 57.45 771.079 57.45C769.179 57.45 767.571 56.8167 766.254 55.55ZM790.059 44.5V46.4H785.809V57H783.809V46.4H779.559V44.5H790.059ZM802.07 44.5V46.4H797.82V57H795.82V46.4H791.57V44.5H802.07ZM814.782 49.8C814.682 48.6333 814.207 47.6917 813.357 46.975C812.507 46.2583 811.482 45.9 810.282 45.9C809.132 45.9 808.14 46.2583 807.307 46.975C806.49 47.675 806.007 48.6167 805.857 49.8H814.782ZM805.857 51.625C806.007 52.8083 806.507 53.7583 807.357 54.475C808.207 55.1917 809.215 55.55 810.382 55.55C811.282 55.55 812.099 55.3417 812.832 54.925C813.565 54.4917 814.115 53.9 814.482 53.15L816.332 53.875C815.782 54.975 814.974 55.85 813.907 56.5C812.857 57.1333 811.69 57.45 810.407 57.45C808.54 57.45 806.965 56.8167 805.682 55.55C804.415 54.2667 803.782 52.6583 803.782 50.725C803.782 48.7917 804.407 47.1917 805.657 45.925C806.907 44.6417 808.44 44 810.257 44C812.09 44 813.64 44.625 814.907 45.875C816.174 47.1083 816.807 48.6667 816.807 50.55C816.807 50.85 816.765 51.2083 816.682 51.625H805.857ZM819.175 57V44.5H821.175V49.775H828.975V44.5H830.975V57H828.975V51.675H821.175V57H819.175ZM833.847 57V44.5H835.847V49.75H836.497L841.597 44.5H844.197L838.247 50.75L844.197 57H841.597L836.497 51.825H835.847V57H833.847ZM857.622 57H855.622V47L848.747 57H846.372V44.5H848.372V54.25L855.222 44.5H857.622V57ZM12.2 74.5V87H10.2V76.4H3.45V87H1.45V74.5H12.2ZM15.073 74.5H17.073V92H15.073V74.5ZM18.448 77.325C17.5314 78.225 17.073 79.375 17.073 80.775C17.073 82.1583 17.5314 83.3 18.448 84.2C19.3814 85.1 20.5147 85.55 21.848 85.55C23.1814 85.55 24.3064 85.1 25.223 84.2C26.1564 83.3 26.623 82.1583 26.623 80.775C26.623 79.375 26.1564 78.225 25.223 77.325C24.3064 76.425 23.1814 75.975 21.848 75.975C20.5147 75.975 19.3814 76.425 18.448 77.325ZM17.898 85.6C16.7147 84.3167 16.123 82.7083 16.123 80.775C16.123 78.825 16.7147 77.2167 17.898 75.95C19.0814 74.6833 20.5397 74.05 22.273 74.05C24.0564 74.05 25.5564 74.6833 26.773 75.95C28.0064 77.2167 28.623 78.825 28.623 80.775C28.623 82.7083 28.0064 84.3167 26.773 85.6C25.5564 86.8667 24.0564 87.5 22.273 87.5C20.5397 87.5 19.0814 86.8667 17.898 85.6ZM42.2654 87H40.2654V77L33.3904 87H31.0154V74.5H33.0154V84.25L39.8654 74.5H42.2654V87ZM45.1512 87V74.5H47.1512V79.775H54.9512V74.5H56.9512V87H54.9512V81.675H47.1512V87H45.1512ZM63.874 80.6H68.524V76.45H63.874C63.174 76.45 62.5824 76.65 62.099 77.05C61.6324 77.4333 61.399 77.9083 61.399 78.475C61.399 79.0917 61.6324 79.6 62.099 80C62.5824 80.4 63.174 80.6 63.874 80.6ZM65.324 82.425L61.774 87H59.324L63.024 82.3C61.9574 82.2333 61.074 81.8333 60.374 81.1C59.674 80.3667 59.324 79.4833 59.324 78.45C59.324 77.3333 59.7324 76.4 60.549 75.65C61.3657 74.8833 62.3824 74.5 63.599 74.5H70.524V87H68.524V82.425H65.324ZM73.3232 85.05C74.0232 85.05 74.5649 84.8333 74.9482 84.4C75.3316 83.95 75.5232 83.3833 75.5232 82.7V74.5H84.3982V87H82.3982V76.45H77.5232V83.025C77.5232 84.1083 77.1566 85.0417 76.4232 85.825C75.6899 86.6083 74.7399 87 73.5732 87H72.7982V85.05H73.3232ZM98.5154 87H96.5154V77L89.6404 87H87.2654V74.5H89.2654V84.25L96.1154 74.5H98.5154V87ZM111.014 77.3C110.098 78.1833 109.639 79.325 109.639 80.725C109.639 82.125 110.098 83.275 111.014 84.175C111.948 85.0583 113.081 85.5 114.414 85.5C115.748 85.5 116.873 85.0583 117.789 84.175C118.723 83.275 119.189 82.125 119.189 80.725C119.189 79.325 118.723 78.1833 117.789 77.3C116.873 76.4 115.748 75.95 114.414 75.95C113.081 75.95 111.948 76.4 111.014 77.3ZM109.589 85.55C108.289 84.2833 107.639 82.675 107.639 80.725C107.639 78.775 108.289 77.1667 109.589 75.9C110.906 74.6333 112.514 74 114.414 74C116.314 74 117.914 74.6333 119.214 75.9C120.531 77.1667 121.189 78.775 121.189 80.725C121.189 82.675 120.531 84.2833 119.214 85.55C117.914 86.8167 116.314 87.45 114.414 87.45C112.514 87.45 110.906 86.8167 109.589 85.55ZM135.794 69.4C135.294 69.8833 134.635 70.25 133.819 70.5C133.019 70.75 131.994 70.9667 130.744 71.15C129.094 71.3833 127.777 72.0917 126.794 73.275C125.827 74.4583 125.277 76.0667 125.144 78.1C125.644 77.1667 126.377 76.425 127.344 75.875C128.327 75.325 129.385 75.05 130.519 75.05C132.202 75.05 133.61 75.6417 134.744 76.825C135.877 77.9917 136.444 79.4417 136.444 81.175C136.444 82.975 135.835 84.475 134.619 85.675C133.402 86.8583 131.86 87.45 129.994 87.45C128.744 87.45 127.594 87.1667 126.544 86.6C125.51 86.0167 124.727 85.2083 124.194 84.175C123.494 82.8583 123.144 81.175 123.144 79.125C123.144 76.225 123.769 73.975 125.019 72.375C126.285 70.7583 128.094 69.7583 130.444 69.375C131.21 69.2417 131.794 69.1333 132.194 69.05C132.61 68.9667 133.06 68.8333 133.544 68.65C134.027 68.4667 134.41 68.2417 134.694 67.975L135.794 69.4ZM125.394 81.05C125.394 82.2667 125.852 83.3083 126.769 84.175C127.685 85.025 128.794 85.45 130.094 85.45C131.344 85.45 132.377 85.05 133.194 84.25C134.027 83.4333 134.444 82.4167 134.444 81.2C134.444 79.9833 134.019 78.9833 133.169 78.2C132.335 77.4 131.26 77 129.944 77C128.644 77 127.56 77.3917 126.694 78.175C125.827 78.9417 125.394 79.9 125.394 81.05ZM148.327 74.5H150.552L143.277 92H141.052L143.152 86.55L138.177 74.5H140.402L144.352 84.3L148.327 74.5ZM152.694 76.975C153.127 76.075 153.761 75.3667 154.594 74.85C155.444 74.3167 156.386 74.05 157.419 74.05C158.719 74.05 159.802 74.425 160.669 75.175C161.552 75.9083 161.994 76.8333 161.994 77.95C161.994 78.5333 161.844 79.075 161.544 79.575C161.261 80.0583 160.861 80.4417 160.344 80.725C160.927 81.025 161.386 81.4583 161.719 82.025C162.069 82.575 162.244 83.1833 162.244 83.85C162.244 84.8833 161.786 85.7417 160.869 86.425C159.952 87.1083 158.811 87.45 157.444 87.45C156.277 87.45 155.227 87.1833 154.294 86.65C153.377 86.1 152.694 85.35 152.244 84.4L154.094 83.5C154.377 84.1167 154.811 84.6083 155.394 84.975C155.994 85.325 156.669 85.5 157.419 85.5C158.219 85.5 158.886 85.3167 159.419 84.95C159.969 84.5833 160.244 84.125 160.244 83.575C160.244 83.0083 160.011 82.5333 159.544 82.15C159.094 81.7667 158.527 81.575 157.844 81.575H155.844V79.925H157.844C158.461 79.925 158.969 79.7583 159.369 79.425C159.786 79.0917 159.994 78.675 159.994 78.175C159.994 77.5583 159.744 77.05 159.244 76.65C158.744 76.2333 158.119 76.025 157.369 76.025C156.752 76.025 156.194 76.1833 155.694 76.5C155.211 76.8167 154.844 77.25 154.594 77.8L152.694 76.975ZM163.884 85.1H177.559V89.9H175.559V87H165.884V89.9H163.884V85.1ZM164.484 85.1C165.268 85.1167 165.868 84.875 166.284 84.375C166.718 83.8583 166.934 83.2167 166.934 82.45V74.5H175.809V87H173.809V76.45H168.934V82.8C168.934 83.8333 168.543 84.7333 167.759 85.5C166.976 86.25 165.968 86.625 164.734 86.625H164.009V85.1H164.484ZM187.297 81.225L183.722 81.65C182.039 81.8667 181.197 82.5083 181.197 83.575C181.197 84.1417 181.43 84.6 181.897 84.95C182.364 85.2833 182.989 85.45 183.772 85.45C184.839 85.45 185.689 85.1333 186.322 84.5C186.972 83.8667 187.297 83.0333 187.297 82H188.172C188.172 83.5167 187.705 84.775 186.772 85.775C185.839 86.775 184.672 87.275 183.272 87.275C182.089 87.275 181.105 86.9417 180.322 86.275C179.555 85.5917 179.172 84.7167 179.172 83.65C179.189 82.6333 179.555 81.7917 180.272 81.125C181.005 80.4583 182.014 80.05 183.297 79.9L187.297 79.45V78.95C187.297 78.1833 186.997 77.5167 186.397 76.95C185.814 76.3833 185.097 76.1 184.247 76.1C183.48 76.1 182.797 76.3083 182.197 76.725C181.614 77.1417 181.247 77.6833 181.097 78.35L179.197 77.75C179.53 76.7 180.147 75.85 181.047 75.2C181.964 74.55 182.997 74.225 184.147 74.225C185.547 74.225 186.755 74.675 187.772 75.575C188.789 76.4583 189.297 77.5167 189.297 78.75V87H187.297V81.225ZM192.173 87V74.5H194.173V79.775H201.973V74.5H203.973V87H201.973V81.675H194.173V87H192.173ZM206.846 87V74.5H208.846V79.775H216.646V74.5H218.646V87H216.646V81.675H208.846V87H206.846ZM230.993 74.5H233.218L225.943 92H223.718L225.818 86.55L220.843 74.5H223.068L227.018 84.3L230.993 74.5ZM243.21 80.725C243.21 82.125 243.668 83.275 244.585 84.175C245.502 85.0583 246.627 85.5 247.96 85.5C249.293 85.5 250.418 85.0583 251.335 84.175C252.252 83.275 252.71 82.125 252.71 80.725C252.71 79.325 252.252 78.1833 251.335 77.3C250.418 76.4 249.293 75.95 247.96 75.95C246.627 75.95 245.502 76.4 244.585 77.3C243.668 78.1833 243.21 79.325 243.21 80.725ZM241.21 80.725C241.21 78.775 241.86 77.1667 243.16 75.9C244.477 74.6333 246.077 74 247.96 74C249.86 74 251.46 74.6333 252.76 75.9C254.06 77.1667 254.71 78.775 254.71 80.725C254.71 82.675 254.06 84.2833 252.76 85.55C251.46 86.8167 249.86 87.45 247.96 87.45C246.077 87.45 244.477 86.8167 243.16 85.55C241.86 84.2833 241.21 82.675 241.21 80.725ZM241.71 79.75V81.7H237.41V87H235.41V74.5H237.41V79.75H241.71ZM263.127 85.1H276.802V89.9H274.802V87H265.127V89.9H263.127V85.1ZM263.727 85.1C264.511 85.1167 265.111 84.875 265.527 84.375C265.961 83.8583 266.177 83.2167 266.177 82.45V74.5H275.052V87H273.052V76.45H268.177V82.8C268.177 83.8333 267.786 84.7333 267.002 85.5C266.219 86.25 265.211 86.625 263.977 86.625H263.252V85.1H263.727ZM278.865 85.05C279.565 85.05 280.107 84.8333 280.49 84.4C280.874 83.95 281.065 83.3833 281.065 82.7V74.5H289.94V87H287.94V76.45H283.065V83.025C283.065 84.1083 282.699 85.0417 281.965 85.825C281.232 86.6083 280.282 87 279.115 87H278.34V85.05H278.865ZM300.407 81.225L296.832 81.65C295.149 81.8667 294.307 82.5083 294.307 83.575C294.307 84.1417 294.541 84.6 295.007 84.95C295.474 85.2833 296.099 85.45 296.882 85.45C297.949 85.45 298.799 85.1333 299.432 84.5C300.082 83.8667 300.407 83.0333 300.407 82H301.282C301.282 83.5167 300.816 84.775 299.882 85.775C298.949 86.775 297.782 87.275 296.382 87.275C295.199 87.275 294.216 86.9417 293.432 86.275C292.666 85.5917 292.282 84.7167 292.282 83.65C292.299 82.6333 292.666 81.7917 293.382 81.125C294.116 80.4583 295.124 80.05 296.407 79.9L300.407 79.45V78.95C300.407 78.1833 300.107 77.5167 299.507 76.95C298.924 76.3833 298.207 76.1 297.357 76.1C296.591 76.1 295.907 76.3083 295.307 76.725C294.724 77.1417 294.357 77.6833 294.207 78.35L292.307 77.75C292.641 76.7 293.257 75.85 294.157 75.2C295.074 74.55 296.107 74.225 297.257 74.225C298.657 74.225 299.866 74.675 300.882 75.575C301.899 76.4583 302.407 77.5167 302.407 78.75V87H300.407V81.225ZM305.283 87V74.5H307.283V79.775H315.083V74.5H317.083V87H315.083V81.675H307.283V87H305.283ZM327.306 81.4H321.956V85.05H327.306C327.939 85.05 328.464 84.8833 328.881 84.55C329.298 84.2 329.506 83.775 329.506 83.275C329.506 82.7417 329.298 82.3 328.881 81.95C328.464 81.5833 327.939 81.4 327.306 81.4ZM327.556 79.5C328.673 79.5 329.606 79.8667 330.356 80.6C331.123 81.3333 331.506 82.2333 331.506 83.3C331.506 84.35 331.123 85.2333 330.356 85.95C329.606 86.65 328.673 87 327.556 87H319.956V74.5H321.956V79.5H327.556ZM340.585 76.975C341.018 76.075 341.651 75.3667 342.485 74.85C343.335 74.3167 344.276 74.05 345.31 74.05C346.61 74.05 347.693 74.425 348.56 75.175C349.443 75.9083 349.885 76.8333 349.885 77.95C349.885 78.5333 349.735 79.075 349.435 79.575C349.151 80.0583 348.751 80.4417 348.235 80.725C348.818 81.025 349.276 81.4583 349.61 82.025C349.96 82.575 350.135 83.1833 350.135 83.85C350.135 84.8833 349.676 85.7417 348.76 86.425C347.843 87.1083 346.701 87.45 345.335 87.45C344.168 87.45 343.118 87.1833 342.185 86.65C341.268 86.1 340.585 85.35 340.135 84.4L341.985 83.5C342.268 84.1167 342.701 84.6083 343.285 84.975C343.885 85.325 344.56 85.5 345.31 85.5C346.11 85.5 346.776 85.3167 347.31 84.95C347.86 84.5833 348.135 84.125 348.135 83.575C348.135 83.0083 347.901 82.5333 347.435 82.15C346.985 81.7667 346.418 81.575 345.735 81.575H343.735V79.925H345.735C346.351 79.925 346.86 79.7583 347.26 79.425C347.676 79.0917 347.885 78.675 347.885 78.175C347.885 77.5583 347.635 77.05 347.135 76.65C346.635 76.2333 346.01 76.025 345.26 76.025C344.643 76.025 344.085 76.1833 343.585 76.5C343.101 76.8167 342.735 77.25 342.485 77.8L340.585 76.975ZM363 79.8C362.9 78.6333 362.425 77.6917 361.575 76.975C360.725 76.2583 359.7 75.9 358.5 75.9C357.35 75.9 356.358 76.2583 355.525 76.975C354.708 77.675 354.225 78.6167 354.075 79.8H363ZM354.075 81.625C354.225 82.8083 354.725 83.7583 355.575 84.475C356.425 85.1917 357.433 85.55 358.6 85.55C359.5 85.55 360.316 85.3417 361.05 84.925C361.783 84.4917 362.333 83.9 362.7 83.15L364.55 83.875C364 84.975 363.191 85.85 362.125 86.5C361.075 87.1333 359.908 87.45 358.625 87.45C356.758 87.45 355.183 86.8167 353.9 85.55C352.633 84.2667 352 82.6583 352 80.725C352 78.7917 352.625 77.1917 353.875 75.925C355.125 74.6417 356.658 74 358.475 74C360.308 74 361.858 74.625 363.125 75.875C364.391 77.1083 365.025 78.6667 365.025 80.55C365.025 80.85 364.983 81.2083 364.9 81.625H354.075ZM367.317 85.05C368.017 85.05 368.559 84.8333 368.942 84.4C369.326 83.95 369.517 83.3833 369.517 82.7V74.5H378.392V87H376.392V76.45H371.517V83.025C371.517 84.1083 371.151 85.0417 370.417 85.825C369.684 86.6083 368.734 87 367.567 87H366.792V85.05H367.317ZM388.835 72.425C388.585 72.1583 388.46 71.8333 388.46 71.45C388.46 71.0667 388.585 70.75 388.835 70.5C389.101 70.2333 389.426 70.1 389.81 70.1C390.193 70.1 390.51 70.2333 390.76 70.5C391.026 70.75 391.16 71.0667 391.16 71.45C391.16 71.8333 391.026 72.1583 390.76 72.425C390.51 72.675 390.193 72.8 389.81 72.8C389.426 72.8 389.101 72.675 388.835 72.425ZM383.835 72.425C383.585 72.1583 383.46 71.8333 383.46 71.45C383.46 71.0667 383.585 70.75 383.835 70.5C384.101 70.2333 384.426 70.1 384.81 70.1C385.193 70.1 385.51 70.2333 385.76 70.5C386.026 70.75 386.16 71.0667 386.16 71.45C386.16 71.8333 386.026 72.1583 385.76 72.425C385.51 72.675 385.193 72.8 384.81 72.8C384.426 72.8 384.101 72.675 383.835 72.425ZM391.76 79.8C391.66 78.6333 391.185 77.6917 390.335 76.975C389.485 76.2583 388.46 75.9 387.26 75.9C386.11 75.9 385.118 76.2583 384.285 76.975C383.468 77.675 382.985 78.6167 382.835 79.8H391.76ZM382.835 81.625C382.985 82.8083 383.485 83.7583 384.335 84.475C385.185 85.1917 386.193 85.55 387.36 85.55C388.26 85.55 389.076 85.3417 389.81 84.925C390.543 84.4917 391.093 83.9 391.46 83.15L393.31 83.875C392.76 84.975 391.951 85.85 390.885 86.5C389.835 87.1333 388.668 87.45 387.385 87.45C385.518 87.45 383.943 86.8167 382.66 85.55C381.393 84.2667 380.76 82.6583 380.76 80.725C380.76 78.7917 381.385 77.1917 382.635 75.925C383.885 74.6417 385.418 74 387.235 74C389.068 74 390.618 74.625 391.885 75.875C393.151 77.1083 393.785 78.6667 393.785 80.55C393.785 80.85 393.743 81.2083 393.66 81.625H382.835ZM396.152 87V74.5H398.152V79.775H405.952V74.5H407.952V87H405.952V81.675H398.152V87H396.152ZM424.2 87V74.5H426.2V87H424.2ZM417.925 81.4H412.75V85.05H417.925C418.558 85.05 419.083 84.8833 419.5 84.55C419.917 84.2 420.125 83.775 420.125 83.275C420.125 82.7417 419.917 82.3 419.5 81.95C419.083 81.5833 418.558 81.4 417.925 81.4ZM418.175 79.5C419.292 79.5 420.225 79.8667 420.975 80.6C421.742 81.3333 422.125 82.2333 422.125 83.3C422.125 84.35 421.742 85.2333 420.975 85.95C420.225 86.65 419.292 87 418.175 87H410.75V74.5H412.75V79.5H418.175ZM440.637 87H438.237L434.512 82.05L430.837 87H428.387L433.087 80.75L428.387 74.5H430.837L434.512 79.45L438.237 74.5H440.637L435.937 80.75L440.637 87ZM452.445 77.3C451.528 78.1833 451.07 79.325 451.07 80.725C451.07 82.125 451.528 83.275 452.445 84.175C453.378 85.0583 454.512 85.5 455.845 85.5C457.178 85.5 458.303 85.0583 459.22 84.175C460.153 83.275 460.62 82.125 460.62 80.725C460.62 79.325 460.153 78.1833 459.22 77.3C458.303 76.4 457.178 75.95 455.845 75.95C454.512 75.95 453.378 76.4 452.445 77.3ZM451.02 85.55C449.72 84.2833 449.07 82.675 449.07 80.725C449.07 78.775 449.72 77.1667 451.02 75.9C452.337 74.6333 453.945 74 455.845 74C457.745 74 459.345 74.6333 460.645 75.9C461.962 77.1667 462.62 78.775 462.62 80.725C462.62 82.675 461.962 84.2833 460.645 85.55C459.345 86.8167 457.745 87.45 455.845 87.45C453.945 87.45 452.337 86.8167 451.02 85.55ZM474.824 74.5V76.4H470.574V87H468.574V76.4H464.324V74.5H474.824ZM486.836 74.5V76.4H482.586V87H480.586V76.4H476.336V74.5H486.836ZM499.548 79.8C499.448 78.6333 498.973 77.6917 498.123 76.975C497.273 76.2583 496.248 75.9 495.048 75.9C493.898 75.9 492.906 76.2583 492.073 76.975C491.256 77.675 490.773 78.6167 490.623 79.8H499.548ZM490.623 81.625C490.773 82.8083 491.273 83.7583 492.123 84.475C492.973 85.1917 493.981 85.55 495.148 85.55C496.048 85.55 496.864 85.3417 497.598 84.925C498.331 84.4917 498.881 83.9 499.248 83.15L501.098 83.875C500.548 84.975 499.739 85.85 498.673 86.5C497.623 87.1333 496.456 87.45 495.173 87.45C493.306 87.45 491.731 86.8167 490.448 85.55C489.181 84.2667 488.548 82.6583 488.548 80.725C488.548 78.7917 489.173 77.1917 490.423 75.925C491.673 74.6417 493.206 74 495.023 74C496.856 74 498.406 74.625 499.673 75.875C500.939 77.1083 501.573 78.6667 501.573 80.55C501.573 80.85 501.531 81.2083 501.448 81.625H490.623ZM503.94 87V74.5H505.94V79.775H513.74V74.5H515.74V87H513.74V81.675H505.94V87H503.94ZM518.613 87V74.5H520.613V79.75H521.263L526.363 74.5H528.963L523.013 80.75L528.963 87H526.363L521.263 81.825H520.613V87H518.613ZM534.013 77.3C533.096 78.1833 532.638 79.325 532.638 80.725C532.638 82.125 533.096 83.275 534.013 84.175C534.946 85.0583 536.079 85.5 537.413 85.5C538.746 85.5 539.871 85.0583 540.788 84.175C541.721 83.275 542.188 82.125 542.188 80.725C542.188 79.325 541.721 78.1833 540.788 77.3C539.871 76.4 538.746 75.95 537.413 75.95C536.079 75.95 534.946 76.4 534.013 77.3ZM532.588 85.55C531.288 84.2833 530.638 82.675 530.638 80.725C530.638 78.775 531.288 77.1667 532.588 75.9C533.904 74.6333 535.513 74 537.413 74C539.313 74 540.913 74.6333 542.213 75.9C543.529 77.1667 544.188 78.775 544.188 80.725C544.188 82.675 543.529 84.2833 542.213 85.55C540.913 86.8167 539.313 87.45 537.413 87.45C535.513 87.45 533.904 86.8167 532.588 85.55ZM553.617 76.325H548.592V79.85H553.842C554.408 79.85 554.883 79.7 555.267 79.4C555.65 79.0833 555.842 78.6917 555.842 78.225C555.842 77.675 555.625 77.225 555.192 76.875C554.775 76.5083 554.25 76.325 553.617 76.325ZM553.867 81.525H548.592V85.175H553.867C554.5 85.175 555.025 85.0083 555.442 84.675C555.875 84.325 556.092 83.9 556.092 83.4C556.092 82.85 555.875 82.4 555.442 82.05C555.025 81.7 554.5 81.525 553.867 81.525ZM554.117 87H546.592V74.5H553.867C555 74.5 555.942 74.8333 556.692 75.5C557.458 76.15 557.842 76.975 557.842 77.975C557.842 78.525 557.692 79.0333 557.392 79.5C557.108 79.95 556.708 80.3 556.192 80.55C556.775 80.8333 557.233 81.2417 557.567 81.775C557.917 82.3083 558.092 82.9083 558.092 83.575C558.092 84.5417 557.708 85.3583 556.942 86.025C556.192 86.675 555.25 87 554.117 87ZM559.859 85.7C559.859 85.25 560.009 84.875 560.309 84.575C560.609 84.2583 560.992 84.1 561.459 84.1C561.909 84.1 562.284 84.2583 562.584 84.575C562.9 84.875 563.059 85.25 563.059 85.7C563.059 86.1667 562.909 86.55 562.609 86.85C562.309 87.15 561.925 87.3 561.459 87.3C561.009 87.3 560.625 87.15 560.309 86.85C560.009 86.55 559.859 86.1667 559.859 85.7Z" fill="white"/>
<path d="M10 154H862" stroke="#32F59D"/>
</svg>
