<svg width="852" height="63" viewBox="0 0 852 63" fill="none" xmlns="http://www.w3.org/2000/svg">
<path d="M0 0.5H852" stroke="#32F59D"/>
<path d="M1.5 33.7V31.3H3.51V33.7H1.5ZM1.5 36.1V33.7H3.51V36.1H1.5ZM1.5 38.5V36.1H3.51V38.5H1.5ZM1.5 40.9V38.5H3.51V40.9H1.5ZM1.5 43.3V40.9H3.51V43.3H1.5ZM1.5 45.7V43.3H3.51V45.7H1.5ZM1.5 48.1V45.7H3.51V48.1H1.5ZM1.5 50.5V48.1H3.51V50.5H1.5ZM3.66 28.9V26.5H5.67V28.9H3.66ZM3.66 31.3V28.9H5.67V31.3H3.66ZM3.66 48.1V45.7H5.67V48.1H3.66ZM3.66 50.5V48.1H5.67V50.5H3.66ZM5.82 43.3V40.9H7.83V43.3H5.82ZM5.82 45.7V43.3H7.83V45.7H5.82ZM7.98 38.5V36.1H10.02V38.5H7.98ZM7.98 40.9V38.5H10.02V40.9H7.98ZM10.17 33.7V31.3H12.18V33.7H10.17ZM10.17 36.1V33.7H12.18V36.1H10.17ZM12.33 28.9V26.5H14.34V28.9H12.33ZM12.33 31.3V28.9H14.34V31.3H12.33ZM12.33 48.1V45.7H14.34V48.1H12.33ZM12.33 50.5V48.1H14.34V50.5H12.33ZM14.49 28.9V26.5H16.5V28.9H14.49ZM14.49 31.3V28.9H16.5V31.3H14.49ZM14.49 33.7V31.3H16.5V33.7H14.49ZM14.49 36.1V33.7H16.5V36.1H14.49ZM14.49 38.5V36.1H16.5V38.5H14.49ZM14.49 40.9V38.5H16.5V40.9H14.49ZM14.49 43.3V40.9H16.5V43.3H14.49ZM14.49 45.7V43.3H16.5V45.7H14.49ZM19.4883 28.9V26.5H21.4983V28.9H19.4883ZM19.4883 33.7V31.3H21.4983V33.7H19.4883ZM19.4883 36.1V33.7H21.4983V36.1H19.4883ZM19.4883 38.5V36.1H21.4983V38.5H19.4883ZM19.4883 40.9V38.5H21.4983V40.9H19.4883ZM19.4883 43.3V40.9H21.4983V43.3H19.4883ZM19.4883 45.7V43.3H21.4983V45.7H19.4883ZM19.4883 48.1V45.7H21.4983V48.1H19.4883ZM19.4883 50.5V48.1H21.4983V50.5H19.4883ZM21.6483 31.3V28.9H23.6583V31.3H21.6483ZM21.6483 33.7V31.3H23.6583V33.7H21.6483ZM21.6483 36.1V33.7H23.6583V36.1H21.6483ZM21.6483 40.9V38.5H23.6583V40.9H21.6483ZM21.6483 43.3V40.9H23.6583V43.3H21.6483ZM21.6483 50.5V48.1H23.6583V50.5H21.6483ZM23.8083 40.9V38.5H25.8183V40.9H23.8083ZM25.9683 38.5V36.1H28.0083V38.5H25.9683ZM25.9683 40.9V38.5H28.0083V40.9H25.9683ZM25.9683 43.3V40.9H28.0083V43.3H25.9683ZM28.1583 40.9V38.5H30.1683V40.9H28.1583ZM30.3183 31.3V28.9H32.3283V31.3H30.3183ZM30.3183 33.7V31.3H32.3283V33.7H30.3183ZM30.3183 36.1V33.7H32.3283V36.1H30.3183ZM30.3183 40.9V38.5H32.3283V40.9H30.3183ZM30.3183 43.3V40.9H32.3283V43.3H30.3183ZM30.3183 50.5V48.1H32.3283V50.5H30.3183ZM32.4783 28.9V26.5H34.4883V28.9H32.4783ZM32.4783 33.7V31.3H34.4883V33.7H32.4783ZM32.4783 36.1V33.7H34.4883V36.1H32.4783ZM32.4783 38.5V36.1H34.4883V38.5H32.4783ZM32.4783 40.9V38.5H34.4883V40.9H32.4783ZM32.4783 43.3V40.9H34.4883V43.3H32.4783ZM32.4783 45.7V43.3H34.4883V45.7H32.4783ZM32.4783 48.1V45.7H34.4883V48.1H32.4783ZM32.4783 50.5V48.1H34.4883V50.5H32.4783ZM37.4766 36.1V33.7H39.4866V36.1H37.4766ZM39.6366 28.9V26.5H41.6466V28.9H39.6366ZM39.6366 33.7V31.3H41.6466V33.7H39.6366ZM39.6366 36.1V33.7H41.6466V36.1H39.6366ZM39.6366 40.9V38.5H41.6466V40.9H39.6366ZM41.7966 31.3V28.9H43.8066V31.3H41.7966ZM41.7966 38.5V36.1H43.8066V38.5H41.7966ZM41.7966 50.5V48.1H43.8066V50.5H41.7966ZM43.9566 28.9V26.5H45.9966V28.9H43.9566ZM43.9566 31.3V28.9H45.9966V31.3H43.9566ZM43.9566 33.7V31.3H45.9966V33.7H43.9566ZM43.9566 36.1V33.7H45.9966V36.1H43.9566ZM43.9566 38.5V36.1H45.9966V38.5H43.9566ZM43.9566 40.9V38.5H45.9966V40.9H43.9566ZM43.9566 43.3V40.9H45.9966V43.3H43.9566ZM43.9566 45.7V43.3H45.9966V45.7H43.9566ZM43.9566 48.1V45.7H45.9966V48.1H43.9566ZM43.9566 50.5V48.1H45.9966V50.5H43.9566ZM46.1466 31.3V28.9H48.1566V31.3H46.1466ZM46.1466 38.5V36.1H48.1566V38.5H46.1466ZM46.1466 50.5V48.1H48.1566V50.5H46.1466ZM48.3066 28.9V26.5H50.3166V28.9H48.3066ZM48.3066 33.7V31.3H50.3166V33.7H48.3066ZM48.3066 36.1V33.7H50.3166V36.1H48.3066ZM48.3066 40.9V38.5H50.3166V40.9H48.3066ZM50.4666 36.1V33.7H52.4766V36.1H50.4666ZM55.4648 31.3V28.9H57.4748V31.3H55.4648ZM55.4648 33.7V31.3H57.4748V33.7H55.4648ZM55.4648 36.1V33.7H57.4748V36.1H55.4648ZM55.4648 38.5V36.1H57.4748V38.5H55.4648ZM55.4648 40.9V38.5H57.4748V40.9H55.4648ZM55.4648 43.3V40.9H57.4748V43.3H55.4648ZM55.4648 45.7V43.3H57.4748V45.7H55.4648ZM55.4648 48.1V45.7H57.4748V48.1H55.4648ZM57.6248 28.9V26.5H59.6348V28.9H57.6248ZM57.6248 31.3V28.9H59.6348V31.3H57.6248ZM57.6248 48.1V45.7H59.6348V48.1H57.6248ZM57.6248 50.5V48.1H59.6348V50.5H57.6248ZM59.7848 28.9V26.5H61.7948V28.9H59.7848ZM59.7848 50.5V48.1H61.7948V50.5H59.7848ZM61.9448 28.9V26.5H63.9848V28.9H61.9448ZM61.9448 38.5V36.1H63.9848V38.5H61.9448ZM61.9448 40.9V38.5H63.9848V40.9H61.9448ZM61.9448 50.5V48.1H63.9848V50.5H61.9448ZM64.1348 28.9V26.5H66.1448V28.9H64.1348ZM64.1348 50.5V48.1H66.1448V50.5H64.1348ZM66.2948 28.9V26.5H68.3048V28.9H66.2948ZM66.2948 31.3V28.9H68.3048V31.3H66.2948ZM66.2948 48.1V45.7H68.3048V48.1H66.2948ZM66.2948 50.5V48.1H68.3048V50.5H66.2948ZM68.4548 31.3V28.9H70.4648V31.3H68.4548ZM68.4548 33.7V31.3H70.4648V33.7H68.4548ZM68.4548 36.1V33.7H70.4648V36.1H68.4548ZM68.4548 38.5V36.1H70.4648V38.5H68.4548ZM68.4548 40.9V38.5H70.4648V40.9H68.4548ZM68.4548 43.3V40.9H70.4648V43.3H68.4548ZM68.4548 45.7V43.3H70.4648V45.7H68.4548ZM68.4548 48.1V45.7H70.4648V48.1H68.4548ZM73.4531 31.3V28.9H75.4631V31.3H73.4531ZM73.4531 33.7V31.3H75.4631V33.7H73.4531ZM73.4531 36.1V33.7H75.4631V36.1H73.4531ZM73.4531 38.5V36.1H75.4631V38.5H73.4531ZM73.4531 40.9V38.5H75.4631V40.9H73.4531ZM73.4531 43.3V40.9H75.4631V43.3H73.4531ZM73.4531 45.7V43.3H75.4631V45.7H73.4531ZM73.4531 48.1V45.7H75.4631V48.1H73.4531ZM73.4531 50.5V48.1H75.4631V50.5H73.4531ZM75.6131 28.9V26.5H77.6231V28.9H75.6131ZM75.6131 31.3V28.9H77.6231V31.3H75.6131ZM75.6131 38.5V36.1H77.6231V38.5H75.6131ZM75.6131 40.9V38.5H77.6231V40.9H75.6131ZM77.7731 28.9V26.5H79.7831V28.9H77.7731ZM77.7731 40.9V38.5H79.7831V40.9H77.7731ZM79.9331 28.9V26.5H81.9731V28.9H79.9331ZM79.9331 40.9V38.5H81.9731V40.9H79.9331ZM82.1231 28.9V26.5H84.1331V28.9H82.1231ZM82.1231 40.9V38.5H84.1331V40.9H82.1231ZM84.2831 28.9V26.5H86.2931V28.9H84.2831ZM84.2831 31.3V28.9H86.2931V31.3H84.2831ZM84.2831 38.5V36.1H86.2931V38.5H84.2831ZM84.2831 40.9V38.5H86.2931V40.9H84.2831ZM86.4431 31.3V28.9H88.4531V31.3H86.4431ZM86.4431 33.7V31.3H88.4531V33.7H86.4431ZM86.4431 36.1V33.7H88.4531V36.1H86.4431ZM86.4431 38.5V36.1H88.4531V38.5H86.4431ZM91.4414 36.1V33.7H93.4514V36.1H91.4414ZM91.4414 45.7V43.3H93.4514V45.7H91.4414ZM91.4414 48.1V45.7H93.4514V48.1H91.4414ZM91.4414 50.5V48.1H93.4514V50.5H91.4414ZM93.6014 28.9V26.5H95.6114V28.9H93.6014ZM93.6014 38.5V36.1H95.6114V38.5H93.6014ZM93.6014 40.9V38.5H95.6114V40.9H93.6014ZM93.6014 43.3V40.9H95.6114V43.3H93.6014ZM93.6014 45.7V43.3H95.6114V45.7H93.6014ZM95.7614 31.3V28.9H97.7714V31.3H95.7614ZM95.7614 33.7V31.3H97.7714V33.7H95.7614ZM95.7614 36.1V33.7H97.7714V36.1H95.7614ZM95.7614 38.5V36.1H97.7714V38.5H95.7614ZM97.9214 28.9V26.5H99.9614V28.9H97.9214ZM97.9214 31.3V28.9H99.9614V31.3H97.9214ZM97.9214 38.5V36.1H99.9614V38.5H97.9214ZM97.9214 40.9V38.5H99.9614V40.9H97.9214ZM97.9214 43.3V40.9H99.9614V43.3H97.9214ZM97.9214 45.7V43.3H99.9614V45.7H97.9214ZM97.9214 48.1V45.7H99.9614V48.1H97.9214ZM97.9214 50.5V48.1H99.9614V50.5H97.9214ZM100.111 31.3V28.9H102.121V31.3H100.111ZM100.111 33.7V31.3H102.121V33.7H100.111ZM100.111 36.1V33.7H102.121V36.1H100.111ZM100.111 38.5V36.1H102.121V38.5H100.111ZM102.271 28.9V26.5H104.281V28.9H102.271ZM102.271 38.5V36.1H104.281V38.5H102.271ZM102.271 40.9V38.5H104.281V40.9H102.271ZM102.271 43.3V40.9H104.281V43.3H102.271ZM102.271 45.7V43.3H104.281V45.7H102.271ZM104.431 36.1V33.7H106.441V36.1H104.431ZM104.431 45.7V43.3H106.441V45.7H104.431ZM104.431 48.1V45.7H106.441V48.1H104.431ZM104.431 50.5V48.1H106.441V50.5H104.431ZM109.43 33.7V31.3H111.44V33.7H109.43ZM109.43 36.1V33.7H111.44V36.1H109.43ZM109.43 38.5V36.1H111.44V38.5H109.43ZM109.43 40.9V38.5H111.44V40.9H109.43ZM109.43 43.3V40.9H111.44V43.3H109.43ZM109.43 45.7V43.3H111.44V45.7H109.43ZM109.43 48.1V45.7H111.44V48.1H109.43ZM109.43 50.5V48.1H111.44V50.5H109.43ZM111.59 31.3V28.9H113.6V31.3H111.59ZM111.59 33.7V31.3H113.6V33.7H111.59ZM111.59 40.9V38.5H113.6V40.9H111.59ZM111.59 50.5V48.1H113.6V50.5H111.59ZM113.75 28.9V26.5H115.76V28.9H113.75ZM113.75 31.3V28.9H115.76V31.3H113.75ZM113.75 43.3V40.9H115.76V43.3H113.75ZM115.91 28.9V26.5H117.95V28.9H115.91ZM115.91 33.7V31.3H117.95V33.7H115.91ZM115.91 43.3V40.9H117.95V43.3H115.91ZM118.1 28.9V26.5H120.11V28.9H118.1ZM118.1 31.3V28.9H120.11V31.3H118.1ZM118.1 43.3V40.9H120.11V43.3H118.1ZM120.26 31.3V28.9H122.27V31.3H120.26ZM120.26 33.7V31.3H122.27V33.7H120.26ZM120.26 40.9V38.5H122.27V40.9H120.26ZM120.26 50.5V48.1H122.27V50.5H120.26ZM122.42 33.7V31.3H124.43V33.7H122.42ZM122.42 36.1V33.7H124.43V36.1H122.42ZM122.42 38.5V36.1H124.43V38.5H122.42ZM122.42 40.9V38.5H124.43V40.9H122.42ZM122.42 43.3V40.9H124.43V43.3H122.42ZM122.42 45.7V43.3H124.43V45.7H122.42ZM122.42 48.1V45.7H124.43V48.1H122.42ZM122.42 50.5V48.1H124.43V50.5H122.42ZM127.418 28.9V26.5H129.428V28.9H127.418ZM127.418 31.3V28.9H129.428V31.3H127.418ZM127.418 33.7V31.3H129.428V33.7H127.418ZM127.418 36.1V33.7H129.428V36.1H127.418ZM127.418 40.9V38.5H129.428V40.9H127.418ZM127.418 43.3V40.9H129.428V43.3H127.418ZM127.418 45.7V43.3H129.428V45.7H127.418ZM127.418 48.1V45.7H129.428V48.1H127.418ZM129.578 28.9V26.5H131.588V28.9H129.578ZM129.578 36.1V33.7H131.588V36.1H129.578ZM129.578 38.5V36.1H131.588V38.5H129.578ZM129.578 40.9V38.5H131.588V40.9H129.578ZM129.578 48.1V45.7H131.588V48.1H129.578ZM129.578 50.5V48.1H131.588V50.5H129.578ZM131.738 50.5V48.1H133.748V50.5H131.738ZM133.898 38.5V36.1H135.938V38.5H133.898ZM133.898 50.5V48.1H135.938V50.5H133.898ZM136.088 50.5V48.1H138.098V50.5H136.088ZM138.248 28.9V26.5H140.258V28.9H138.248ZM138.248 36.1V33.7H140.258V36.1H138.248ZM138.248 38.5V36.1H140.258V38.5H138.248ZM138.248 40.9V38.5H140.258V40.9H138.248ZM138.248 48.1V45.7H140.258V48.1H138.248ZM140.408 28.9V26.5H142.418V28.9H140.408ZM140.408 31.3V28.9H142.418V31.3H140.408ZM140.408 33.7V31.3H142.418V33.7H140.408ZM140.408 36.1V33.7H142.418V36.1H140.408ZM140.408 40.9V38.5H142.418V40.9H140.408ZM140.408 43.3V40.9H142.418V43.3H140.408ZM140.408 45.7V43.3H142.418V45.7H140.408ZM140.408 50.5V48.1H142.418V50.5H140.408ZM145.406 33.7V31.3H147.416V33.7H145.406ZM145.406 36.1V33.7H147.416V36.1H145.406ZM145.406 38.5V36.1H147.416V38.5H145.406ZM145.406 40.9V38.5H147.416V40.9H145.406ZM145.406 43.3V40.9H147.416V43.3H145.406ZM145.406 45.7V43.3H147.416V45.7H145.406ZM145.406 48.1V45.7H147.416V48.1H145.406ZM145.406 50.5V48.1H147.416V50.5H145.406ZM147.566 28.9V26.5H149.576V28.9H147.566ZM147.566 31.3V28.9H149.576V31.3H147.566ZM147.566 48.1V45.7H149.576V48.1H147.566ZM147.566 50.5V48.1H149.576V50.5H147.566ZM149.726 43.3V40.9H151.736V43.3H149.726ZM149.726 45.7V43.3H151.736V45.7H149.726ZM151.886 38.5V36.1H153.926V38.5H151.886ZM151.886 40.9V38.5H153.926V40.9H151.886ZM154.076 33.7V31.3H156.086V33.7H154.076ZM154.076 36.1V33.7H156.086V36.1H154.076ZM156.236 28.9V26.5H158.246V28.9H156.236ZM156.236 31.3V28.9H158.246V31.3H156.236ZM156.236 48.1V45.7H158.246V48.1H156.236ZM156.236 50.5V48.1H158.246V50.5H156.236ZM158.396 28.9V26.5H160.406V28.9H158.396ZM158.396 31.3V28.9H160.406V31.3H158.396ZM158.396 33.7V31.3H160.406V33.7H158.396ZM158.396 36.1V33.7H160.406V36.1H158.396ZM158.396 38.5V36.1H160.406V38.5H158.396ZM158.396 40.9V38.5H160.406V40.9H158.396ZM158.396 43.3V40.9H160.406V43.3H158.396ZM158.396 45.7V43.3H160.406V45.7H158.396ZM165.555 31.3V28.9H167.565V31.3H165.555ZM165.555 33.7V31.3H167.565V33.7H165.555ZM165.555 36.1V33.7H167.565V36.1H165.555ZM165.555 48.1V45.7H167.565V48.1H165.555ZM167.715 28.9V26.5H169.725V28.9H167.715ZM167.715 38.5V36.1H169.725V38.5H167.715ZM167.715 50.5V48.1H169.725V50.5H167.715ZM169.875 28.9V26.5H171.915V28.9H169.875ZM169.875 38.5V36.1H171.915V38.5H169.875ZM169.875 48.1V45.7H171.915V48.1H169.875ZM172.065 28.9V26.5H174.075V28.9H172.065ZM172.065 38.5V36.1H174.075V38.5H172.065ZM172.065 43.3V40.9H174.075V43.3H172.065ZM172.065 45.7V43.3H174.075V45.7H172.065ZM174.225 28.9V26.5H176.235V28.9H174.225ZM174.225 33.7V31.3H176.235V33.7H174.225ZM174.225 38.5V36.1H176.235V38.5H174.225ZM174.225 40.9V38.5H176.235V40.9H174.225ZM174.225 50.5V48.1H176.235V50.5H174.225ZM176.385 31.3V28.9H178.395V31.3H176.385ZM176.385 36.1V33.7H178.395V36.1H176.385ZM176.385 38.5V36.1H178.395V38.5H176.385ZM176.385 40.9V38.5H178.395V40.9H176.385ZM176.385 43.3V40.9H178.395V43.3H176.385ZM176.385 45.7V43.3H178.395V45.7H176.385ZM176.385 48.1V45.7H178.395V48.1H176.385ZM176.385 50.5V48.1H178.395V50.5H176.385Z" fill="white"/>
</svg>
