<svg width="853" height="52" viewBox="0 0 853 52" fill="none" xmlns="http://www.w3.org/2000/svg">
<path d="M18.84 45.5H16.44V27.98L4.59 45.5H1.74V24.5H4.14V41.81L15.96 24.5H18.84V45.5ZM22.2771 45.5V30.5H24.6771V36.83H34.0371V30.5H36.4371V45.5H34.0371V39.11H24.6771V45.5H22.2771ZM46.4845 51.2V25.1H48.8245V51.2H46.4845ZM43.4245 33.86C42.2645 34.92 41.6845 36.29 41.6845 37.97C41.6845 39.65 42.2645 41.03 43.4245 42.11C44.5845 43.17 46.0145 43.7 47.7145 43.7C49.4145 43.7 50.8445 43.17 52.0045 42.11C53.1645 41.03 53.7445 39.65 53.7445 37.97C53.7445 36.29 53.1645 34.92 52.0045 33.86C50.8445 32.78 49.4145 32.24 47.7145 32.24C46.0145 32.24 44.5845 32.78 43.4245 33.86ZM41.7145 43.76C40.0945 42.24 39.2845 40.31 39.2845 37.97C39.2845 35.63 40.0945 33.7 41.7145 32.18C43.3545 30.66 45.3545 29.9 47.7145 29.9C50.0745 29.9 52.0645 30.66 53.6845 32.18C55.3245 33.7 56.1445 35.63 56.1445 37.97C56.1445 40.31 55.3245 42.24 53.6845 43.76C52.0645 45.28 50.0745 46.04 47.7145 46.04C45.3545 46.04 43.3545 45.28 41.7145 43.76ZM62.4654 33.86C61.3654 34.92 60.8154 36.29 60.8154 37.97C60.8154 39.65 61.3654 41.03 62.4654 42.11C63.5854 43.17 64.9454 43.7 66.5454 43.7C68.1454 43.7 69.4954 43.17 70.5954 42.11C71.7154 41.03 72.2754 39.65 72.2754 37.97C72.2754 36.29 71.7154 34.92 70.5954 33.86C69.4954 32.78 68.1454 32.24 66.5454 32.24C64.9454 32.24 63.5854 32.78 62.4654 33.86ZM60.7554 43.76C59.1954 42.24 58.4154 40.31 58.4154 37.97C58.4154 35.63 59.1954 33.7 60.7554 32.18C62.3354 30.66 64.2654 29.9 66.5454 29.9C68.8254 29.9 70.7454 30.66 72.3054 32.18C73.8854 33.7 74.6754 35.63 74.6754 37.97C74.6754 40.31 73.8854 42.24 72.3054 43.76C70.7454 45.28 68.8254 46.04 66.5454 46.04C64.2654 46.04 62.3354 45.28 60.7554 43.76ZM77.5603 30.5H79.9603V51.5H77.5603V30.5ZM81.6103 33.89C80.5103 34.97 79.9603 36.35 79.9603 38.03C79.9603 39.69 80.5103 41.06 81.6103 42.14C82.7303 43.22 84.0903 43.76 85.6903 43.76C87.2903 43.76 88.6403 43.22 89.7403 42.14C90.8603 41.06 91.4203 39.69 91.4203 38.03C91.4203 36.35 90.8603 34.97 89.7403 33.89C88.6403 32.81 87.2903 32.27 85.6903 32.27C84.0903 32.27 82.7303 32.81 81.6103 33.89ZM80.9503 43.82C79.5303 42.28 78.8203 40.35 78.8203 38.03C78.8203 35.69 79.5303 33.76 80.9503 32.24C82.3703 30.72 84.1203 29.96 86.2003 29.96C88.3403 29.96 90.1403 30.72 91.6003 32.24C93.0803 33.76 93.8203 35.69 93.8203 38.03C93.8203 40.35 93.0803 42.28 91.6003 43.82C90.1403 45.34 88.3403 46.1 86.2003 46.1C84.1203 46.1 82.3703 45.34 80.9503 43.82ZM96.6912 45.5V30.5H99.5112L105.391 40.4L111.271 30.5H114.091V45.5H111.691V33.98L106.231 43.28H104.581L99.0912 33.98V45.5H96.6912ZM126.7 38.57L122.41 39.08C120.39 39.34 119.38 40.11 119.38 41.39C119.38 42.07 119.66 42.62 120.22 43.04C120.78 43.44 121.53 43.64 122.47 43.64C123.75 43.64 124.77 43.26 125.53 42.5C126.31 41.74 126.7 40.74 126.7 39.5H127.75C127.75 41.32 127.19 42.83 126.07 44.03C124.95 45.23 123.55 45.83 121.87 45.83C120.45 45.83 119.27 45.43 118.33 44.63C117.41 43.81 116.95 42.76 116.95 41.48C116.97 40.26 117.41 39.25 118.27 38.45C119.15 37.65 120.36 37.16 121.9 36.98L126.7 36.44V35.84C126.7 34.92 126.34 34.12 125.62 33.44C124.92 32.76 124.06 32.42 123.04 32.42C122.12 32.42 121.3 32.67 120.58 33.17C119.88 33.67 119.44 34.32 119.26 35.12L116.98 34.4C117.38 33.14 118.12 32.12 119.2 31.34C120.3 30.56 121.54 30.17 122.92 30.17C124.6 30.17 126.05 30.71 127.27 31.79C128.49 32.85 129.1 34.12 129.1 35.6V45.5H126.7V38.57ZM132.551 45.5V30.5H134.951V43.22H143.771V30.5H146.171V43.22H148.031V48.98H145.631V45.5H132.551ZM164.156 45.5H161.756V33.5L153.506 45.5H150.656V30.5H153.056V42.2L161.276 30.5H164.156V45.5ZM172.479 37.82H178.059V32.84H172.479C171.639 32.84 170.929 33.08 170.349 33.56C169.789 34.02 169.509 34.59 169.509 35.27C169.509 36.01 169.789 36.62 170.349 37.1C170.929 37.58 171.639 37.82 172.479 37.82ZM174.219 40.01L169.959 45.5H167.019L171.459 39.86C170.179 39.78 169.119 39.3 168.279 38.42C167.439 37.54 167.019 36.48 167.019 35.24C167.019 33.9 167.509 32.78 168.489 31.88C169.469 30.96 170.689 30.5 172.149 30.5H180.459V45.5H178.059V40.01H174.219Z" fill="white"/>
<path d="M637.82 32.5C639.62 32.5 641.14 33.09 642.38 34.27C643.64 35.43 644.27 36.86 644.27 38.56C644.27 40.26 643.68 41.68 642.5 42.82C641.34 43.94 639.88 44.5 638.12 44.5H627.74V23.5H641.42V25.81H630.14V32.5H637.82ZM637.82 42.16C638.98 42.16 639.94 41.82 640.7 41.14C641.48 40.46 641.87 39.6 641.87 38.56C641.87 37.5 641.48 36.62 640.7 35.92C639.94 35.2 638.98 34.84 637.82 34.84H630.14V42.16H637.82ZM650.672 32.86C649.572 33.92 649.022 35.29 649.022 36.97C649.022 38.65 649.572 40.03 650.672 41.11C651.792 42.17 653.152 42.7 654.752 42.7C656.352 42.7 657.702 42.17 658.802 41.11C659.922 40.03 660.482 38.65 660.482 36.97C660.482 35.29 659.922 33.92 658.802 32.86C657.702 31.78 656.352 31.24 654.752 31.24C653.152 31.24 651.792 31.78 650.672 32.86ZM648.962 42.76C647.402 41.24 646.622 39.31 646.622 36.97C646.622 34.63 647.402 32.7 648.962 31.18C650.542 29.66 652.472 28.9 654.752 28.9C657.032 28.9 658.952 29.66 660.512 31.18C662.092 32.7 662.882 34.63 662.882 36.97C662.882 39.31 662.092 41.24 660.512 42.76C658.952 44.28 657.032 45.04 654.752 45.04C652.472 45.04 650.542 44.28 648.962 42.76ZM665.677 42.16C666.517 42.16 667.167 41.9 667.627 41.38C668.087 40.84 668.317 40.16 668.317 39.34V29.5H678.967V44.5H676.567V31.84H670.717V39.73C670.717 41.03 670.277 42.15 669.397 43.09C668.517 44.03 667.377 44.5 665.977 44.5H665.047V42.16H665.677ZM691.228 37.78H684.808V42.16H691.228C691.988 42.16 692.618 41.96 693.118 41.56C693.618 41.14 693.868 40.63 693.868 40.03C693.868 39.39 693.618 38.86 693.118 38.44C692.618 38 691.988 37.78 691.228 37.78ZM691.528 35.5C692.868 35.5 693.988 35.94 694.888 36.82C695.808 37.7 696.268 38.78 696.268 40.06C696.268 41.32 695.808 42.38 694.888 43.24C693.988 44.08 692.868 44.5 691.528 44.5H682.408V29.5H684.808V35.5H691.528ZM720.856 44.5H699.136V29.5H701.536V42.22H708.796V29.5H711.196V42.22H718.456V29.5H720.856V44.5ZM727.782 32.86C726.682 33.92 726.132 35.29 726.132 36.97C726.132 38.65 726.682 40.03 727.782 41.11C728.902 42.17 730.262 42.7 731.862 42.7C733.462 42.7 734.812 42.17 735.912 41.11C737.032 40.03 737.592 38.65 737.592 36.97C737.592 35.29 737.032 33.92 735.912 32.86C734.812 31.78 733.462 31.24 731.862 31.24C730.262 31.24 728.902 31.78 727.782 32.86ZM726.072 42.76C724.512 41.24 723.732 39.31 723.732 36.97C723.732 34.63 724.512 32.7 726.072 31.18C727.652 29.66 729.582 28.9 731.862 28.9C734.142 28.9 736.062 29.66 737.622 31.18C739.202 32.7 739.992 34.63 739.992 36.97C739.992 39.31 739.202 41.24 737.622 42.76C736.062 44.28 734.142 45.04 731.862 45.04C729.582 45.04 727.652 44.28 726.072 42.76ZM749.687 27.22C748.307 27.22 747.137 26.77 746.177 25.87C745.217 24.95 744.737 23.85 744.737 22.57H746.747C746.747 23.37 747.027 24.03 747.587 24.55C748.147 25.07 748.857 25.33 749.717 25.33C750.597 25.33 751.337 25.06 751.937 24.52C752.557 23.98 752.867 23.33 752.867 22.57H754.877C754.877 23.81 754.357 24.9 753.317 25.84C752.297 26.76 751.087 27.22 749.687 27.22ZM756.377 44.5H753.977V32.5L745.727 44.5H742.877V29.5H745.277V41.2L753.497 29.5H756.377V44.5ZM778.006 32.5C779.806 32.5 781.326 33.09 782.566 34.27C783.826 35.43 784.456 36.86 784.456 38.56C784.456 40.26 783.866 41.68 782.686 42.82C781.526 43.94 780.066 44.5 778.306 44.5H767.926V23.5H781.606V25.81H770.326V32.5H778.006ZM778.006 42.16C779.166 42.16 780.126 41.82 780.886 41.14C781.666 40.46 782.056 39.6 782.056 38.56C782.056 37.5 781.666 36.62 780.886 35.92C780.126 35.2 779.166 34.84 778.006 34.84H770.326V42.16H778.006ZM796.528 37.57L792.238 38.08C790.218 38.34 789.208 39.11 789.208 40.39C789.208 41.07 789.488 41.62 790.048 42.04C790.608 42.44 791.358 42.64 792.298 42.64C793.578 42.64 794.598 42.26 795.358 41.5C796.138 40.74 796.528 39.74 796.528 38.5H797.578C797.578 40.32 797.018 41.83 795.898 43.03C794.778 44.23 793.378 44.83 791.698 44.83C790.278 44.83 789.098 44.43 788.158 43.63C787.238 42.81 786.778 41.76 786.778 40.48C786.798 39.26 787.238 38.25 788.098 37.45C788.978 36.65 790.188 36.16 791.728 35.98L796.528 35.44V34.84C796.528 33.92 796.168 33.12 795.448 32.44C794.748 31.76 793.888 31.42 792.868 31.42C791.948 31.42 791.128 31.67 790.408 32.17C789.708 32.67 789.268 33.32 789.088 34.12L786.808 33.4C787.208 32.14 787.948 31.12 789.028 30.34C790.128 29.56 791.368 29.17 792.748 29.17C794.428 29.17 795.878 29.71 797.098 30.79C798.318 31.85 798.928 33.12 798.928 34.6V44.5H796.528V37.57ZM802.379 29.5H804.779V50.5H802.379V29.5ZM806.429 32.89C805.329 33.97 804.779 35.35 804.779 37.03C804.779 38.69 805.329 40.06 806.429 41.14C807.549 42.22 808.909 42.76 810.509 42.76C812.109 42.76 813.459 42.22 814.559 41.14C815.679 40.06 816.239 38.69 816.239 37.03C816.239 35.35 815.679 33.97 814.559 32.89C813.459 31.81 812.109 31.27 810.509 31.27C808.909 31.27 807.549 31.81 806.429 32.89ZM805.769 42.82C804.349 41.28 803.639 39.35 803.639 37.03C803.639 34.69 804.349 32.76 805.769 31.24C807.189 29.72 808.939 28.96 811.019 28.96C813.159 28.96 814.959 29.72 816.419 31.24C817.899 32.76 818.639 34.69 818.639 37.03C818.639 39.35 817.899 41.28 816.419 42.82C814.959 44.34 813.159 45.1 811.019 45.1C808.939 45.1 807.189 44.34 805.769 42.82ZM830.63 37.57L826.34 38.08C824.32 38.34 823.31 39.11 823.31 40.39C823.31 41.07 823.59 41.62 824.15 42.04C824.71 42.44 825.46 42.64 826.4 42.64C827.68 42.64 828.7 42.26 829.46 41.5C830.24 40.74 830.63 39.74 830.63 38.5H831.68C831.68 40.32 831.12 41.83 830 43.03C828.88 44.23 827.48 44.83 825.8 44.83C824.38 44.83 823.2 44.43 822.26 43.63C821.34 42.81 820.88 41.76 820.88 40.48C820.9 39.26 821.34 38.25 822.2 37.45C823.08 36.65 824.29 36.16 825.83 35.98L830.63 35.44V34.84C830.63 33.92 830.27 33.12 829.55 32.44C828.85 31.76 827.99 31.42 826.97 31.42C826.05 31.42 825.23 31.67 824.51 32.17C823.81 32.67 823.37 33.32 823.19 34.12L820.91 33.4C821.31 32.14 822.05 31.12 823.13 30.34C824.23 29.56 825.47 29.17 826.85 29.17C828.53 29.17 829.98 29.71 831.2 30.79C832.42 31.85 833.03 33.12 833.03 34.6V44.5H830.63V37.57ZM836.48 44.5V29.5H838.88V35.83H848.24V29.5H850.64V44.5H848.24V38.11H838.88V44.5H836.48Z" fill="white"/>
<path d="M0 0.5H852" stroke="#32F59D"/>
</svg>
