<svg width="259" height="57" viewBox="0 0 259 57" fill="none" xmlns="http://www.w3.org/2000/svg">
<path d="M35.9 51H29.45V33.5H35.9C38.3333 33.5 40.3833 34.325 42.05 35.975C43.7333 37.6083 44.575 39.6917 44.575 42.225C44.575 44.7583 43.7333 46.8583 42.05 48.525C40.3833 50.175 38.3333 51 35.9 51ZM35.65 35.425H31.45V49.075H35.65C37.5833 49.075 39.2167 48.4333 40.55 47.15C41.9 45.8667 42.575 44.225 42.575 42.225C42.575 40.2417 41.9 38.6167 40.55 37.35C39.2167 36.0667 37.5833 35.425 35.65 35.425ZM57.4549 43.8C57.3549 42.6333 56.8799 41.6917 56.0299 40.975C55.1799 40.2583 54.1549 39.9 52.9549 39.9C51.8049 39.9 50.8132 40.2583 49.9799 40.975C49.1632 41.675 48.6799 42.6167 48.5299 43.8H57.4549ZM48.5299 45.625C48.6799 46.8083 49.1799 47.7583 50.0299 48.475C50.8799 49.1917 51.8882 49.55 53.0549 49.55C53.9549 49.55 54.7715 49.3417 55.5049 48.925C56.2382 48.4917 56.7882 47.9 57.1549 47.15L59.0049 47.875C58.4549 48.975 57.6466 49.85 56.5799 50.5C55.5299 51.1333 54.3632 51.45 53.0799 51.45C51.2132 51.45 49.6382 50.8167 48.3549 49.55C47.0882 48.2667 46.4549 46.6583 46.4549 44.725C46.4549 42.7917 47.0799 41.1917 48.3299 39.925C49.5799 38.6417 51.1132 38 52.9299 38C54.7632 38 56.3132 38.625 57.5799 39.875C58.8465 41.1083 59.4799 42.6667 59.4799 44.55C59.4799 44.85 59.4382 45.2083 59.3549 45.625H48.5299ZM66.2975 45.6C63.1975 45.0667 61.6475 43.8417 61.6475 41.925C61.6475 40.8417 62.0641 39.95 62.8975 39.25C63.7308 38.5333 64.7725 38.175 66.0225 38.175C67.1725 38.175 68.2058 38.4917 69.1225 39.125C70.0558 39.7583 70.7225 40.6083 71.1225 41.675L69.2225 42.35C68.9391 41.6167 68.5141 41.0417 67.9475 40.625C67.3975 40.2083 66.7725 40 66.0725 40C65.3725 40 64.7891 40.175 64.3225 40.525C63.8725 40.875 63.6475 41.3083 63.6475 41.825C63.6475 42.3083 63.8725 42.7 64.3225 43C64.7891 43.3 65.5308 43.5417 66.5475 43.725C69.8141 44.2917 71.4475 45.575 71.4475 47.575C71.4475 48.625 70.9891 49.5083 70.0725 50.225C69.1725 50.925 68.0725 51.275 66.7725 51.275C65.5558 51.275 64.4475 50.975 63.4475 50.375C62.4641 49.775 61.7641 48.9667 61.3475 47.95L63.1725 47.175C63.4891 47.8917 63.9558 48.4583 64.5725 48.875C65.2058 49.2917 65.9225 49.5 66.7225 49.5C67.5058 49.5 68.1558 49.325 68.6725 48.975C69.1891 48.6083 69.4475 48.15 69.4475 47.6C69.4475 46.6333 68.3975 45.9667 66.2975 45.6ZM73.8104 36.075C73.5437 35.8083 73.4104 35.4833 73.4104 35.1C73.4104 34.7167 73.5437 34.4 73.8104 34.15C74.077 33.8833 74.3937 33.75 74.7604 33.75C75.1437 33.75 75.4604 33.8833 75.7104 34.15C75.977 34.4 76.1104 34.7167 76.1104 35.1C76.1104 35.4833 75.977 35.8083 75.7104 36.075C75.4604 36.325 75.1437 36.45 74.7604 36.45C74.3937 36.45 74.077 36.325 73.8104 36.075ZM73.7604 51V38.5H75.7604V51H73.7604ZM88.0693 39.825C89.1693 40.9917 89.7193 42.4667 89.7193 44.25C89.7193 46.0333 89.1693 47.5167 88.0693 48.7C86.986 49.8667 85.6443 50.45 84.0443 50.45C82.3943 50.45 80.9943 49.8667 79.8443 48.7C78.711 47.5167 78.1443 46.0417 78.1443 44.275C78.1443 42.4917 78.711 41.0083 79.8443 39.825C80.9943 38.6417 82.3943 38.05 84.0443 38.05C85.6443 38.05 86.986 38.6417 88.0693 39.825ZM87.4443 47.325C88.2777 46.525 88.6943 45.5083 88.6943 44.275C88.6943 43.0417 88.2777 42.0333 87.4443 41.25C86.6277 40.45 85.6193 40.05 84.4193 40.05C83.2193 40.05 82.2027 40.45 81.3693 41.25C80.5527 42.0333 80.1443 43.0417 80.1443 44.275C80.1443 45.5083 80.5527 46.525 81.3693 47.325C82.2027 48.1083 83.2193 48.5 84.4193 48.5C85.6193 48.5 86.6277 48.1083 87.4443 47.325ZM88.6943 51.25V38.5H90.6943V51.25C90.6943 52.8667 90.1027 54.1833 88.9193 55.2C87.7527 56.2167 86.286 56.725 84.5193 56.725C83.1693 56.725 81.9443 56.375 80.8443 55.675C79.761 54.975 78.9527 54.0167 78.4193 52.8L80.1693 51.825C80.5527 52.7083 81.1277 53.4083 81.8943 53.925C82.661 54.4417 83.5193 54.7 84.4693 54.7C85.6693 54.7 86.6693 54.375 87.4693 53.725C88.286 53.075 88.6943 52.25 88.6943 51.25ZM93.5857 51V38.5H95.5857V51H93.5857ZM102.286 51V43.6C102.286 42.5333 101.986 41.6917 101.386 41.075C100.802 40.4583 100.036 40.15 99.0857 40.15C98.1191 40.15 97.2941 40.4917 96.6107 41.175C95.9274 41.8417 95.5857 42.65 95.5857 43.6H94.4857C94.4857 42.1333 94.9857 40.875 95.9857 39.825C96.9857 38.7583 98.2024 38.225 99.6357 38.225C100.952 38.225 102.052 38.6833 102.936 39.6C103.836 40.5167 104.286 41.7083 104.286 43.175V51H102.286Z" fill="white"/>
<path d="M8.9 7.45H3.45V14.5H8.9C10.0167 14.5 10.95 14.1583 11.7 13.475C12.45 12.7917 12.825 11.9417 12.825 10.925C12.825 9.925 12.45 9.1 11.7 8.45C10.9667 7.78333 10.0333 7.45 8.9 7.45ZM9.6 16.3L14.9 23H12.475L7.275 16.45H3.45V23H1.45V5.5H9.15C10.8 5.5 12.1667 6.01667 13.25 7.05C14.35 8.06667 14.9 9.36667 14.9 10.95C14.9 12.4167 14.3917 13.6583 13.375 14.675C12.3583 15.6917 11.1 16.2333 9.6 16.3ZM24.382 17.225L20.807 17.65C19.1237 17.85 18.282 18.4917 18.282 19.575C18.282 20.1417 18.5154 20.6 18.982 20.95C19.4487 21.2833 20.0737 21.45 20.857 21.45C21.9237 21.45 22.7737 21.1333 23.407 20.5C24.057 19.8667 24.382 19.0333 24.382 18H25.257C25.257 19.5167 24.7904 20.775 23.857 21.775C22.9237 22.775 21.757 23.275 20.357 23.275C19.1737 23.275 18.1904 22.9417 17.407 22.275C16.6404 21.5917 16.257 20.7167 16.257 19.65C16.2737 18.6167 16.6404 17.775 17.357 17.125C18.0904 16.4583 19.0987 16.05 20.382 15.9L24.382 15.45V14.95C24.382 14.1833 24.082 13.5167 23.482 12.95C22.882 12.3833 22.1487 12.1 21.282 12.1C20.4987 12.1 19.807 12.3083 19.207 12.725C18.607 13.1417 18.2154 13.6833 18.032 14.35L16.182 13.75C16.4987 12.7 17.1154 11.85 18.032 11.2C18.9487 10.55 19.9904 10.225 21.157 10.225C22.5737 10.225 23.7987 10.675 24.832 11.575C25.8654 12.4583 26.382 13.5167 26.382 14.75V23H24.382V17.225ZM44.7826 23V15.175C44.7826 14.225 44.5243 13.4833 44.0076 12.95C43.5076 12.4167 42.8576 12.15 42.0576 12.15C41.2243 12.15 40.5076 12.45 39.9076 13.05C39.3076 13.6333 39.0076 14.3417 39.0076 15.175H37.9326C37.9326 13.8083 38.3826 12.6417 39.2826 11.675C40.1826 10.7083 41.291 10.225 42.6076 10.225C43.791 10.225 44.7826 10.6417 45.5826 11.475C46.3826 12.3083 46.7826 13.4 46.7826 14.75V23H44.7826ZM29.2576 23V10.5H31.2576V23H29.2576ZM37.0076 23V15.175C37.0076 14.225 36.7493 13.4833 36.2326 12.95C35.7326 12.4167 35.091 12.15 34.3076 12.15C33.4576 12.15 32.7326 12.45 32.1326 13.05C31.5493 13.6333 31.2576 14.3417 31.2576 15.175H30.1576C30.1576 13.8083 30.6076 12.6417 31.5076 11.675C32.4076 10.7083 33.5243 10.225 34.8576 10.225C36.041 10.225 37.0243 10.6417 37.8076 11.475C38.6076 12.3083 39.0076 13.4 39.0076 14.75V23H37.0076ZM63.5061 7.45H58.4061V15.125H63.5061C64.7394 15.125 65.7727 14.7583 66.6061 14.025C67.4394 13.275 67.8561 12.35 67.8561 11.25C67.8561 10.15 67.4394 9.24167 66.6061 8.525C65.7727 7.80833 64.7394 7.45 63.5061 7.45ZM63.5061 17.075H58.4061V23H56.4061V5.5H63.7561C65.4894 5.5 66.9394 6.05 68.1061 7.15C69.2727 8.23333 69.8561 9.6 69.8561 11.25C69.8561 12.8667 69.2394 14.2417 68.0061 15.375C66.7727 16.5083 65.2727 17.075 63.5061 17.075ZM72.0311 23V10.5H74.0311V23H72.0311ZM77.9811 12.3C76.8811 12.3 75.9394 12.625 75.1561 13.275C74.3894 13.925 74.0061 14.7 74.0061 15.6H72.9311C72.9311 14.2167 73.4061 12.9917 74.3561 11.925C75.3061 10.8417 76.4477 10.3 77.7811 10.3H78.4811V12.3H77.9811ZM87.8098 17.225L84.2348 17.65C82.5514 17.85 81.7098 18.4917 81.7098 19.575C81.7098 20.1417 81.9431 20.6 82.4098 20.95C82.8764 21.2833 83.5014 21.45 84.2848 21.45C85.3514 21.45 86.2014 21.1333 86.8348 20.5C87.4848 19.8667 87.8098 19.0333 87.8098 18H88.6848C88.6848 19.5167 88.2181 20.775 87.2848 21.775C86.3514 22.775 85.1848 23.275 83.7848 23.275C82.6014 23.275 81.6181 22.9417 80.8348 22.275C80.0681 21.5917 79.6848 20.7167 79.6848 19.65C79.7014 18.6167 80.0681 17.775 80.7848 17.125C81.5181 16.4583 82.5264 16.05 83.8098 15.9L87.8098 15.45V14.95C87.8098 14.1833 87.5098 13.5167 86.9098 12.95C86.3098 12.3833 85.5764 12.1 84.7098 12.1C83.9264 12.1 83.2348 12.3083 82.6348 12.725C82.0348 13.1417 81.6431 13.6833 81.4598 14.35L79.6098 13.75C79.9264 12.7 80.5431 11.85 81.4598 11.2C82.3764 10.55 83.4181 10.225 84.5848 10.225C86.0014 10.225 87.2264 10.675 88.2598 11.575C89.2931 12.4583 89.8098 13.5167 89.8098 14.75V23H87.8098V17.225ZM101.477 10.5H103.702L96.4268 28H94.2018L96.3018 22.55L91.3268 10.5H93.5518L97.5018 20.3L101.477 10.5ZM115.905 15.8C115.805 14.6333 115.33 13.6917 114.48 12.975C113.63 12.2583 112.605 11.9 111.405 11.9C110.255 11.9 109.263 12.2583 108.43 12.975C107.613 13.675 107.13 14.6167 106.98 15.8H115.905ZM106.98 17.625C107.13 18.8083 107.63 19.7583 108.48 20.475C109.33 21.1917 110.338 21.55 111.505 21.55C112.405 21.55 113.222 21.3417 113.955 20.925C114.688 20.4917 115.238 19.9 115.605 19.15L117.455 19.875C116.905 20.975 116.097 21.85 115.03 22.5C113.98 23.1333 112.813 23.45 111.53 23.45C109.663 23.45 108.088 22.8167 106.805 21.55C105.538 20.2667 104.905 18.6583 104.905 16.725C104.905 14.7917 105.53 13.1917 106.78 11.925C108.03 10.6417 109.563 10 111.38 10C113.213 10 114.763 10.625 116.03 11.875C117.297 13.1083 117.93 14.6667 117.93 16.55C117.93 16.85 117.888 17.2083 117.805 17.625H106.98ZM120.298 23V10.5H122.298V23H120.298ZM126.248 12.3C125.148 12.3 124.206 12.625 123.423 13.275C122.656 13.925 122.273 14.7 122.273 15.6H121.198C121.198 14.2167 121.673 12.9917 122.623 11.925C123.573 10.8417 124.714 10.3 126.048 10.3H126.748V12.3H126.248Z" fill="white"/>
<path d="M156.9 35.45H151.45V42.5H156.9C158.017 42.5 158.95 42.1583 159.7 41.475C160.45 40.7917 160.825 39.9417 160.825 38.925C160.825 37.925 160.45 37.1 159.7 36.45C158.967 35.7833 158.033 35.45 156.9 35.45ZM157.6 44.3L162.9 51H160.475L155.275 44.45H151.45V51H149.45V33.5H157.15C158.8 33.5 160.167 34.0167 161.25 35.05C162.35 36.0667 162.9 37.3667 162.9 38.95C162.9 40.4167 162.392 41.6583 161.375 42.675C160.358 43.6917 159.1 44.2333 157.6 44.3ZM165.27 36.075C165.004 35.8083 164.87 35.4833 164.87 35.1C164.87 34.7167 165.004 34.4 165.27 34.15C165.537 33.8833 165.854 33.75 166.22 33.75C166.604 33.75 166.92 33.8833 167.17 34.15C167.437 34.4 167.57 34.7167 167.57 35.1C167.57 35.4833 167.437 35.8083 167.17 36.075C166.92 36.325 166.604 36.45 166.22 36.45C165.854 36.45 165.537 36.325 165.27 36.075ZM165.22 51V38.5H167.22V51H165.22ZM177.704 45.225L174.129 45.65C172.446 45.85 171.604 46.4917 171.604 47.575C171.604 48.1417 171.838 48.6 172.304 48.95C172.771 49.2833 173.396 49.45 174.179 49.45C175.246 49.45 176.096 49.1333 176.729 48.5C177.379 47.8667 177.704 47.0333 177.704 46H178.579C178.579 47.5167 178.113 48.775 177.179 49.775C176.246 50.775 175.079 51.275 173.679 51.275C172.496 51.275 171.513 50.9417 170.729 50.275C169.963 49.5917 169.579 48.7167 169.579 47.65C169.596 46.6167 169.963 45.775 170.679 45.125C171.413 44.4583 172.421 44.05 173.704 43.9L177.704 43.45V42.95C177.704 42.1833 177.404 41.5167 176.804 40.95C176.204 40.3833 175.471 40.1 174.604 40.1C173.821 40.1 173.129 40.3083 172.529 40.725C171.929 41.1417 171.538 41.6833 171.354 42.35L169.504 41.75C169.821 40.7 170.438 39.85 171.354 39.2C172.271 38.55 173.313 38.225 174.479 38.225C175.896 38.225 177.121 38.675 178.154 39.575C179.188 40.4583 179.704 41.5167 179.704 42.75V51H177.704V45.225ZM182.58 51V38.5H184.58V51H182.58ZM191.28 51V43.6C191.28 42.5333 190.98 41.6917 190.38 41.075C189.797 40.4583 189.03 40.15 188.08 40.15C187.113 40.15 186.288 40.4917 185.605 41.175C184.922 41.8417 184.58 42.65 184.58 43.6H183.48C183.48 42.1333 183.98 40.875 184.98 39.825C185.98 38.7583 187.197 38.225 188.63 38.225C189.947 38.225 191.047 38.6833 191.93 39.6C192.83 40.5167 193.28 41.7083 193.28 43.175V51H191.28ZM203.754 45.225L200.179 45.65C198.496 45.85 197.654 46.4917 197.654 47.575C197.654 48.1417 197.887 48.6 198.354 48.95C198.821 49.2833 199.446 49.45 200.229 49.45C201.296 49.45 202.146 49.1333 202.779 48.5C203.429 47.8667 203.754 47.0333 203.754 46H204.629C204.629 47.5167 204.162 48.775 203.229 49.775C202.296 50.775 201.129 51.275 199.729 51.275C198.546 51.275 197.562 50.9417 196.779 50.275C196.012 49.5917 195.629 48.7167 195.629 47.65C195.646 46.6167 196.012 45.775 196.729 45.125C197.462 44.4583 198.471 44.05 199.754 43.9L203.754 43.45V42.95C203.754 42.1833 203.454 41.5167 202.854 40.95C202.254 40.3833 201.521 40.1 200.654 40.1C199.871 40.1 199.179 40.3083 198.579 40.725C197.979 41.1417 197.587 41.6833 197.404 42.35L195.554 41.75C195.871 40.7 196.487 39.85 197.404 39.2C198.321 38.55 199.362 38.225 200.529 38.225C201.946 38.225 203.171 38.675 204.204 39.575C205.237 40.4583 205.754 41.5167 205.754 42.75V51H203.754V45.225ZM217.13 49.75V51.425H207.905V49.75H217.13ZM226.749 35.45H221.299V42.5H226.749C227.865 42.5 228.799 42.1583 229.549 41.475C230.299 40.7917 230.674 39.9417 230.674 38.925C230.674 37.925 230.299 37.1 229.549 36.45C228.815 35.7833 227.882 35.45 226.749 35.45ZM227.449 44.3L232.749 51H230.324L225.124 44.45H221.299V51H219.299V33.5H226.999C228.649 33.5 230.015 34.0167 231.099 35.05C232.199 36.0667 232.749 37.3667 232.749 38.95C232.749 40.4167 232.24 41.6583 231.224 42.675C230.207 43.6917 228.949 44.2333 227.449 44.3ZM235.119 36.075C234.852 35.8083 234.719 35.4833 234.719 35.1C234.719 34.7167 234.852 34.4 235.119 34.15C235.386 33.8833 235.702 33.75 236.069 33.75C236.452 33.75 236.769 33.8833 237.019 34.15C237.286 34.4 237.419 34.7167 237.419 35.1C237.419 35.4833 237.286 35.8083 237.019 36.075C236.769 36.325 236.452 36.45 236.069 36.45C235.702 36.45 235.386 36.325 235.119 36.075ZM235.069 51V38.5H237.069V51H235.069ZM255.478 51V43.175C255.478 42.225 255.22 41.4833 254.703 40.95C254.203 40.4167 253.553 40.15 252.753 40.15C251.92 40.15 251.203 40.45 250.603 41.05C250.003 41.6333 249.703 42.3417 249.703 43.175H248.628C248.628 41.8083 249.078 40.6417 249.978 39.675C250.878 38.7083 251.986 38.225 253.303 38.225C254.486 38.225 255.478 38.6417 256.278 39.475C257.078 40.3083 257.478 41.4 257.478 42.75V51H255.478ZM239.953 51V38.5H241.953V51H239.953ZM247.703 51V43.175C247.703 42.225 247.445 41.4833 246.928 40.95C246.428 40.4167 245.786 40.15 245.003 40.15C244.153 40.15 243.428 40.45 242.828 41.05C242.245 41.6333 241.953 42.3417 241.953 43.175H240.853C240.853 41.8083 241.303 40.6417 242.203 39.675C243.103 38.7083 244.22 38.225 245.553 38.225C246.736 38.225 247.72 38.6417 248.503 39.475C249.303 40.3083 249.703 41.4 249.703 42.75V51H247.703Z" fill="white"/>
<path d="M21 45L9.66107 38.4535L9.66107 51.5465L21 45ZM2.5 45H1.36611V46.1339H2.5L2.5 45ZM2.5 30.5L1.36611 30.5L1.36611 45H2.5H3.63389L3.63389 30.5L2.5 30.5ZM2.5 45L2.5 46.1339H10.795V45V43.8661H2.5V45Z" fill="white"/>
<path d="M141 45L129.661 38.4535V51.5465L141 45ZM113 45L113 46.1339H130.795V45V43.8661H113L113 45Z" fill="white"/>
</svg>
