<svg width="852" height="59" viewBox="0 0 852 59" fill="none" xmlns="http://www.w3.org/2000/svg">
<path d="M1.5 29.7V27.3H3.51V29.7H1.5ZM1.5 32.1V29.7H3.51V32.1H1.5ZM1.5 34.5V32.1H3.51V34.5H1.5ZM1.5 36.9V34.5H3.51V36.9H1.5ZM1.5 39.3V36.9H3.51V39.3H1.5ZM1.5 41.7V39.3H3.51V41.7H1.5ZM1.5 44.1V41.7H3.51V44.1H1.5ZM1.5 46.5V44.1H3.51V46.5H1.5ZM3.66 24.9V22.5H5.67V24.9H3.66ZM3.66 27.3V24.9H5.67V27.3H3.66ZM3.66 44.1V41.7H5.67V44.1H3.66ZM3.66 46.5V44.1H5.67V46.5H3.66ZM5.82 39.3V36.9H7.83V39.3H5.82ZM5.82 41.7V39.3H7.83V41.7H5.82ZM7.98 34.5V32.1H10.02V34.5H7.98ZM7.98 36.9V34.5H10.02V36.9H7.98ZM10.17 29.7V27.3H12.18V29.7H10.17ZM10.17 32.1V29.7H12.18V32.1H10.17ZM12.33 24.9V22.5H14.34V24.9H12.33ZM12.33 27.3V24.9H14.34V27.3H12.33ZM12.33 44.1V41.7H14.34V44.1H12.33ZM12.33 46.5V44.1H14.34V46.5H12.33ZM14.49 24.9V22.5H16.5V24.9H14.49ZM14.49 27.3V24.9H16.5V27.3H14.49ZM14.49 29.7V27.3H16.5V29.7H14.49ZM14.49 32.1V29.7H16.5V32.1H14.49ZM14.49 34.5V32.1H16.5V34.5H14.49ZM14.49 36.9V34.5H16.5V36.9H14.49ZM14.49 39.3V36.9H16.5V39.3H14.49ZM14.49 41.7V39.3H16.5V41.7H14.49ZM19.4883 24.9V22.5H21.4983V24.9H19.4883ZM19.4883 29.7V27.3H21.4983V29.7H19.4883ZM19.4883 32.1V29.7H21.4983V32.1H19.4883ZM19.4883 34.5V32.1H21.4983V34.5H19.4883ZM19.4883 36.9V34.5H21.4983V36.9H19.4883ZM19.4883 39.3V36.9H21.4983V39.3H19.4883ZM19.4883 41.7V39.3H21.4983V41.7H19.4883ZM19.4883 44.1V41.7H21.4983V44.1H19.4883ZM19.4883 46.5V44.1H21.4983V46.5H19.4883ZM21.6483 27.3V24.9H23.6583V27.3H21.6483ZM21.6483 29.7V27.3H23.6583V29.7H21.6483ZM21.6483 32.1V29.7H23.6583V32.1H21.6483ZM21.6483 36.9V34.5H23.6583V36.9H21.6483ZM21.6483 39.3V36.9H23.6583V39.3H21.6483ZM21.6483 46.5V44.1H23.6583V46.5H21.6483ZM23.8083 36.9V34.5H25.8183V36.9H23.8083ZM25.9683 34.5V32.1H28.0083V34.5H25.9683ZM25.9683 36.9V34.5H28.0083V36.9H25.9683ZM25.9683 39.3V36.9H28.0083V39.3H25.9683ZM28.1583 36.9V34.5H30.1683V36.9H28.1583ZM30.3183 27.3V24.9H32.3283V27.3H30.3183ZM30.3183 29.7V27.3H32.3283V29.7H30.3183ZM30.3183 32.1V29.7H32.3283V32.1H30.3183ZM30.3183 36.9V34.5H32.3283V36.9H30.3183ZM30.3183 39.3V36.9H32.3283V39.3H30.3183ZM30.3183 46.5V44.1H32.3283V46.5H30.3183ZM32.4783 24.9V22.5H34.4883V24.9H32.4783ZM32.4783 29.7V27.3H34.4883V29.7H32.4783ZM32.4783 32.1V29.7H34.4883V32.1H32.4783ZM32.4783 34.5V32.1H34.4883V34.5H32.4783ZM32.4783 36.9V34.5H34.4883V36.9H32.4783ZM32.4783 39.3V36.9H34.4883V39.3H32.4783ZM32.4783 41.7V39.3H34.4883V41.7H32.4783ZM32.4783 44.1V41.7H34.4883V44.1H32.4783ZM32.4783 46.5V44.1H34.4883V46.5H32.4783ZM37.4766 32.1V29.7H39.4866V32.1H37.4766ZM39.6366 24.9V22.5H41.6466V24.9H39.6366ZM39.6366 29.7V27.3H41.6466V29.7H39.6366ZM39.6366 32.1V29.7H41.6466V32.1H39.6366ZM39.6366 36.9V34.5H41.6466V36.9H39.6366ZM41.7966 27.3V24.9H43.8066V27.3H41.7966ZM41.7966 34.5V32.1H43.8066V34.5H41.7966ZM41.7966 46.5V44.1H43.8066V46.5H41.7966ZM43.9566 24.9V22.5H45.9966V24.9H43.9566ZM43.9566 27.3V24.9H45.9966V27.3H43.9566ZM43.9566 29.7V27.3H45.9966V29.7H43.9566ZM43.9566 32.1V29.7H45.9966V32.1H43.9566ZM43.9566 34.5V32.1H45.9966V34.5H43.9566ZM43.9566 36.9V34.5H45.9966V36.9H43.9566ZM43.9566 39.3V36.9H45.9966V39.3H43.9566ZM43.9566 41.7V39.3H45.9966V41.7H43.9566ZM43.9566 44.1V41.7H45.9966V44.1H43.9566ZM43.9566 46.5V44.1H45.9966V46.5H43.9566ZM46.1466 27.3V24.9H48.1566V27.3H46.1466ZM46.1466 34.5V32.1H48.1566V34.5H46.1466ZM46.1466 46.5V44.1H48.1566V46.5H46.1466ZM48.3066 24.9V22.5H50.3166V24.9H48.3066ZM48.3066 29.7V27.3H50.3166V29.7H48.3066ZM48.3066 32.1V29.7H50.3166V32.1H48.3066ZM48.3066 36.9V34.5H50.3166V36.9H48.3066ZM50.4666 32.1V29.7H52.4766V32.1H50.4666ZM55.4648 27.3V24.9H57.4748V27.3H55.4648ZM55.4648 29.7V27.3H57.4748V29.7H55.4648ZM55.4648 32.1V29.7H57.4748V32.1H55.4648ZM55.4648 34.5V32.1H57.4748V34.5H55.4648ZM55.4648 36.9V34.5H57.4748V36.9H55.4648ZM55.4648 39.3V36.9H57.4748V39.3H55.4648ZM55.4648 41.7V39.3H57.4748V41.7H55.4648ZM55.4648 44.1V41.7H57.4748V44.1H55.4648ZM57.6248 24.9V22.5H59.6348V24.9H57.6248ZM57.6248 27.3V24.9H59.6348V27.3H57.6248ZM57.6248 44.1V41.7H59.6348V44.1H57.6248ZM57.6248 46.5V44.1H59.6348V46.5H57.6248ZM59.7848 24.9V22.5H61.7948V24.9H59.7848ZM59.7848 46.5V44.1H61.7948V46.5H59.7848ZM61.9448 24.9V22.5H63.9848V24.9H61.9448ZM61.9448 34.5V32.1H63.9848V34.5H61.9448ZM61.9448 36.9V34.5H63.9848V36.9H61.9448ZM61.9448 46.5V44.1H63.9848V46.5H61.9448ZM64.1348 24.9V22.5H66.1448V24.9H64.1348ZM64.1348 46.5V44.1H66.1448V46.5H64.1348ZM66.2948 24.9V22.5H68.3048V24.9H66.2948ZM66.2948 27.3V24.9H68.3048V27.3H66.2948ZM66.2948 44.1V41.7H68.3048V44.1H66.2948ZM66.2948 46.5V44.1H68.3048V46.5H66.2948ZM68.4548 27.3V24.9H70.4648V27.3H68.4548ZM68.4548 29.7V27.3H70.4648V29.7H68.4548ZM68.4548 32.1V29.7H70.4648V32.1H68.4548ZM68.4548 34.5V32.1H70.4648V34.5H68.4548ZM68.4548 36.9V34.5H70.4648V36.9H68.4548ZM68.4548 39.3V36.9H70.4648V39.3H68.4548ZM68.4548 41.7V39.3H70.4648V41.7H68.4548ZM68.4548 44.1V41.7H70.4648V44.1H68.4548ZM73.4531 27.3V24.9H75.4631V27.3H73.4531ZM73.4531 29.7V27.3H75.4631V29.7H73.4531ZM73.4531 32.1V29.7H75.4631V32.1H73.4531ZM73.4531 34.5V32.1H75.4631V34.5H73.4531ZM73.4531 36.9V34.5H75.4631V36.9H73.4531ZM73.4531 39.3V36.9H75.4631V39.3H73.4531ZM73.4531 41.7V39.3H75.4631V41.7H73.4531ZM73.4531 44.1V41.7H75.4631V44.1H73.4531ZM73.4531 46.5V44.1H75.4631V46.5H73.4531ZM75.6131 24.9V22.5H77.6231V24.9H75.6131ZM75.6131 27.3V24.9H77.6231V27.3H75.6131ZM75.6131 34.5V32.1H77.6231V34.5H75.6131ZM75.6131 36.9V34.5H77.6231V36.9H75.6131ZM77.7731 24.9V22.5H79.7831V24.9H77.7731ZM77.7731 36.9V34.5H79.7831V36.9H77.7731ZM79.9331 24.9V22.5H81.9731V24.9H79.9331ZM79.9331 36.9V34.5H81.9731V36.9H79.9331ZM82.1231 24.9V22.5H84.1331V24.9H82.1231ZM82.1231 36.9V34.5H84.1331V36.9H82.1231ZM84.2831 24.9V22.5H86.2931V24.9H84.2831ZM84.2831 27.3V24.9H86.2931V27.3H84.2831ZM84.2831 34.5V32.1H86.2931V34.5H84.2831ZM84.2831 36.9V34.5H86.2931V36.9H84.2831ZM86.4431 27.3V24.9H88.4531V27.3H86.4431ZM86.4431 29.7V27.3H88.4531V29.7H86.4431ZM86.4431 32.1V29.7H88.4531V32.1H86.4431ZM86.4431 34.5V32.1H88.4531V34.5H86.4431ZM91.4414 32.1V29.7H93.4514V32.1H91.4414ZM91.4414 41.7V39.3H93.4514V41.7H91.4414ZM91.4414 44.1V41.7H93.4514V44.1H91.4414ZM91.4414 46.5V44.1H93.4514V46.5H91.4414ZM93.6014 24.9V22.5H95.6114V24.9H93.6014ZM93.6014 34.5V32.1H95.6114V34.5H93.6014ZM93.6014 36.9V34.5H95.6114V36.9H93.6014ZM93.6014 39.3V36.9H95.6114V39.3H93.6014ZM93.6014 41.7V39.3H95.6114V41.7H93.6014ZM95.7614 27.3V24.9H97.7714V27.3H95.7614ZM95.7614 29.7V27.3H97.7714V29.7H95.7614ZM95.7614 32.1V29.7H97.7714V32.1H95.7614ZM95.7614 34.5V32.1H97.7714V34.5H95.7614ZM97.9214 24.9V22.5H99.9614V24.9H97.9214ZM97.9214 27.3V24.9H99.9614V27.3H97.9214ZM97.9214 34.5V32.1H99.9614V34.5H97.9214ZM97.9214 36.9V34.5H99.9614V36.9H97.9214ZM97.9214 39.3V36.9H99.9614V39.3H97.9214ZM97.9214 41.7V39.3H99.9614V41.7H97.9214ZM97.9214 44.1V41.7H99.9614V44.1H97.9214ZM97.9214 46.5V44.1H99.9614V46.5H97.9214ZM100.111 27.3V24.9H102.121V27.3H100.111ZM100.111 29.7V27.3H102.121V29.7H100.111ZM100.111 32.1V29.7H102.121V32.1H100.111ZM100.111 34.5V32.1H102.121V34.5H100.111ZM102.271 24.9V22.5H104.281V24.9H102.271ZM102.271 34.5V32.1H104.281V34.5H102.271ZM102.271 36.9V34.5H104.281V36.9H102.271ZM102.271 39.3V36.9H104.281V39.3H102.271ZM102.271 41.7V39.3H104.281V41.7H102.271ZM104.431 32.1V29.7H106.441V32.1H104.431ZM104.431 41.7V39.3H106.441V41.7H104.431ZM104.431 44.1V41.7H106.441V44.1H104.431ZM104.431 46.5V44.1H106.441V46.5H104.431ZM109.43 29.7V27.3H111.44V29.7H109.43ZM109.43 32.1V29.7H111.44V32.1H109.43ZM109.43 34.5V32.1H111.44V34.5H109.43ZM109.43 36.9V34.5H111.44V36.9H109.43ZM109.43 39.3V36.9H111.44V39.3H109.43ZM109.43 41.7V39.3H111.44V41.7H109.43ZM109.43 44.1V41.7H111.44V44.1H109.43ZM109.43 46.5V44.1H111.44V46.5H109.43ZM111.59 27.3V24.9H113.6V27.3H111.59ZM111.59 29.7V27.3H113.6V29.7H111.59ZM111.59 36.9V34.5H113.6V36.9H111.59ZM111.59 46.5V44.1H113.6V46.5H111.59ZM113.75 24.9V22.5H115.76V24.9H113.75ZM113.75 27.3V24.9H115.76V27.3H113.75ZM113.75 39.3V36.9H115.76V39.3H113.75ZM115.91 24.9V22.5H117.95V24.9H115.91ZM115.91 29.7V27.3H117.95V29.7H115.91ZM115.91 39.3V36.9H117.95V39.3H115.91ZM118.1 24.9V22.5H120.11V24.9H118.1ZM118.1 27.3V24.9H120.11V27.3H118.1ZM118.1 39.3V36.9H120.11V39.3H118.1ZM120.26 27.3V24.9H122.27V27.3H120.26ZM120.26 29.7V27.3H122.27V29.7H120.26ZM120.26 36.9V34.5H122.27V36.9H120.26ZM120.26 46.5V44.1H122.27V46.5H120.26ZM122.42 29.7V27.3H124.43V29.7H122.42ZM122.42 32.1V29.7H124.43V32.1H122.42ZM122.42 34.5V32.1H124.43V34.5H122.42ZM122.42 36.9V34.5H124.43V36.9H122.42ZM122.42 39.3V36.9H124.43V39.3H122.42ZM122.42 41.7V39.3H124.43V41.7H122.42ZM122.42 44.1V41.7H124.43V44.1H122.42ZM122.42 46.5V44.1H124.43V46.5H122.42ZM127.418 24.9V22.5H129.428V24.9H127.418ZM127.418 27.3V24.9H129.428V27.3H127.418ZM127.418 29.7V27.3H129.428V29.7H127.418ZM127.418 32.1V29.7H129.428V32.1H127.418ZM127.418 36.9V34.5H129.428V36.9H127.418ZM127.418 39.3V36.9H129.428V39.3H127.418ZM127.418 41.7V39.3H129.428V41.7H127.418ZM127.418 44.1V41.7H129.428V44.1H127.418ZM129.578 24.9V22.5H131.588V24.9H129.578ZM129.578 32.1V29.7H131.588V32.1H129.578ZM129.578 34.5V32.1H131.588V34.5H129.578ZM129.578 36.9V34.5H131.588V36.9H129.578ZM129.578 44.1V41.7H131.588V44.1H129.578ZM129.578 46.5V44.1H131.588V46.5H129.578ZM131.738 46.5V44.1H133.748V46.5H131.738ZM133.898 34.5V32.1H135.938V34.5H133.898ZM133.898 46.5V44.1H135.938V46.5H133.898ZM136.088 46.5V44.1H138.098V46.5H136.088ZM138.248 24.9V22.5H140.258V24.9H138.248ZM138.248 32.1V29.7H140.258V32.1H138.248ZM138.248 34.5V32.1H140.258V34.5H138.248ZM138.248 36.9V34.5H140.258V36.9H138.248ZM138.248 44.1V41.7H140.258V44.1H138.248ZM140.408 24.9V22.5H142.418V24.9H140.408ZM140.408 27.3V24.9H142.418V27.3H140.408ZM140.408 29.7V27.3H142.418V29.7H140.408ZM140.408 32.1V29.7H142.418V32.1H140.408ZM140.408 36.9V34.5H142.418V36.9H140.408ZM140.408 39.3V36.9H142.418V39.3H140.408ZM140.408 41.7V39.3H142.418V41.7H140.408ZM140.408 46.5V44.1H142.418V46.5H140.408ZM145.406 29.7V27.3H147.416V29.7H145.406ZM145.406 32.1V29.7H147.416V32.1H145.406ZM145.406 34.5V32.1H147.416V34.5H145.406ZM145.406 36.9V34.5H147.416V36.9H145.406ZM145.406 39.3V36.9H147.416V39.3H145.406ZM145.406 41.7V39.3H147.416V41.7H145.406ZM145.406 44.1V41.7H147.416V44.1H145.406ZM145.406 46.5V44.1H147.416V46.5H145.406ZM147.566 24.9V22.5H149.576V24.9H147.566ZM147.566 27.3V24.9H149.576V27.3H147.566ZM147.566 44.1V41.7H149.576V44.1H147.566ZM147.566 46.5V44.1H149.576V46.5H147.566ZM149.726 39.3V36.9H151.736V39.3H149.726ZM149.726 41.7V39.3H151.736V41.7H149.726ZM151.886 34.5V32.1H153.926V34.5H151.886ZM151.886 36.9V34.5H153.926V36.9H151.886ZM154.076 29.7V27.3H156.086V29.7H154.076ZM154.076 32.1V29.7H156.086V32.1H154.076ZM156.236 24.9V22.5H158.246V24.9H156.236ZM156.236 27.3V24.9H158.246V27.3H156.236ZM156.236 44.1V41.7H158.246V44.1H156.236ZM156.236 46.5V44.1H158.246V46.5H156.236ZM158.396 24.9V22.5H160.406V24.9H158.396ZM158.396 27.3V24.9H160.406V27.3H158.396ZM158.396 29.7V27.3H160.406V29.7H158.396ZM158.396 32.1V29.7H160.406V32.1H158.396ZM158.396 34.5V32.1H160.406V34.5H158.396ZM158.396 36.9V34.5H160.406V36.9H158.396ZM158.396 39.3V36.9H160.406V39.3H158.396ZM158.396 41.7V39.3H160.406V41.7H158.396ZM165.555 27.3V24.9H167.565V27.3H165.555ZM165.555 29.7V27.3H167.565V29.7H165.555ZM165.555 32.1V29.7H167.565V32.1H165.555ZM165.555 44.1V41.7H167.565V44.1H165.555ZM167.715 24.9V22.5H169.725V24.9H167.715ZM167.715 34.5V32.1H169.725V34.5H167.715ZM167.715 46.5V44.1H169.725V46.5H167.715ZM169.875 24.9V22.5H171.915V24.9H169.875ZM169.875 34.5V32.1H171.915V34.5H169.875ZM169.875 44.1V41.7H171.915V44.1H169.875ZM172.065 24.9V22.5H174.075V24.9H172.065ZM172.065 34.5V32.1H174.075V34.5H172.065ZM172.065 39.3V36.9H174.075V39.3H172.065ZM172.065 41.7V39.3H174.075V41.7H172.065ZM174.225 24.9V22.5H176.235V24.9H174.225ZM174.225 29.7V27.3H176.235V29.7H174.225ZM174.225 34.5V32.1H176.235V34.5H174.225ZM174.225 36.9V34.5H176.235V36.9H174.225ZM174.225 46.5V44.1H176.235V46.5H174.225ZM176.385 27.3V24.9H178.395V27.3H176.385ZM176.385 32.1V29.7H178.395V32.1H176.385ZM176.385 34.5V32.1H178.395V34.5H176.385ZM176.385 36.9V34.5H178.395V36.9H176.385ZM176.385 39.3V36.9H178.395V39.3H176.385ZM176.385 41.7V39.3H178.395V41.7H176.385ZM176.385 44.1V41.7H178.395V44.1H176.385ZM176.385 46.5V44.1H178.395V46.5H176.385Z" fill="white"/>
<path d="M619.5 24.9V22.5H621.51V24.9H619.5ZM619.5 27.3V24.9H621.51V27.3H619.5ZM619.5 29.7V27.3H621.51V29.7H619.5ZM619.5 32.1V29.7H621.51V32.1H619.5ZM619.5 34.5V32.1H621.51V34.5H619.5ZM619.5 36.9V34.5H621.51V36.9H619.5ZM619.5 39.3V36.9H621.51V39.3H619.5ZM619.5 41.7V39.3H621.51V41.7H619.5ZM619.5 44.1V41.7H621.51V44.1H619.5ZM621.66 24.9V22.5H623.67V24.9H621.66ZM621.66 27.3V24.9H623.67V27.3H621.66ZM621.66 34.5V32.1H623.67V34.5H621.66ZM621.66 36.9V34.5H623.67V36.9H621.66ZM621.66 44.1V41.7H623.67V44.1H621.66ZM621.66 46.5V44.1H623.67V46.5H621.66ZM623.82 24.9V22.5H625.83V24.9H623.82ZM623.82 34.5V32.1H625.83V34.5H623.82ZM623.82 46.5V44.1H625.83V46.5H623.82ZM625.98 24.9V22.5H628.02V24.9H625.98ZM625.98 34.5V32.1H628.02V34.5H625.98ZM625.98 46.5V44.1H628.02V46.5H625.98ZM628.17 24.9V22.5H630.18V24.9H628.17ZM628.17 34.5V32.1H630.18V34.5H628.17ZM628.17 46.5V44.1H630.18V46.5H628.17ZM630.33 27.3V24.9H632.34V27.3H630.33ZM630.33 34.5V32.1H632.34V34.5H630.33ZM630.33 36.9V34.5H632.34V36.9H630.33ZM630.33 44.1V41.7H632.34V44.1H630.33ZM630.33 46.5V44.1H632.34V46.5H630.33ZM632.49 24.9V22.5H634.5V24.9H632.49ZM632.49 36.9V34.5H634.5V36.9H632.49ZM632.49 39.3V36.9H634.5V39.3H632.49ZM632.49 41.7V39.3H634.5V41.7H632.49ZM632.49 44.1V41.7H634.5V44.1H632.49ZM637.488 27.3V24.9H639.498V27.3H637.488ZM637.488 29.7V27.3H639.498V29.7H637.488ZM637.488 32.1V29.7H639.498V32.1H637.488ZM637.488 34.5V32.1H639.498V34.5H637.488ZM637.488 36.9V34.5H639.498V36.9H637.488ZM637.488 39.3V36.9H639.498V39.3H637.488ZM637.488 41.7V39.3H639.498V41.7H637.488ZM637.488 44.1V41.7H639.498V44.1H637.488ZM639.648 24.9V22.5H641.658V24.9H639.648ZM639.648 27.3V24.9H641.658V27.3H639.648ZM639.648 44.1V41.7H641.658V44.1H639.648ZM639.648 46.5V44.1H641.658V46.5H639.648ZM641.808 24.9V22.5H643.818V24.9H641.808ZM641.808 46.5V44.1H643.818V46.5H641.808ZM643.968 24.9V22.5H646.008V24.9H643.968ZM643.968 34.5V32.1H646.008V34.5H643.968ZM643.968 36.9V34.5H646.008V36.9H643.968ZM643.968 46.5V44.1H646.008V46.5H643.968ZM646.158 24.9V22.5H648.168V24.9H646.158ZM646.158 46.5V44.1H648.168V46.5H646.158ZM648.318 24.9V22.5H650.328V24.9H648.318ZM648.318 27.3V24.9H650.328V27.3H648.318ZM648.318 44.1V41.7H650.328V44.1H648.318ZM648.318 46.5V44.1H650.328V46.5H648.318ZM650.478 27.3V24.9H652.488V27.3H650.478ZM650.478 29.7V27.3H652.488V29.7H650.478ZM650.478 32.1V29.7H652.488V32.1H650.478ZM650.478 34.5V32.1H652.488V34.5H650.478ZM650.478 36.9V34.5H652.488V36.9H650.478ZM650.478 39.3V36.9H652.488V39.3H650.478ZM650.478 41.7V39.3H652.488V41.7H650.478ZM650.478 44.1V41.7H652.488V44.1H650.478ZM655.477 41.7V39.3H657.487V41.7H655.477ZM655.477 44.1V41.7H657.487V44.1H655.477ZM655.477 46.5V44.1H657.487V46.5H655.477ZM657.637 29.7V27.3H659.647V29.7H657.637ZM657.637 32.1V29.7H659.647V32.1H657.637ZM657.637 34.5V32.1H659.647V34.5H657.637ZM657.637 36.9V34.5H659.647V36.9H657.637ZM657.637 39.3V36.9H659.647V39.3H657.637ZM657.637 41.7V39.3H659.647V41.7H657.637ZM659.797 27.3V24.9H661.807V27.3H659.797ZM659.797 29.7V27.3H661.807V29.7H659.797ZM661.957 24.9V22.5H663.997V24.9H661.957ZM661.957 27.3V24.9H663.997V27.3H661.957ZM664.147 24.9V22.5H666.157V24.9H664.147ZM666.307 24.9V22.5H668.317V24.9H666.307ZM666.307 46.5V44.1H668.317V46.5H666.307ZM668.467 24.9V22.5H670.477V24.9H668.467ZM668.467 27.3V24.9H670.477V27.3H668.467ZM668.467 29.7V27.3H670.477V29.7H668.467ZM668.467 32.1V29.7H670.477V32.1H668.467ZM668.467 34.5V32.1H670.477V34.5H668.467ZM668.467 36.9V34.5H670.477V36.9H668.467ZM668.467 39.3V36.9H670.477V39.3H668.467ZM668.467 41.7V39.3H670.477V41.7H668.467ZM668.467 44.1V41.7H670.477V44.1H668.467ZM668.467 46.5V44.1H670.477V46.5H668.467ZM673.465 24.9V22.5H675.475V24.9H673.465ZM673.465 27.3V24.9H675.475V27.3H673.465ZM673.465 29.7V27.3H675.475V29.7H673.465ZM673.465 32.1V29.7H675.475V32.1H673.465ZM673.465 34.5V32.1H675.475V34.5H673.465ZM673.465 36.9V34.5H675.475V36.9H673.465ZM673.465 39.3V36.9H675.475V39.3H673.465ZM673.465 41.7V39.3H675.475V41.7H673.465ZM673.465 44.1V41.7H675.475V44.1H673.465ZM675.625 24.9V22.5H677.635V24.9H675.625ZM675.625 27.3V24.9H677.635V27.3H675.625ZM675.625 34.5V32.1H677.635V34.5H675.625ZM675.625 36.9V34.5H677.635V36.9H675.625ZM675.625 44.1V41.7H677.635V44.1H675.625ZM675.625 46.5V44.1H677.635V46.5H675.625ZM677.785 24.9V22.5H679.795V24.9H677.785ZM677.785 34.5V32.1H679.795V34.5H677.785ZM677.785 46.5V44.1H679.795V46.5H677.785ZM679.945 24.9V22.5H681.985V24.9H679.945ZM679.945 34.5V32.1H681.985V34.5H679.945ZM679.945 46.5V44.1H681.985V46.5H679.945ZM682.135 24.9V22.5H684.145V24.9H682.135ZM682.135 34.5V32.1H684.145V34.5H682.135ZM682.135 46.5V44.1H684.145V46.5H682.135ZM684.295 27.3V24.9H686.305V27.3H684.295ZM684.295 34.5V32.1H686.305V34.5H684.295ZM684.295 36.9V34.5H686.305V36.9H684.295ZM684.295 44.1V41.7H686.305V44.1H684.295ZM684.295 46.5V44.1H686.305V46.5H684.295ZM686.455 24.9V22.5H688.465V24.9H686.455ZM686.455 36.9V34.5H688.465V36.9H686.455ZM686.455 39.3V36.9H688.465V39.3H686.455ZM686.455 41.7V39.3H688.465V41.7H686.455ZM686.455 44.1V41.7H688.465V44.1H686.455ZM691.453 29.7V27.3H693.463V29.7H691.453ZM691.453 32.1V29.7H693.463V32.1H691.453ZM691.453 34.5V32.1H693.463V34.5H691.453ZM691.453 36.9V34.5H693.463V36.9H691.453ZM691.453 39.3V36.9H693.463V39.3H691.453ZM691.453 41.7V39.3H693.463V41.7H691.453ZM691.453 44.1V41.7H693.463V44.1H691.453ZM693.613 24.9V22.5H695.623V24.9H693.613ZM693.613 27.3V24.9H695.623V27.3H693.613ZM693.613 44.1V41.7H695.623V44.1H693.613ZM693.613 46.5V44.1H695.623V46.5H693.613ZM695.773 46.5V44.1H697.783V46.5H695.773ZM697.933 27.3V24.9H699.973V27.3H697.933ZM697.933 29.7V27.3H699.973V29.7H697.933ZM697.933 32.1V29.7H699.973V32.1H697.933ZM697.933 34.5V32.1H699.973V34.5H697.933ZM697.933 36.9V34.5H699.973V36.9H697.933ZM697.933 39.3V36.9H699.973V39.3H697.933ZM697.933 41.7V39.3H699.973V41.7H697.933ZM697.933 44.1V41.7H699.973V44.1H697.933ZM697.933 46.5V44.1H699.973V46.5H697.933ZM700.123 46.5V44.1H702.133V46.5H700.123ZM702.283 24.9V22.5H704.293V24.9H702.283ZM702.283 27.3V24.9H704.293V27.3H702.283ZM702.283 44.1V41.7H704.293V44.1H702.283ZM702.283 46.5V44.1H704.293V46.5H702.283ZM704.443 29.7V27.3H706.453V29.7H704.443ZM704.443 32.1V29.7H706.453V32.1H704.443ZM704.443 34.5V32.1H706.453V34.5H704.443ZM704.443 36.9V34.5H706.453V36.9H704.443ZM704.443 39.3V36.9H706.453V39.3H704.443ZM704.443 41.7V39.3H706.453V41.7H704.443ZM704.443 46.5V44.1H706.453V46.5H704.443ZM709.441 27.3V24.9H711.451V27.3H709.441ZM709.441 29.7V27.3H711.451V29.7H709.441ZM709.441 32.1V29.7H711.451V32.1H709.441ZM709.441 34.5V32.1H711.451V34.5H709.441ZM709.441 36.9V34.5H711.451V36.9H709.441ZM709.441 39.3V36.9H711.451V39.3H709.441ZM709.441 41.7V39.3H711.451V41.7H709.441ZM709.441 44.1V41.7H711.451V44.1H709.441ZM711.601 24.9V22.5H713.611V24.9H711.601ZM711.601 27.3V24.9H713.611V27.3H711.601ZM711.601 44.1V41.7H713.611V44.1H711.601ZM711.601 46.5V44.1H713.611V46.5H711.601ZM713.761 24.9V22.5H715.771V24.9H713.761ZM713.761 46.5V44.1H715.771V46.5H713.761ZM715.921 24.9V22.5H717.961V24.9H715.921ZM715.921 34.5V32.1H717.961V34.5H715.921ZM715.921 36.9V34.5H717.961V36.9H715.921ZM715.921 46.5V44.1H717.961V46.5H715.921ZM718.111 24.9V22.5H720.121V24.9H718.111ZM718.111 46.5V44.1H720.121V46.5H718.111ZM720.271 24.9V22.5H722.281V24.9H720.271ZM720.271 27.3V24.9H722.281V27.3H720.271ZM720.271 44.1V41.7H722.281V44.1H720.271ZM720.271 46.5V44.1H722.281V46.5H720.271ZM722.431 27.3V24.9H724.441V27.3H722.431ZM722.431 29.7V27.3H724.441V29.7H722.431ZM722.431 32.1V29.7H724.441V32.1H722.431ZM722.431 34.5V32.1H724.441V34.5H722.431ZM722.431 36.9V34.5H724.441V36.9H722.431ZM722.431 39.3V36.9H724.441V39.3H722.431ZM722.431 41.7V39.3H724.441V41.7H722.431ZM722.431 44.1V41.7H724.441V44.1H722.431ZM727.43 29.7V27.3H729.44V29.7H727.43ZM727.43 32.1V29.7H729.44V32.1H727.43ZM727.43 34.5V32.1H729.44V34.5H727.43ZM727.43 36.9V34.5H729.44V36.9H727.43ZM727.43 39.3V36.9H729.44V39.3H727.43ZM727.43 41.7V39.3H729.44V41.7H727.43ZM727.43 44.1V41.7H729.44V44.1H727.43ZM727.43 46.5V44.1H729.44V46.5H727.43ZM729.59 24.9V22.5H731.6V24.9H729.59ZM729.59 27.3V24.9H731.6V27.3H729.59ZM729.59 44.1V41.7H731.6V44.1H729.59ZM729.59 46.5V44.1H731.6V46.5H729.59ZM731.75 39.3V36.9H733.76V39.3H731.75ZM731.75 41.7V39.3H733.76V41.7H731.75ZM733.91 24.9V22.5H735.95V24.9H733.91ZM733.91 34.5V32.1H735.95V34.5H733.91ZM733.91 36.9V34.5H735.95V36.9H733.91ZM736.1 29.7V27.3H738.11V29.7H736.1ZM736.1 32.1V29.7H738.11V32.1H736.1ZM738.26 24.9V22.5H740.27V24.9H738.26ZM738.26 27.3V24.9H740.27V27.3H738.26ZM738.26 44.1V41.7H740.27V44.1H738.26ZM738.26 46.5V44.1H740.27V46.5H738.26ZM740.42 24.9V22.5H742.43V24.9H740.42ZM740.42 27.3V24.9H742.43V27.3H740.42ZM740.42 29.7V27.3H742.43V29.7H740.42ZM740.42 32.1V29.7H742.43V32.1H740.42ZM740.42 34.5V32.1H742.43V34.5H740.42ZM740.42 36.9V34.5H742.43V36.9H740.42ZM740.42 39.3V36.9H742.43V39.3H740.42ZM740.42 41.7V39.3H742.43V41.7H740.42ZM763.406 24.9V22.5H765.416V24.9H763.406ZM763.406 27.3V24.9H765.416V27.3H763.406ZM763.406 29.7V27.3H765.416V29.7H763.406ZM763.406 32.1V29.7H765.416V32.1H763.406ZM763.406 34.5V32.1H765.416V34.5H763.406ZM763.406 36.9V34.5H765.416V36.9H763.406ZM763.406 39.3V36.9H765.416V39.3H763.406ZM763.406 41.7V39.3H765.416V41.7H763.406ZM763.406 44.1V41.7H765.416V44.1H763.406ZM765.566 24.9V22.5H767.576V24.9H765.566ZM765.566 27.3V24.9H767.576V27.3H765.566ZM765.566 34.5V32.1H767.576V34.5H765.566ZM765.566 36.9V34.5H767.576V36.9H765.566ZM765.566 44.1V41.7H767.576V44.1H765.566ZM765.566 46.5V44.1H767.576V46.5H765.566ZM767.726 24.9V22.5H769.736V24.9H767.726ZM767.726 34.5V32.1H769.736V34.5H767.726ZM767.726 46.5V44.1H769.736V46.5H767.726ZM769.886 24.9V22.5H771.926V24.9H769.886ZM769.886 34.5V32.1H771.926V34.5H769.886ZM769.886 46.5V44.1H771.926V46.5H769.886ZM772.076 24.9V22.5H774.086V24.9H772.076ZM772.076 34.5V32.1H774.086V34.5H772.076ZM772.076 46.5V44.1H774.086V46.5H772.076ZM774.236 27.3V24.9H776.246V27.3H774.236ZM774.236 34.5V32.1H776.246V34.5H774.236ZM774.236 36.9V34.5H776.246V36.9H774.236ZM774.236 44.1V41.7H776.246V44.1H774.236ZM774.236 46.5V44.1H776.246V46.5H774.236ZM776.396 24.9V22.5H778.406V24.9H776.396ZM776.396 36.9V34.5H778.406V36.9H776.396ZM776.396 39.3V36.9H778.406V39.3H776.396ZM776.396 41.7V39.3H778.406V41.7H776.396ZM776.396 44.1V41.7H778.406V44.1H776.396ZM781.395 29.7V27.3H783.405V29.7H781.395ZM781.395 32.1V29.7H783.405V32.1H781.395ZM781.395 34.5V32.1H783.405V34.5H781.395ZM781.395 36.9V34.5H783.405V36.9H781.395ZM781.395 39.3V36.9H783.405V39.3H781.395ZM781.395 41.7V39.3H783.405V41.7H781.395ZM781.395 44.1V41.7H783.405V44.1H781.395ZM781.395 46.5V44.1H783.405V46.5H781.395ZM783.555 27.3V24.9H785.565V27.3H783.555ZM783.555 29.7V27.3H785.565V29.7H783.555ZM783.555 36.9V34.5H785.565V36.9H783.555ZM783.555 46.5V44.1H785.565V46.5H783.555ZM785.715 24.9V22.5H787.725V24.9H785.715ZM785.715 27.3V24.9H787.725V27.3H785.715ZM785.715 39.3V36.9H787.725V39.3H785.715ZM787.875 24.9V22.5H789.915V24.9H787.875ZM787.875 29.7V27.3H789.915V29.7H787.875ZM787.875 39.3V36.9H789.915V39.3H787.875ZM790.065 24.9V22.5H792.075V24.9H790.065ZM790.065 27.3V24.9H792.075V27.3H790.065ZM790.065 39.3V36.9H792.075V39.3H790.065ZM792.225 27.3V24.9H794.235V27.3H792.225ZM792.225 29.7V27.3H794.235V29.7H792.225ZM792.225 36.9V34.5H794.235V36.9H792.225ZM792.225 46.5V44.1H794.235V46.5H792.225ZM794.385 29.7V27.3H796.395V29.7H794.385ZM794.385 32.1V29.7H796.395V32.1H794.385ZM794.385 34.5V32.1H796.395V34.5H794.385ZM794.385 36.9V34.5H796.395V36.9H794.385ZM794.385 39.3V36.9H796.395V39.3H794.385ZM794.385 41.7V39.3H796.395V41.7H794.385ZM794.385 44.1V41.7H796.395V44.1H794.385ZM794.385 46.5V44.1H796.395V46.5H794.385ZM799.383 27.3V24.9H801.393V27.3H799.383ZM799.383 29.7V27.3H801.393V29.7H799.383ZM799.383 32.1V29.7H801.393V32.1H799.383ZM799.383 34.5V32.1H801.393V34.5H799.383ZM799.383 36.9V34.5H801.393V36.9H799.383ZM799.383 39.3V36.9H801.393V39.3H799.383ZM799.383 41.7V39.3H801.393V41.7H799.383ZM799.383 44.1V41.7H801.393V44.1H799.383ZM799.383 46.5V44.1H801.393V46.5H799.383ZM801.543 24.9V22.5H803.553V24.9H801.543ZM801.543 27.3V24.9H803.553V27.3H801.543ZM801.543 34.5V32.1H803.553V34.5H801.543ZM801.543 36.9V34.5H803.553V36.9H801.543ZM803.703 24.9V22.5H805.713V24.9H803.703ZM803.703 36.9V34.5H805.713V36.9H803.703ZM805.863 24.9V22.5H807.903V24.9H805.863ZM805.863 36.9V34.5H807.903V36.9H805.863ZM808.053 24.9V22.5H810.063V24.9H808.053ZM808.053 36.9V34.5H810.063V36.9H808.053ZM810.213 24.9V22.5H812.223V24.9H810.213ZM810.213 27.3V24.9H812.223V27.3H810.213ZM810.213 34.5V32.1H812.223V34.5H810.213ZM810.213 36.9V34.5H812.223V36.9H810.213ZM812.373 27.3V24.9H814.383V27.3H812.373ZM812.373 29.7V27.3H814.383V29.7H812.373ZM812.373 32.1V29.7H814.383V32.1H812.373ZM812.373 34.5V32.1H814.383V34.5H812.373ZM817.371 29.7V27.3H819.381V29.7H817.371ZM817.371 32.1V29.7H819.381V32.1H817.371ZM817.371 34.5V32.1H819.381V34.5H817.371ZM817.371 36.9V34.5H819.381V36.9H817.371ZM817.371 39.3V36.9H819.381V39.3H817.371ZM817.371 41.7V39.3H819.381V41.7H817.371ZM817.371 44.1V41.7H819.381V44.1H817.371ZM817.371 46.5V44.1H819.381V46.5H817.371ZM819.531 27.3V24.9H821.541V27.3H819.531ZM819.531 29.7V27.3H821.541V29.7H819.531ZM819.531 36.9V34.5H821.541V36.9H819.531ZM819.531 46.5V44.1H821.541V46.5H819.531ZM821.691 24.9V22.5H823.701V24.9H821.691ZM821.691 27.3V24.9H823.701V27.3H821.691ZM821.691 39.3V36.9H823.701V39.3H821.691ZM823.851 24.9V22.5H825.891V24.9H823.851ZM823.851 29.7V27.3H825.891V29.7H823.851ZM823.851 39.3V36.9H825.891V39.3H823.851ZM826.041 24.9V22.5H828.051V24.9H826.041ZM826.041 27.3V24.9H828.051V27.3H826.041ZM826.041 39.3V36.9H828.051V39.3H826.041ZM828.201 27.3V24.9H830.211V27.3H828.201ZM828.201 29.7V27.3H830.211V29.7H828.201ZM828.201 36.9V34.5H830.211V36.9H828.201ZM828.201 46.5V44.1H830.211V46.5H828.201ZM830.361 29.7V27.3H832.371V29.7H830.361ZM830.361 32.1V29.7H832.371V32.1H830.361ZM830.361 34.5V32.1H832.371V34.5H830.361ZM830.361 36.9V34.5H832.371V36.9H830.361ZM830.361 39.3V36.9H832.371V39.3H830.361ZM830.361 41.7V39.3H832.371V41.7H830.361ZM830.361 44.1V41.7H832.371V44.1H830.361ZM830.361 46.5V44.1H832.371V46.5H830.361ZM835.359 24.9V22.5H837.369V24.9H835.359ZM835.359 29.7V27.3H837.369V29.7H835.359ZM835.359 32.1V29.7H837.369V32.1H835.359ZM835.359 34.5V32.1H837.369V34.5H835.359ZM835.359 36.9V34.5H837.369V36.9H835.359ZM835.359 39.3V36.9H837.369V39.3H835.359ZM835.359 41.7V39.3H837.369V41.7H835.359ZM835.359 44.1V41.7H837.369V44.1H835.359ZM835.359 46.5V44.1H837.369V46.5H835.359ZM837.519 27.3V24.9H839.529V27.3H837.519ZM837.519 29.7V27.3H839.529V29.7H837.519ZM837.519 32.1V29.7H839.529V32.1H837.519ZM837.519 36.9V34.5H839.529V36.9H837.519ZM837.519 39.3V36.9H839.529V39.3H837.519ZM837.519 46.5V44.1H839.529V46.5H837.519ZM839.679 36.9V34.5H841.689V36.9H839.679ZM841.839 34.5V32.1H843.879V34.5H841.839ZM841.839 36.9V34.5H843.879V36.9H841.839ZM841.839 39.3V36.9H843.879V39.3H841.839ZM844.029 36.9V34.5H846.039V36.9H844.029ZM846.189 27.3V24.9H848.199V27.3H846.189ZM846.189 29.7V27.3H848.199V29.7H846.189ZM846.189 32.1V29.7H848.199V32.1H846.189ZM846.189 36.9V34.5H848.199V36.9H846.189ZM846.189 39.3V36.9H848.199V39.3H846.189ZM846.189 46.5V44.1H848.199V46.5H846.189ZM848.349 24.9V22.5H850.359V24.9H848.349ZM848.349 29.7V27.3H850.359V29.7H848.349ZM848.349 32.1V29.7H850.359V32.1H848.349ZM848.349 34.5V32.1H850.359V34.5H848.349ZM848.349 36.9V34.5H850.359V36.9H848.349ZM848.349 39.3V36.9H850.359V39.3H848.349ZM848.349 41.7V39.3H850.359V41.7H848.349ZM848.349 44.1V41.7H850.359V44.1H848.349ZM848.349 46.5V44.1H850.359V46.5H848.349Z" fill="white"/>
<path d="M0 0.5H852" stroke="#32F59D"/>
</svg>
